<mxfile host="app.diagrams.net" agent="Mozilla/5.0 (X11; Linux x86_64) AppleWebKit/537.36 (KHTML, like Gecko) Chrome/139.0.0.0 Safari/537.36" version="28.0.7">
  <diagram name="Page-1" id="sZz0NKXBPNgjDOV7ZpYn">
    <mxGraphModel dx="1783" dy="2108" grid="1" gridSize="10" guides="1" tooltips="1" connect="1" arrows="1" fold="1" page="1" pageScale="1" pageWidth="827" pageHeight="1169" math="0" shadow="0">
      <root>
        <mxCell id="0" />
        <mxCell id="1" parent="0" />
        <mxCell id="wch-iw3XlbbgcUVOY4UE-1" value="" style="dashed=0;outlineConnect=0;html=1;align=center;labelPosition=center;verticalLabelPosition=bottom;verticalAlign=top;shape=mxgraph.weblogos.gmail" parent="1" vertex="1">
          <mxGeometry x="450" y="-138.40000000000003" width="64.8" height="46.800000000000004" as="geometry" />
        </mxCell>
        <mxCell id="FXeQf5swQIMRkxGQJUu0-2" style="edgeStyle=orthogonalEdgeStyle;rounded=0;orthogonalLoop=1;jettySize=auto;html=1;entryX=0.5;entryY=0;entryDx=0;entryDy=0;" parent="1" source="wch-iw3XlbbgcUVOY4UE-4" target="FXeQf5swQIMRkxGQJUu0-1" edge="1">
          <mxGeometry relative="1" as="geometry" />
        </mxCell>
        <mxCell id="FXeQf5swQIMRkxGQJUu0-3" value="stage 0:&lt;div&gt;pull code&lt;/div&gt;" style="edgeLabel;html=1;align=center;verticalAlign=middle;resizable=0;points=[];" parent="FXeQf5swQIMRkxGQJUu0-2" vertex="1" connectable="0">
          <mxGeometry x="-0.1243" y="1" relative="1" as="geometry">
            <mxPoint as="offset" />
          </mxGeometry>
        </mxCell>
        <mxCell id="wch-iw3XlbbgcUVOY4UE-4" value="" style="dashed=0;outlineConnect=0;html=1;align=center;labelPosition=center;verticalLabelPosition=bottom;verticalAlign=top;shape=mxgraph.weblogos.github" parent="1" vertex="1">
          <mxGeometry x="673.5" y="-310" width="75" height="75" as="geometry" />
        </mxCell>
        <mxCell id="FXeQf5swQIMRkxGQJUu0-5" value="stage 1:&lt;div&gt;build image&lt;/div&gt;" style="edgeStyle=orthogonalEdgeStyle;rounded=0;orthogonalLoop=1;jettySize=auto;html=1;entryX=0;entryY=0.5;entryDx=0;entryDy=0;" parent="1" source="FXeQf5swQIMRkxGQJUu0-1" target="FXeQf5swQIMRkxGQJUu0-7" edge="1">
          <mxGeometry relative="1" as="geometry">
            <mxPoint x="1060" y="-114.90000000000009" as="targetPoint" />
          </mxGeometry>
        </mxCell>
        <mxCell id="FXeQf5swQIMRkxGQJUu0-15" style="edgeStyle=orthogonalEdgeStyle;rounded=0;orthogonalLoop=1;jettySize=auto;html=1;entryX=0.5;entryY=0;entryDx=0;entryDy=0;" parent="1" source="FXeQf5swQIMRkxGQJUu0-1" target="FXeQf5swQIMRkxGQJUu0-14" edge="1">
          <mxGeometry relative="1" as="geometry" />
        </mxCell>
        <mxCell id="FXeQf5swQIMRkxGQJUu0-16" value="stage 3:&lt;div&gt;IaC&lt;/div&gt;" style="edgeLabel;html=1;align=center;verticalAlign=middle;resizable=0;points=[];" parent="FXeQf5swQIMRkxGQJUu0-15" vertex="1" connectable="0">
          <mxGeometry x="-0.1429" y="-3" relative="1" as="geometry">
            <mxPoint as="offset" />
          </mxGeometry>
        </mxCell>
        <mxCell id="FXeQf5swQIMRkxGQJUu0-31" style="edgeStyle=orthogonalEdgeStyle;rounded=0;orthogonalLoop=1;jettySize=auto;html=1;" parent="1" source="FXeQf5swQIMRkxGQJUu0-1" target="wch-iw3XlbbgcUVOY4UE-1" edge="1">
          <mxGeometry relative="1" as="geometry" />
        </mxCell>
        <mxCell id="FXeQf5swQIMRkxGQJUu0-32" value="stage 4:&lt;div&gt;send email&amp;nbsp;&lt;/div&gt;&lt;div&gt;when done&lt;/div&gt;" style="edgeLabel;html=1;align=center;verticalAlign=middle;resizable=0;points=[];" parent="FXeQf5swQIMRkxGQJUu0-31" vertex="1" connectable="0">
          <mxGeometry x="0.1256" y="-3" relative="1" as="geometry">
            <mxPoint as="offset" />
          </mxGeometry>
        </mxCell>
        <mxCell id="FXeQf5swQIMRkxGQJUu0-1" value="" style="shape=image;verticalLabelPosition=bottom;labelBackgroundColor=default;verticalAlign=top;aspect=fixed;imageAspect=0;image=data:image/png,iVBORw0KGgoAAAANSUhEUgAAAgAAAAIACAYAAAD0eNT6AAAAAXNSR0IArs4c6QAAIABJREFUeAHsvX2orVd5Lxry3/mvf1rca865V7ZGE40msTlJ+nEVqsZLjHrxJLG2oFHB463Wj1PvqTViPHCLyNZ6Kign2BStqCe0EqxItJpW8fSU3V3DubR2I8GUTRDq5QbbilDYzOtvzPc31u993md8vO+cc6251hoLFuP7Gc945hjP1/h4r7qq/TUKNAqcagqcfebZFyzOLF682Fu84Zr5/P6ze/MPnd2bnz+7t3hM//dniyf3Z4tl8X9v/ri2Yxyw8b+/t3hX6A99PmOxONXEb4NvFGgUaBRoFGgU2CYFVMBfM1s8AqFcFOQ1wn5jdeZPB0VhtvgjKAnAF4rJNmnSYDcKNAo0CjQKNAqcGAosFoufg/AM1vZs8Ui11b4xQV7hIRjb1978cSgtVAxOzI/VBtIo0CjQKNAo0CgwlQLBfb+3eMPZ2eKPToSwr1QOVtsK8/PzM/PXtG2EqbOntWsUaBRoFGgUODYUCBZ+FPjzp3fLjb8F679SIYDyAyUICsGx+TEboo0CjQKNAo0CjQI5CsDCxcG5/b35403g1ygZ86exZYBDjVCYcrRtZY0CjQKNAo0CjQI7RYEm9GsEfV2dcOARNw+aMrBTc7wh0yjQKNAo0CjQUYDu/Wbp1wn2Kd4QbBPgkGSbdI0CjQKNAo0CjQJHTgHsW8NlPUWgtTaTlYUnw3sEzStw5PO/IdAo0CjQKHCqKIDT+3hsZ3/WDvIdtRLTvAKnaum1wTYKNAo0Chw+BeDib4f5Jlvs5RcI628MuLBwVqBdKTz8ddF6bBRoFGgUOLEUCK/are7pu4LnqC3gXP83XHf98p677lze85pXLe+751XL8w+8t+r/A+95+/Luu+4IbV/2kpccq3EHj0B7ovjErsc2sEaBRoFGga1SIB7oq30/f03rNSfEa8og6CngP//g+eW3vvzZ5U+furjxf8DFPxUJKBfouwbHw67TFIGtLpEGvFGgUaBR4GRRAC7k8MGbHd/bv2b/XBD4D55/YPndx/5k44J+rPLwxIWvRsUAisjtt9yyM0oBfs+TNUvbaBoFGgUaBRoFNkYBCH5YjIdtpY7t791vfePyK5//5JEL/BoFAUoBvBHA+cgVAnzhsH2caGPrpQFqFGgUaBQ49hQ4DoIfwhMu9x9d+vaxEPwp5WAXFILmDTj2S7YNoFGgUaBRYD0KYI9/1y1+7K8fF2s/JfRz+di6wGHDQ/cONG/AeountW4UaBRoFDiOFIDg3/U9fgj+bR3iywnkoyyDdwDnGQ71xsHe4l3HcQ43nBsFGgUaBRoFRlIAH5fZ5Yd7TqPg95QOKAPY8jgMz0D46FB7TXDkSmrVGwUaBRoFjgkFcI9/l9/nh6DDYTlPGJ72PGyB4BDh2MOSo+q3LYFjspIbmo0CjQKNApUUCFf6tvBG/6vv3Mzdd9yfb4K/7q0CHIAErbbnFZg/3T4yVLmwWrVGgUaBRoFdpUA44Bfe6d/Ms7UQ1G9985uXn33ooeX/+tu/XT5x6VIIkTfK0uweCwK8k3Cq/6i8Ezgfge2SKbQvtcE20a7O64ZXo0CjQKNAo0CGAps64KdCHwI/9T/20Brc2djjPirheZL6BR23sT2AjzxlplgrahRoFGgUaBTYJQqsDvgtnixZeKXyX7/3dctPfuITSYEPReB7f/d30QsAeNfMFldK/1AUTtvJ/sNSNrA9AI9K6bcdU44rors0vxsujQKNAo0CjQKGAuFDPXuLx8Ywd1sX+8ofeN/7lt/5y79MCn4KfXoCvvs3f3OFWwA54X9S9vl/8o9/tcT/vzzx7fj/r0/8xfKfL/15/P/x9766nPR/6dEIA/C0D/Zbo0xs2iMQvi7YbgiYFdeSjQKNAo0CR0yBTRzww2E+7OtTqNvQCn2UQ0l44P3vD4fRKPj3Z7Ml3uZnmnG4p4/L630UtFH4fv+bQShPEuhTFYFCOyobwPEnP/jO8qeXL7hbKRtVBPbmj+NMyRFP99Z9o0CjQKNAo8AmDvjBcn/0K19NCn6rCCD90Kf/sDuBPguuZgh5eBKi0JdtgJ1291++cGDJ76CQn6Jw0GsAJUY9BVAENnJYsCkBjfE0CjQKNAocLQX29xbvmvqQD1zx7/6td2bd/BT81vLHmYBg5YuQh+AfWP6zxRXsRasQOtL45QvBnU5X/Y8vPTrNRV+wzFVo/79/++VBHzbPprX9JuL/8v1vhnHTQ4AXBvH7262fkekn28eEjnb9t94bBRoFTiEF1nnIB4wf+/u8vkchz1CFvcZRjvR/eeBDQfhT2HuKAJQBWJpH/VneuEf//W8utyHsreC26SnC28KwacD08mr7ondgM96A+dNNCTiFDKgNuVGgUeDwKRDc/Wt8ovf+99+/xGE9CvvaEMrCw1/871dwI8AT+FQG6P6HhXkklj7c+T/4zhIW76YEvhW2Nl0reKe2q4E/FTbo9LlPfHBNT0BTAg6fE7QeGwUaBU4VBdZx92OP3zvRrxa+xqkYoA3c/Wj/K7f/cmf5m33+sPc/C3v/2Os/dKu/c+sHoT/CNW8F61QhauEwXYJXKiccDWva1NRRmIh/44t/sLzhuuesoQg0JeBUMaM22EaBRoHDoQBO9+P61cj92cDMcarfE/wU8KkQBwLh6v/Nt/3m8r7X/0bYL+ZJfmvt0+o/7L3+aOlvSeiPFaRj61shjLSFYdNem5q8Gjjfe+xzyzte/EtNCTicZd16aRRoFGgUyFNg9Yrf+Od7cY8/dZ3Ps/ShCCD/Tx9+eIltAgj+33r7O5avfuWrls8695xwpQ+C3zvlD8vx0B706az9se59FYAarxGerGPb2TTr5cIpbVLwamCFOs5Bx1Tbyxe+tHzHffc2JSC/LFtpo0CjQKPA9iiwjtWPA34pyz6V/8ef+czyP73rPUHoQ/i/7S3/Mbj8V1f7IPhXLn5a+/QC3H3XHYdyrz8c5sO+/ghrPyXkxsDYRN0aPA6zTs2Y1lUC2jsB2+MNDXKjQKPACabA6gnf+dNjXf4pd3/O4n/0zx75t9957+8GwQ+Ln8IfNwUo/Cn0bfowXP4Q/Di1XiO0aoRoCo621Xiqvs3XNhq39TQd6jnWOerUwlB4NXEPrpcHWGspAe2dgBPModrQGgUaBTZOgakn/CGsS2/10/KnMoBzAdjjp9BnCMvfFf5y3x/l23b51wj+lOCqEYSoM6a9rWvTtX1upN6lRwe4p/BJ5dfi0ZSAjS/zBrBRoFGgUaBPAbj89/fmj2/b6sd1PigLsPT5T+H/lje9yRf+5pQ/7o9v7Yof9vhHuvpTwswKP5tOtdP80CZhpWu9VFzbl/rXugqv1E7rrhv3+mpKQH+ttlSjQKNAo8DGKICHVKa85veR3/twca+fFj88AHD3Y5/fCn66/a+/7rr++/2d1c/9/vvuedX29vt5uK+wx+8JKBV6pXKtu5G4Y42PgTsK38q+UjC9fC/Pw38dJaB9RXBjrKIBahRoFDhJFOg+2Tvq1DXu2nvv9quwp8sfIaz+3//ox4Lgp7VvQ9waoPfB2/PHR3y2ZfXjOl/uVH9OSOXKPEFm87S9xm09pkt1SuWEkwtrYdTWy/U1pqwpASeJ87SxNAo0ChwpBaYIf7zEN+Ylvz//2teWOOTnWf3Mw+HBKPRlr5/X/j7/4PntCP8NuvtzgswKSpse0zbWrbTGodh4/Xl5ETa9IIm2Y+oN+vFgennOGQlcEVzrnYC9xbuOdMG1zhsFGgUaBXaBAqtX/cbd7/dc/tbqZxoh9vqtpQ+hr3nY91+d7u9e95P9figF2xL++HytZ/UPBBaFoQlDvcTefC2MgSCVPnLwc+1YNhaHmv5q6rD/bYXrKgFQendh/TUcGgUaBRoFjoQCYy1/nLrHAz3q1s/F/+df/VV4zAeCnsLeCn5a/3D9e9b/1oT/CKvfClGbViGXK9N6k+MJKznAy5WJUpHyBozCqdSXV+7ldXj16JappzjixcDpzwa3J4OPhOm0ThsFGgWOngJjhT8EtN3vp5WvSgDz8MEeCneGqgRo3r13332w7y+WPxSObbznj6t9ntWvwmUb8SDkOm/BIO4JQhXaiXhPcCbq1IxF8UF9C9eWW5i2vi1fN52C/9dffjDOHZ4dqQ/nT7eHgo6eFzUMGgUaBQ6RAmOFf/iwTubLfRT6VAR4vY8CnyGEPuMMkYdT/5Zpb0X4b+iEf0+Y5azVXNkEYZ0Sgj18CDfR9ygYhDUmtP3atMDaFC6f/fgHBvPHzqdkem/++CEuvdZVo0CjQKPA0VFg7FU/CH+c3qdwR2gFPsuQj/MBFO4Mae174R0vfZnLvL/y+U9u9sBfxuVfEkReuZdHQZwrY51SOAXG5DaJMwwejlP68OB4eRa2TbONl/+773ijO4+Sgn92cO7l7Gzx8aNbka3nRoFGgUaBQ6AA3J37s8WTNUwRdcac9IeSoC/6qbCnImBDHPzDB34sPhs/8Hf5QvUzvhQyWwmtNWzTYh2H/gvlniBM4b1O3VLbUrniNKautquJv/bOXx3MJTu3Uul2KPAQGFDrolGgUeDoKDDmU75vffObe1Z/zvKH8OeX+yD4raBXZUDjeuefjHnTwj+1358SRKl8CqBQ7ljMqXy0K8EswWb5mDCHT8TJGceYPry6dqybwsPC9frGzYB1DgXiFcyjW52t50aBRoFGgS1RYMx1P7j96dZPhdwGwFsA+OqfCn4V8oxbpeDX7v61gbW20Ud+Ll9YpoS/JzxSeTWCJ9V2W/kDnAqeglo8BnCtR8Kkx9avxQP1amDbOvhY08Wvf2Ewr6hcFsN2HmBL3KeBbRRoFDgyCoT3/Wd1X/Wze/4U9J4iAOGvn+5NCXvmM8SHfuzBv3vuunOje/7hfr8RWCkBZAVJqp7mp9qk8mvaso6FYdOsVxPatiFtLH8vD7BtvoVV0z/r2LabgA2Bj98Zil54HfLyheVPL19YwotUFPZyBkDrnt2bf+jIFmrruFGgUaBRYNMUqHX95077W0UAd/z5+V4Kdlr5TGuoZehHmS62An506dsbUwBKwt8KIwqpZLimhV3TX02dAX4eXl5epSI0gD+mndPvpDF5fRrY+EhTFPpPXXTnDbxJOsfGxBdnFi/e9Bps8BoFGgUaBQ6dAvMz89fUMD9cu7P3/D2rH3nq9oeQV+GuaZuPMr3zT7w2edffE/5jBNGYuhCYqfoh31jaVsDW1NlEGwsjh3csG4H7lHF4ODFP4Wk8Kfhh+VMR6OJQKKFoph6XyuXjoGx7H+DQWVXrsFGgUWDTFKg99f/Qp/9wsO9vrX4Ifxz4S+35ewJfFQLv1P+D5x84YN5k4hNDT/hTqKTCIGA8q7PL65UbSzQF082f0nZkmx6uOqaRcDz8k7C1n8q4hWXTg/4vPRpc/VHIc344gl/rQLGEYpsT9raMSmnbCtg0J2rwGgUaBQ6VArUP/rz7t97ZE/6e4Ece/nHVD0Kd/57QZx5D1MW+P5gxGSzCTe771wr/IGwK1u1AAFUItqIQ2zCMmv5q6mCsqXohfyStPFheXjWNLz3qu/tV+FMhQGjyeR4gCPr9cwfKQCoePz29WLZbAYfKrlpnjQKNApukQI31DzdpytVv8/nCn1r1VARSeRT+N7/wxsB8qQBAGXjiwlc3Yv3nhP9o4VNjLefqOGU5HHplImx7+VAeHLjVQlSVj3XgOG0HeGpfY+MWvif8jYCPAj+V/9TF5Qfe8/YDwS9fmbTWv6YxT3F2ZpPrscFqFGgUaBQ4FArU7v3rvn/K8ocigI8A0aJnmBL6LEeI637W8gdzPf/Aezci/FNX/YJgEoFqhaUVXDat9XNlWq8mvklY7M/CDOnM2NnOhhaOLR+b9vDQvFJ/8aCfFe6OpR9d/17dpy6G8wDPWZxd4tPSq69OzvpKAb9BwbBTFNqBwENhV62TRoFGgU1SoObkP/byrZXvpXHiH/v3OMCHp3tvu+0Xl7Dob7v5xisIkYd/vBwIgY//V7/yVaGOWlWMw+sQGba6b2viwuBTwn8gqKxlOdYyzdTnVTR4IfQfh9AGeGTg5Cz8kqCs7acHJ0cTp6zX1huH06YWL2/soGW07nVeyO/fm0NevuTB24RHgjgHqQgw7YXNC7BJjtRgNQo0ChwKBVb3/g/eOqfbXUNcvfOEPfLoCYB3AOcDeJBK2yMemGawmIZ9RYaqe62dVfWtL392ugJAYZB43rcoqDzh5eQFOMaKJmwKfVdAEb8uhCBDfU8Yen149TSPOGheKj6mbgpGKn8M7mPqsr9AWwpwG4K2Jg8H/jCv4FniP74ngTxuNSEd523lVgDmcfMCHArbap00CjQKbIIC+LiJFdY2jf18VQAo9L/zl3+5xOM+q2d6ZyuXaccsLQymo7CvYKprH/zrGH9KqFKAuKFjpUYh6ZRZGEmrVAUSFQAKqK4MbWNfjsLR66sCF89qroZv+6/pz7aR9KDfHLxcWQcz0Jl0TITwsOCAH+YT5yFDzkemEeLhqXfcd+/gaiDKdGuAbbFNgDjK21mATXClBqNRoFHgUChQOvxnD/5B6OMrfsiHa5T/ca/U7ItGJpkS+Nbql/absP4hIFRgDgRQJ0hS+dq2FAeMwf1zCneGKqRsnqR/8oPv9PBm35vAk7BSYeij82iU+rPl2jYFf2q+15e17m0aFj7PlbhzMeGVokIQ2sicdGGYud1uBBwK62qdNAo0CqxDgRr3/wPvf38Q+NjXV0t/xSBXh6TAFMM+qWGEWWZpBX/XFnBgZa21998JWSv8pwqeqnbeKXQV9ohTwDNkuU0L/lboRVwK1nGynVjjAVYBTm1/sZ6Bn8Njahn7grLV29snPZ+6uISbf6WkdttPztykkPdCO3fD/KYikJi7q3WwWJ6dLf5onXXZ2jYKNAo0CmydAmM++qNMMlr7DlMNjFMZpIknFQUy186VCqstxdxr8msO/XkCyObZNIRPyBMLObihIcRVkDPOUIRTxP/yhbDnDE+H/oenjrt2tUqMhycFpS1T/FlnF8KxeEW6g7ZC5+SjPjoXU3O3Ij/OYc5ZhtK2vQ64dfbVOmgUaBRYhwL7e/PHraVTm6ZFxPo2zfypIRQOHMSKwtIToF5eJwi8fX8rCNcWerD6f/CdPo4iiAa4X74QvmOA/ej7Xv8b0TWtyhXj8LbgTjoOpWEPH7huHH+11h1PQLK/irqptqn83G8R25h+PdpDeeJB1OLcSygEg7mcqJeCj9+wvQ64DmdqbRsFGgW2RoHu1b8nKWxSjKw637GAem21fP9cuGKFq3+vvvPO1UErU04La+onf2ut5pzQsWVBCOlJf+vyt4Kf6S6Ehd//6Iy5W955PvibaPi773jjEt+vpyJQUgYGuKqgl3gUrJJnx830mLpsUxPW4urBinf/RRGEYgXaxfnnCW+db7DatY4tE6uenq/VQUDpw8JY/ZZPbm0BN8CNAo0CjQJjKXD2mWdfAKufwoVMMmvxeMxR85RBdnGFByGP64Gffegh9wNCuGFAPGwIPAdWtDB7r8wenksJLptfSqsAgnchupwp6ImXScMdbU+f23Eizd8kFcIj8NdfftA9GKi4xbixlplvx8n8bYdj+62pH35/0vvyhbDvT+XRo3FP0Dvz1m2TqKdz3GuH3xEPbI1do61+o0CjQKPAxilwzXx+vxUuHuOamkerCAevcEtAXw3UK4Q2jq8Fxj4d62vUTYDLF3pW8jaEGoS/Z3lGhaBTBOCKhgtfaR7HmRAquXLAweM033vscwMloEZYlmhhYYS0ejzES5Crm2unONh6FqbWZdy2sTQnvXN0rCpTBdfOSZvW39KUtcOAG2djDWCjQKPAGArgMNI1s8UjWcanDC9Yowen+3PtaAXByofQxxVBK+Br0ngV0OsHQq/qGeDOCvzXJ/5iIBwpPBDWCBmtH+JiSfcs/4TFD6EEpWV1Y8K4iVVYIK5017jzG1CRuOPFv5Qd4wB/CG4Zg1suwr1XPrWdwJtEc7Yv9B89QN3vD5p786hHZ4e2dO3beoCFOQ7l1oPL+e+VrdrOnx6zVlvdRoFGgUaBjVEAwt9z+UeGZSyWkG/zmFYB1e3jv/XNb64S+nw4CMqAxqkcQHkIzNQKxdniSu1jQOHUPwVHZWiFk7UwrTAMFqe4nKMAgjLQ5UNhobCOdKbgVxoyz4aZOoT7jS9+PCgBFl87HuBv63BMXl2WpcIUrFR9L78GRqkOcbeeGNAn0ryjI7wm993zquWH//Pblo98+sNL0I7/yPvI+35z+do7fzW0i3OQvwnnPtJOfOX1Mmc5zO+H8zYbW9ANUKNAo0CjQA0FVPhHpiiMbZDHskIIhgqB/b/+9m+z1r4n6CnwrSKAjwel8AFT7wlaWt4MIXiN658CAgJI455AyuVpWytsIk6d4IfLn3v9vbEYgVCyGrWtrUsFAIIrh/e6ZTruJCy1zjXeKV9VMCbUVXzCNcBuHqA/pR2EOhUlbZOLo/473/L63ncACHOgHMg6sb/TQZugkDxSs15bnUaBRoFGgY1RIGv5C/MKzKqzbqJFY9OzxRVcrbr//fcnBX9J4KvwxweDHv2zR/7toU//4fL3P/qxALfHYNXami2u8H32KHQp/LtwzKn/IJgSe9sp4RDu5aOvhPWPcpx9IOOvDlU5MGPuWZzye0EJwK2AFK7IzwlfO/5c3VwfY8tsv7Xtc/iFLZmnLoYPK2GbAzSDgjpW8FtccOPisx//wPKXbrnp4Det/H3ib9/Vx+/V3gTYGFtrgBoFGgVKFOD7/mRGtFAYMt+GYFaat7I4Z+G9fxzWUyFurXiWeYoABP4ff+YzQdjj2wH49C8/A4zPBOMfXwr092AXYU+9J/wpiJ+6GA7kWQZena6wXClkev1TAelOnrvCX4U7BbiXx7JMqL8bfhPrAcgJySpaOHTQdha+TWvdMfEBnBweiTJV/mD1h+uSlVtANbh+8v/+bdcjoOvEn7d4Jnv14au2DVDiWK28UaBRYCMUwNUjMp4ek/IETMGqgWCrPc1PBYDhn3/ta0tY+L/z3t8NAp4CnyGEvsahAPS8AMC3w+/B8w/42wCXL4S398nIBwJlTRcz4MbHZqh0MHzqYnikZ/DojKWpjKPm98Ahv7vvfFlPEbPtvJsApIENUzSx9Ww6tKv0lNg+cm1zZRaHTaZdHCsVBSgV8LqE38H7fbm20mVtG2Aj3K0BaRRoFEhSIOz7z+ZPU2Co5ci8mhDtYKl7Vn/O8ofQx71+tKVlz1CFvRf3rGjgAWUm3AQQwUtXfPLgX8JaVIFiBYKWMZ6z/qe6/fmbwFrFATS4q0sCHff/4ZKG5Y89auI3CCvGzTY142fddcNiXwm8i+1qtjsqhTzGWOoPhwixxaBbZcn1JN4ezOHkom0FjQKNAo0Cm6AA7h2D2bhMqbNOVsyrq+PkwaLFoTxa8qUQSgIe+aFrXy17CnqGWmbjd7z0ZUHYB9yFeSLduwooigAE9LrCKcf448E/9ikhFJYeLTtLv0d7Q1/sKcOlXBL4tWMqCSyFU6obyjMWv21fqq99byKu/WtcYafytc66cfx28NKsvGzmBsBscSUqB/QKdOHizOLFm1jjDUajQKNAo8CAAmAwFD60MplmWMqHUMvd5df9fezrw9pXQZ4S9FoHce8fCgDx1ND1APDgl1h3Ncy/pg4EBOoF658Cn3v+XahP+iquXhz4Q/DDgl9X+FS3T1jU1e0nbp1Y+tq013+vzobw9vrRvF6fGcvf1iMMbAlQCYgCv1NavTWGOYBzOYNF2zIaBRoFGgU2QYGze4vHwGg8IaR5gUEZ6wTluNNvr/apwKcnAHWwt08hrkLfCnqWMdRy5jHseQAMfp4HIGf9pxg3GXhNqFfMuOWAg4D4kA/ozP9IW93/lTjc/Js+mGbxHzveUL+z9jUOuDZt+7LpMfVDXVHaLKxtpLfZ5zvuu/fAayVzNq4xmQe4lbOJdd5gNAo0CjQK9Cig1n8USMKQeEpZrRONQ/hTwOdCbA3gXX8V5BqnMGeIstr/X7v716LyorhB0NozADz5XcvcU/VivmN5BqFvPAC4jogtkpKiBfxh9Y95uz/iQiEsglLLICRtOgpOZxyTXwGU/iP8iZ4B234sTsnxJvAp1R/gY8bqtffyAAeeAK45nbfMY4g5064D9thWSzQKNApsggJ46jcKJd0/FwuEjMiGVvinrH7c11dhn4tT6FMRqAlVAbA4Wg8ABEiJia9VfunR/q2DThFYfWludTAx4ujQGEIhZ/WnhMlaOBshtilYY3H16oe8wm9m26Xa2Hq147TtbLoWjq2H37n3XoAq3ibergNugts1GI0CjQKRAotnLBZR+BuGAyEFq8TuU1J4WeFvrX8oAzgTwKt8VrBbJcArZ14p7J0BECUGY1MPAK1/y4iRjkzds4RFQMZ6kqfw/uX73zx49Kd7AAjv+wcLz6Ex6YkQbmGFlYwXcEy2U5wLMNxxOm1sPZvO4uLAy9ZX/KfGt9Rnzbi9OvD0cA4MvAAyl9vHgSLbapFGgUaBTVDAPvpDRhRDx0JFmRX+nuX/8Bf/+xVa71bYa74to7BnnZpQzwBYQasegG1Y/4Gpi4UaX/6Tw3/eNUW+UxBovX9umRL+ntDICUlbv5QmLDsO5iO0MLSsJu61z/UX+xS6Whil9jV4sY4Lu1LBSOFhYbIvL8QVzd58cBTF/dniyU2s+QajUaBRoFEgUABMhcKe1gdD5tsQX++z1r5Np074U5hbIc90ShnQci/e8wAI84QHAAfvcAAvZf3XMuraevHxn571v0h+FQ70hdvfEwy1ebW41cI7dvUcq15povF1x7ZJWMSlZisAc7mdA2iMu1GgUWAjFDj7zLMvyLn/e4K/8wTgEJs97a/CH54AfOynJMjHKAKsmwrRl3oAeGiR+MP9jkN5evI/x8RDWWd5apzMmmGqrKcAPHVxOdj7N14V7AHn9vx7/VVapWwzJcwxZ8L7AAAgAElEQVTRhvBsHTct1nuvXSp/4thSvwP79MLaNnZcHiyb58G2cGwaMHDVk3M2egNkCwBl7T2AjbC+BqRRoFEA7v/IcGA1G2bTK+usalzhU4GPuLr//8sDH+qd3M8J7ZSSwDaepZ/Kc13s4QzDIjy5C6FsGfUm08rQ9QEgbAfYLQlL19Rpf4Xp4VoqRxtbx6a9Or2+HMu6V54T2mu0tXiW0tU4OfhG2Cl8U/mAlStz+srhCSUQLwXa+cE0lPWze/MPNc7VKNAo0CiwNgXg/k96AGilMpwtrrz6la/qCX8V/FAEYPlTeDOsFfJan0KeeaUQ9VffAvDfMQju/+9/s6gABEHgWKfKtGvqqAeA9/7JxGPYKVt42U/hrxOPgmyk4BnTZ834a+BtC9cU3E3hzbGl+mE5wpo6Wh/x+M0A2caKc2a2uIL3OtZe+A1Ao0CjwOmmAE7/K2MpxWHFpp74hSKgj/tYAc40Qgpz5tm0V4d1UyFg3HbzjVc4Bj3DcPsttwT3v2W0TNcw6Zo6hIcwPgL0s20HvPpHvGyI9/y1HeO5/nJlbF8b9mA5lmyvPKVU1LRz6gxwrKmTwsHLz8ArjivTdoA3+65sY/u2aTwVjHmiczjMm05h3J/Nnz7dnKuNvlGgUWBtCuBOcbT+1fXfWfzx6l9nieQO/uGLfxTOFOgMUwJdy0t1WDcVov2zzvmu07vvumP5r0/8RRS0luF6DH3dOkEB6O7+QwGJgl/oDFdv7Zv+PXzEQ9HLpyByLM9UPW/stXmbgpmDY8tCumL8tWPQeha2liFeKrf110nr40Bx7ohHAMr72gygAWgUaBQ4vRTAnWKPuWgerRCEONXPvX91/eNNf+91PyoENqQQZ75NI9/LY30vRH3FW88y4ArgOsx4TFsKrPAdgO4KYA8vYeK49qWw2VbzNh6vtFIH/U5p57Xx8kRxGfQ7smwUDdfAxfZj03YcpXJbP1wJlLli51B7EOj08u028kaBjVBAr/9ZBhNPIHdMCFYshb+GUAR46E+FNuM2VOHNMubZNPKZVwpXp+z9/f+vfP6TPUGrzDYw5s6i1Pg6ddgW5wC++9ifDJ/93T8XXn5jvVQ4RmiMqWv7s21t2tZPpae2s/ACHLHybTnS1XVEgajFz9ar6UtxtO21jHFbx6ZxKDR453j+hmG3HttBwI2wwAakUeB0UgB3iSn01cpXy5nlCN/ypje5CsAff+Yz0fVPQV4KKcxZz6ZV8LNOLkR7PAPMcSjeYKKpE/ZkxtsK4QWIr/+J6x84rftlPyswcmMYU9eD47afYD2vC8dtLwLew/3I8ibQx+JqbwPo/G4HAU8n326jbhTYCAVwlzju/6dcjWJ1fPahh6ICQPc/3gKA8KUArw0pzFk/lUY+66RCtuUbAN6YlLHWCJFN1UG/eBLY4nT3nS8beCRKfZbKOcZSvVBe8HgQlheW4KNNTZ1YL2Pp18CpqWPHYdvYtK3PtFcv5GXGwLYIx9RF/fvuedVg7lC5bV8G3AgbbEAaBU4nBfb3Fu9Si4KMxYas892/+Zsr6vpHnC/9UQjXhhTmrG/TyPfyWF9D1tNXAIkzxoIDgMqEB/EaS62mjliiVlDoh16gDHzjix/P40RhITAHeKPMwwvCyMsfA2tM+1zdXJmHz9j6CsO0jb+ByXfpqHAkHmFIXq79qPoOXrY9zwHofOb6xDw6nZyrjbpRoFFgbQq47/+POP0PhQDClwK4NvSEN/MIg2mEzEuFrIs3AMgcNcSdao9pW2a7zTpfeuijEbd1n/sFngH3SqvTG9dR5k3FXdtpfJNjCXDHCPvCb7AunlAUrfdI5zZe8VybETQAjQKNAqePAthDVGZi42p14IS/tf5x559CmUK4NrTtbFoFfwkm2+J54jiGeF96xF67Y5ENhEuqTiqfwuTSo0scRMRBys994oNRIbECx6ZD/yXY7IOKgaQV/wjbgRfLEm0Bx6szyHNgKw65+ABWBpccnGSZg1t1n07bZD8Wb6dtbb94FTDOaeddgPYk8Onj223EjQIboQD2ECNzkb1+e/ofdez1P5wB4LU/FdYUxqWQQp31Uuka2GybspT0nn0t461m7pbZZ9K4EYDngbcBOwUzjLdgpXptp7azsHL0zpUBTqncq+Ph7eVZPL10bTuLZ2079um2l3mE7aPU3G43ATbCChuQRoHTR4Eo/FMHACUfn/RVDwBeA6TgnRKOEfw18H/93tf1LCWO7frrrqsSuJYJkzkzHJQ7Vh3rathrd+nR3oeItF4q3mvfCQWbZ9MpWFPyB9cnM+OuwaOmThLPTN+9NrX1RMhWn5mYABv7+KlPPPfwVnwkjpciOZ/tDR2843H6OFcbcaNAo8DaFBhYFRkvgP3yH+79U4iPDVWgsy3zbBr5zMuF995994GVJOPAKeoUkw3CyLGOpwqpw243dlyob3F00x1NcHUy9Uxxqu+p+QEP57fwcJ7ax1RYlka1/XNMUACgiNZ86dGDDeVhsFbjWwDtmwBrM8IGoFHgtFEAe4ewKnSfP1oZHXNhGUK1/nn4j0J7SkhhzrY2rYKfdXKh3gDgOMA0wXw9prpOXlEgVFiJJRi98gp4ufH0YIllmWuDMh5A+8YX/yDQ0IPj5fWs6Ym4u3AVdwdusY22l3ivnQPXpZNTrwdH4GMO6lzUehpHPzaNPLTnnLZrtn0T4LRx7jbeRoENUKDqDYBOEcAndlUBgPufAntqSGHO9qk08lknFaIODtd5VpJet/OYq8vcO+ZdWz/US1ivhL9JWJ6gqMGBuNSGeD4ZNPXeLKiF4dWrpYXXdkxeqZ8pNJvShgpA9AIU5ood4yOf/rA7t6kUbIAdNBCNAo0Cp4kC9ACQidDaZ5p7jRAA9gNAH//Yx6JQpuAeG1KYs51NI9/LY30NUY9XAHUcwD3pdh1hwfUsWrHsLKPepXRJ+Hljsm3wiWLQEP/0ApTGaGFk64/5DYTuo/pYp52DX3Y80lesd+nRJRUp0LHq9UfTL5TYuC6hlJsXJfGi52niXW2sjQKNAmtSAKeHwZB6jKWz+G2eVQD+07veE4UzhfTYkAKc7VJp5LNOKkQdizPSm7hvHxm5Ye5BCBlLzgomm1ZYtsyDh/q19RS2F7dwvDp4thhfMORXDL/+8H9brr4GuegdYquBRfipcbG8FJb6suXr9GdhjcVN2//o0rfDjY+fPnVx+eD5B6IihRP9Fq62s2VI4xYLFTFvnrergGsyw9a8UeC0UeCa+fx+MhMwl/jZX7EuWK7fAMBX/yis1wkpzAnDppHv5bG+hsAv4Cq4Y0ypk9clhutZxx5jPtI8YyUCl+y4RFnp1bv0aBD4uJ4IYfXT7vPFiK++YbDyAICeep3Sjr0H0yhLlp7ZurYt0s5Ybf9uOtduQlkN3nj2WWmIuKUjFAIXX2/sXR7oz/Vow6YAnDbu3cbbKLAmBeABoNAMbnM9+Ne5GelO/8D73hfPADz6Z4/8GwXz1FCFN2Ewz6aRz7xUuPoI0JBBwoVdYrQ1TD1XJ1emfW+6nsJOxXN90tq3Qj+kO0UAViwED/+9A5WhD1EuiEsqn+UMPRxr2wIGtnjwO+M/ud0jgtXrj7isFXaKlEfPJy58NdIQtPS8AOjb4qbpqADwhgvD2eJKewtgTWbYmjcKnCYKzOfzn9+fzX+olgSFveYhjnxVAKZ8+Y/CXUMKc+bZtAp+1vFCtHv1K181sI7AMKccAFSmmxIIm6rjMf3YZ8JCrek7whDBp3nBxQ8h7/2LBwDlPFwJeiKucI4qrjTgATvg91r5wJLWqcHTrZ/4DQYeiUuPRnf/gKYdPYGf/uNMhdtn4jfTb0nYNdoUgNPEvdtYGwXWoMDiGYsFhD+ZkWUmXvr+998fPQC//9GPhS0ACuypIYU526fSyGcdG7JN7wpgZxlhfDWMf5N1AkN3rGHtYwzT13apuIWXwoH50dVv3P09t7WUvfutb+wJLpxIT+GCfPajdbw8LY/tjPAL7UyebacKAH5z77BiTf8Kd2x9l6ZGkbrnrjt7dBx7swLKDcY3WJ/755btMaA1GGJr2ihwWigwf+b8tv3Z4sdW+Kv1jzI9D2A9AHgAiIJ3nZDCnDBsGvleHutr+W23/WKPMWIMpQOAUbjUWHmpOgXhNLAUc/ULfUR8czAyZXD5RyGvwknjIvhpyX7+wfM9waVWdkpwqzBNxUeNJ0MbqwCkzn14eIzCoaOtbROFv6WjoaXeBOD685SVFE35GqCuVSgDgIVvepwWHtbG2SjQKDCBAvMz89eQYZABIRxYFB1T0Xz1APzOe3935zwAvAKoOHsv2AXmXbDQPUHh5VlB4NUp5eXwyZUBblW5KARRUEEwef9WgHVpew4AcyZ3GJBj9uhTwpltx4RWAUjtr0eaCU1q+snhDNoMaGnp2CkC333sT3qKFOior1Tm+gGeSQ9AOAPQFIAJLLE1aRQ4HRRY7C3eUBL+alnYuJ4BUAt8nbi17m1aLfxUP2wTFABzAwCCoYbBe3U84eXV0zzbxqZHeQNGCiniMeizg9Pb86eAsiGVAuYz/dTFIKhUaRxY2RkLnbhlQ6d9aiyWjlYBAJ48DJiEkaHvmDbBo0J6MRS6RY9Ll3fDdc8ZKAFJZcrQBJ+0VgVX4/io1+ngZG2UjQKNAqMowPv+ysAZj0xEThTHPHkTgB4AfA+AQnfdkEKdcFJpVQRYlyHbDMbzM9z1wZXA1B3LP5VvhVVtPduuNp0TOrmyWvhF6x8CygowSWMbgPOCtE4KroxwVXzH0DRHA7jRiRPD0jkF4KH9a1xx1LjFIWypqLBnXOgWvQNd3jvf8voBrgNlKkE/KjrhdxBld/XlzsVyFFNolRsFGgVOPgVwOIhM0QvJ1L2QXgCE9ABAAaDQXTe0QtymVfDn+kI7iz/GqjcAcoy8toz1oiAwFhrLvTC2IXNPtU3ls10XWng2rTiEe+kUTiroKagYso6muzhc3Tdcd32gM+cRBNegXwd/raPxgKNTX3GvieN3Jk4M1bW+Tj8DfOV3iF4V0ouhR+OOthe//oUBrsDZKlNev1AA7DxHmmM++dysjbBRoFGglgJX789mDyuDIKPQsMdQBlbFLDIcfGoX3wLAR4BUMFNojw1VoLMt82w61x/K3vaW/xiYahiLeDLoBq4RIqk6gRE7noNsfRESqXpT82vxUQES96lVQFHYa5grv3xh+YH3vP2Azp13CF8LnDoWr53i7ZUjz6ujc5pxK1RT8KbmDzwmSksbF9rijAJxZFjjBYgeAJnjun5rGUOr1yjQKHCyKRCEP5lLLlQGkovzKWAqABTW64RW0Nu0Cv5cP1BOLO4Y8xjG7gmVMe0HdTOWbXVfGRiD/jJKR7RUU0JJhJN1WauQw2M2pDPoC9ezvREwBq/aujX0wo0PO8+neCiAU7I/83sEWpF2pRC07+p85H2/OcAVXjZ4B3I04XcZ8BvQO6e/R3sL4GQz9Ta6RoEaClQL/8DE9cU/2fMnY1ntL87ix4D0M8AU2FNDCnW2T6VVEWBdDVOvACoz9Zh6yEtY97as1N7W175LcQvbpnPta+oGBcAKKKsMiICKSoDW6drzLvtKCK0etuFrixaXkHboa+ulxpdqr/UJC8LeKgBIb8oL4OFCge7SS2ln4sCJ+/aKs/UCcGwcr251xPUpaxawzu7Nz9cwiVanUaBR4ORRYJTwB8NQRoK03v/XMnoAdvEMADwAahFhHKU3AMhUDyU0luPkPivhWMExOKxmlQGmVQlgHsNOiOFNe84L0Jn/pa0Ai1OggRmPW0c9G6a+0hEHPomLhipUi/Ar+2K/PcFPOmVCHMTEb4H2KYUldW4FbagAkP42jOPem33q5LG2NqJGgUaBHAWuvma2eCQyAWHOpbzISBJ7iyh/2UteEs4AfO/v/m6jbwCodb+uByAoAZ1F5L0BQMYdBEHKMnXy2Y5hqj3Ka4VMDgb7YbgJmFW3AIyl6gq4py4u1QuAuYH5hQOCmzhzwTGPDWFVp+Z5SjmxdB3zmwC/SFMK/QT94IGh4Oe4KMwtzrktFW0T1qye2ZHDgIDZvQx4dY5htLJGgUaBE0IBCP8oyMUtuG4eLWswFRwCxD/d7xTYU0MLx6Y95cDry54BAM6qAFhGTyZs75PHfLUERwh1r32yb+1DLVuNax0bL9Uz5dELQGE1NhThpl4AKgCYH/C6UAmoGrcdE9IGb9K0Bp53DgB45YQq4Y8JiUugKelI+nRpKAee4Nd+vMOAwNd6AdgfFYDUmkbb/v/s4RPC3towGgUaBVIUoOWfYgzJ/P1zweXfK6cXgGGnTECoUgHYpZcAoTTgDEBvDLPFFVUAlOnWxMlwS3Vr6xFOqG88DF4e6286HHymlkKrJqSg60J4ASzNIXyiEiDj1DFammlZ7XgtDLbDQzl9AXggEPVNCNZPhRa+TffadV8AhLAP/9//5sDa79UXpYeH+izOt9184xUqUtqWCgDq92jfrVULZ5VuSkCKb7b8RoFjTwHe8wdDoLUemYO6CJ34S/b3l++47rl9ZiLeA4WnCsAufQsAHoH7Xv8bcQxgejjHkDsDkGXowqCV+aYsU9aJMBMWLOuNDh14sS9rMTt1bX+wWiGoegfYjHCPZTYfisLlC6F9OMgmc2U1/1YC9/rrrlum3O4Wn5D28PbynN9GaYE+fSG4WAInFaraDjjYtIun03+pnoWr6dy2Ba78ebAxvri+hf6pcYf8dibg2PP5NoBGgQEFzs4WH+fC95hCLg/C//u3vmj5mRfeEE4k5+qy7NGvfDV4AT7+sY/FbQC67Rm+5U1vChY5vs7n/cNdD4HN+p6bX8vo8mdeKuSpauAKmvzar760x0AD4xWrVJmrMmXN31Y811+ubAo+KXhUBAbKgPUGXL4Q9rpRD20UBxxkC3Nj4C3CmYDnjFMCJghXxYXx1DYA5kRKqLJtTRjo2c0jS1ubzsGDMgJ8vKeBuaahIFgYLEvRneUaoi54xYCBtIxGgUaB40kB3PkNTECsgFKaFj2F/9O/dPvyr2+5KVoUYBqpWwBo+6cPPxwUgM8+9FB8DRCP8Lz6la8K34mHlaWMB3EIZuLFNOvg/X7cLoDS4CkCqTwqBRoG2J3wL3kALFPtpR3Lc8DYnTo9GI4wG8Bw6vRgTOij174E3ymHgOd/DSwIMQgw/r4M+ftGV3ZiLCmajM1XXFNudeI0yjOxQc8AnivGP94A4Ed9iFMq5NkFpQfqks4apmBo/jXz+f3Hk9s1rBsFGgUiBfb39t7GhR2ZgAhaFbory3jW3TueLW/rLH8If/7bOhEmlAux7qgAPPpnj/wb9t1/5fZfHgh84mVDwrT5TOMUORQJa+FTyNt8m37WOXxkZfVyIWBCMKlgsHFlqrZsajrATFiHKZi1eNh6VWnj8bBtUjiNyYcVy99W5wrz9BreGLilumEsZnxoQ6WE88qGdmvIwhlDI/QFoQ6lA3SAwOb/7TffWL02LI6aDmcXZJwsI301ZFk23Fu8KzKSFmkUaBQ4VhS4erG3uFcXfW0cTAGW/z/c+qIo+KkAQCkowYFw/cjvfXiJbYBXvvwVPcu+1La2HDhSEbCCn+lUCIbLflYMcNbb84VwKDH3UvkARsKyLQkvt3yTsBzr3uvTjtem2UbzNc5ynGYn7TWkIIqu7MwYPbiEnytDHVueOwwInCZtBRjc8a0Bjm9bIZTYSLvuN0VfSmMoXUzX4oEvgx4rrteQbRRoFLjqqvmZ+Ws8BkDLl4wghGK5Iw0h7wl/KAGvffa1Pdf/AF4H6/ZbbhGmNwvxXp+p7QhhUoP6poxMDIoAzgpA4Ftr36ZRB+8UKG0Qt9epKFBqQitUatqk6gRYUzwDYvmlYJfyp45jTDueTo+/rfym+B0gkEt42nKlmS0rpXOH6zi/arYCcjgQzjZD7+YCt9kirWXNjcFlfmb+isZTGwUaBY4JBc4+8+wL9mezn6YWvrd3HwT5/rnlLRnhTwUAzENhs63mIW7rhXJh+GqRaHwAT9s4TGzlTl6EMwIpq1+Vg+CVMHA8BtoTHsaq65XRiq6pw7oIa+vX1EvUicLZKY9lilMXh9D7yuc/OVoYu3QR+KCznSdMY75wL9vCyeFq62q6pl3qpT0KSbsVAPg1cIkH4WwrTG2d4HoraWvDkbj8GDzlmLC/hmajwOmlwGKx+Ln92eLJuOATwjOWiyC8eXF2+fgtNw3c/nT/UwHotTXeg1im+RqX/mLdsXkGnjIzeB5w2FAFPr0AzAtvAQQYB4qMMlHL3EN6ooXtwhKBSCExJlwHn5p+sF+9sh5XnhvQF0IQNIJLHHvZqFOCpWOHQqGu8NRvX/smw1QaKE7Ev8YLUOuZ8ODruHWubiLubVEQByhT6CPQmmumCyf0/SR4y+nlrG3kjQI7ToEzZ878u/29+eMp5krLmiHqMQ6vwP/4hRuzwh8KAM4GsA3bo22qzzH5Cndcu4NHXOANwJYAlYCURyAyxs5T4Vl5FBC5kMw2V6eqTC10jaeUhVSdVP4IOBAqNQICSgKEDIQj2lA54Cn2z33ig6EMtFV4nDcrz83q0Okqr+8BGEtbra/xGvqXvADA/5FPf3ho+VfQu3TbQGlTG8eef2nbKuUBqO3Dqfetq666qj0ZvONyoKF3SimwP5s9zEXbE6DU/sXSDsK2S0OAf/3mvOUP4Y86kWn3YBkrQ8p69dUbQZw0z2uXqpdox/FDCaDl74W4Vqg0QruxVq0VLGOFTm39UG+iBwI4avuaPq3AJk1z4ep3PlDEsnX1dzZxWMuWrkzrOHJ5oczQK9m2U4zw20Oo5vDGnKqZIz3cOvibOukP/KBw1eDR8wAYOufGmStr3w04pcKlDXu3KYB7uwcL98CqopDzrGvm/elNLyha/p77n+3ZB8NUPsttOLa+ba/pAxoswtXDlAcAbwqwHdvAwiPzZlgjMFnXhratTdv62XSFpbkWfPEQkB6bCEnjmhD9Fc9iCJ5Zek2oV2OpxzMKFb+H4octkJKCUaI3vBT2pL/2YX9/egC89fW6Zz87q+xkcWnXA3dbGDTsThcFcEp3uGBX99zJeOPBP1gCYj3jdT8I99L/p254/sF1PlrlxqoIfeXKWL+rg9P4737rG5fnH3jvEh+Nsf8Pnn8g7BvD8or4W/gyFo5VQwh67v1riAeFQDPWRbx2n5dMNzBcY2mybGxomXepfal+CTfbXtObtFZJ3xDqb6Xxbl54V9kUL9LEy2MZwlx5rgxta8bu7buX+kU5lICx3hVcm8S8zAl+wPb+cx6A/3rD85Yfft71k5QA/JbtZsDpkjFttDtKgdWJ/8WPVZiR6armr+XM/+jzrysKfigG4QXAjmGHthTkcoaAfSJEXyqwY9n+ucAAP//g+eUTF7667H1C1j4ra9JQDu6+644osCNMwSXkiWAJY94/F18PtN4A7GETDuryHIArJGosvpo6YNa5eqbMxSXB8D0hEPIMzGS9Di7c8KTLuiHnmgdHy0D/daz/HJ1yZZYWvKYIfHL/OOdg29am4WkCjb0v/GEOwtKHNwIKQwlmbmz0AID2ltZfeOENy//n1puW7ytse2Ro8OPFMxaLHWWLDa1GgZNPgXDobz6/xEXaY7IiCGO+WM/4sE/J6kf5U7f/+/AioN3LB0NZCXkwyr63YcVwDqxrpCG8IcTHCH2vLq6mhcdk7PhkbHG8nXKAVwjV+ueZAO89gJq9VcuUc0w4lG3IS2D7RTrXt1e/Jg/WJqxxS8dtptcR/jVj8uqkaAeLm2sqFYI+qbmSguvhsOk87TvnAaACACXgDddeWxyvS4f5/BJ40MnntG2EjQK7R4Gr8WnfKUz5rnPnlv90+61VCgAsBN0ySPXXtzAOziCAUUJoe8J8at6PLn07POZTgwvqgHnh6p/1ANx79909IYd6VecARlrUyuSVQYf8kbAG7Y03wJb30om+enU6eKBDVAJU2VojzjnCkL9fSvhbvErpSOfEOGO50sypC8GOsbtCTzwD9BgBrsXN9lUqt/Vz6VpY6gFYrQM+871YqgKAq7/gCaXx+uXtE8K7JxoaRieeAjz0RyaaFNLGMsY1vn+87ReqhD88ACtGiPvgnZWv8BhXoSAueVj9ENZTBX2uHeCCASfHLXiARvAC0PJnCIUATC3ScLa4AvdrjvnWlAUGPdHqX6dtDW5j6sAFDSFiaaT0WicOT06Nm7sW55xgzJV58Gu3AuJ8Sfzem/g9S7inynseAK7Vbl2oAgAvAK4A4xEwX8jnt0P226HAEy9v2gB3iAKLM4sXZ5myJ5D3zy2ft1iEfb8a1z/qfOmmmw4EvxGoJcaPw305Ab6JMigB0Uolft3YrZUJeunbAFQC8BU6jgV18JAQBEKKqabyPSGieV47Ly/VJlnXsWAVhhvPtPH6gTCEoKMymFK6LM1J1xh2vw3g4CDdkbjQM2O3tKrZCsCcSXkwLDxNWzqX0tq2Nm49APwdgLNVAKAEfOVFNwYegfIx/4A7f+b8th1ikQ2VRoGTSQEcvNmfzZ/GAuWCrgmxX19z11+VA5wTSDF7t8/OysDp/U0I+BoY2F5wcaFCIKF+QZDbAfAMYIykJ8IxJ66VcYe4WII2Xcu4a+ppv7a+LbNpW39MGsoAhDeESziLAfoa6zL8HswLDzM9Z3l392AQthZSgj+Fh8U/pDs6a9y2z5VpXQufZcATXqaSMMQtFXoyUrAIc92wBF/Lex4AroPud/EUACgBuBVUGq9fPv/hfD7/+ZPJdduoGgV2gALJl/6E2VIY0hpjWHvdTxUAPA1s4TEdmb54G9DXB97z9kMT/kFBuHwhfAiI44z4dQxP82HdU/DTA3DHS/Fc6sGngcHc7DkAZarrMvBc+8Pqx+Kwbr8QlFAM7P9URcrid5hpSwsI9pXnI28V40ZJT7FJeBos/HXHloOX8gBgjcAYgMD3/nE90K6jmvT+bNFeCtwBOTL8mQoAACAASURBVNFQOKEU2N+bfQoCqmYxxmt4s8UVHORTwV4TT736l+v7MNz+nlcAVwopxAN+opQovrDUqAAwXCkABzQFfUvvAQSmK5Z+LRP3mPUYWLm6uTLi5/XPMg1r62mbTcdrxqN9Ks627aBMDwFWxGseCMK8gbegpwRUwFbcMJ5SWsdcivc8ADQSOsXYE/ya9+bnPLuKz+j6Qvzs3vz8CWW/bViNAkdHATy8YRebdc+rtcv4y6+5Zvn//VLdiX9VDFaPhBycGo4KhRGu7Afu4DEH/r7+8H9bvvMtr+/dhQYMuIrhRbj49S8sf3r5QrU3AcqH0od49fMWUQFQD4CtA8ZZYq5uuWP1WYbutssIimR7p68e7Fx5riyBSxKPRP0eLhuqE3GYgH8KnwizgCPOQEDIl/7joUADr7afFJ4hPzXuRL71AOiaUGHvxXEzALyjx2N07Ttx0qadBzg6OdF6PoEUWH3hb/7DKKiMNh/ynTy48L9/64tGW/9QBF777Gu7vXG5AcB9RIbSZ+0dfwh2CPkDnD2muvoKHSyqLz300eW/PPHtojKw8gIcWPJRYSGuXfjr974uKgHwAthvAgAvMDLLiAMDN1b/VKaea5crszh56antx7YbU9/W1bTGMZ6QNnT2xrnNPIsT+qo9D4C5k3opUHE+jHFSIEe+IWvBE/o275svemE8FOjB8PK6Pp9s7wOcQEHUhnQ0FKi57w/tHkJvJcBWlvvYQ3/qAdD9f4XpLfqk699Y8Pg6nJ7aJ4MqhVAYsJ/8z5f+PKsM6At2gElc1fLhewDwAOBQoGfhoC368wSBMnGNj6mr7bKvAhorku1G95WwEAkvF9b2ZevZdK6PUlkRVmZ8xbagcaa94lZ7HgDzBzcDqvrufmNbt5QmXr16ZhxcAzr/uSassE+lP/3C58V1xLa5EH3iv/to0NEwzNZro8BJocBib3EvF3I8eEdNXixwLMpYb7a4Ahe+CvQxcT79S8YRQvZpQgj0ouv/8oXwCmDAL+B8IJxzzETL0I9et/qX739z+ZN//KveFkG4EWBckxZ37PnjH+cBFL7GgScOtJHJathjuJUCOrSZYNVqO40rPojX4KRtSvVz5bky7WPdeOgnQbMSDqm22i5Vx+KtbVCGA6KYH6V/vRmgMGv71TZevAYOcdS5jfht+/vu4b+UEvDbz109BtbjB4V1hr7b9wJOihRq4zgSCuBazf5s8WO7gN00lYH9c8F9P2Xfn0oCPAdYwOyHC99LJ61/vuV/+UJQEMAQUwyJcFMh2yFUJQCMEV4BVQTUwwB4FvdeH8rERLFBPzVuXI8xJ/OMdYZ6Vrgk2yYUjZr6NX3U1Knpq6ZOqq9UfhamQ9Ns/TXoqHAxN3ROpuK4GcDrgdr+sOLAqzffuzmOV/9Swt7L50uBHizm2XW2osn8h9i+PBLm2TptFDjuFDi7t3iMCyyGCaHFcmj3Y176o9DXEF8KG3gbKCCpaHTpmo/64FCfMkni6rnfQ1lmjIBjlQAwVCoC9jBg7Av4puByTAzhQfnPb+t5AIKAMhaplzeVuY8VgKm+x8Kpxdfrz/ZVStu+PJi2DtNj6rJNTTgWZ8LEdpPO6VQ8dTPA7bebXzpWW4/929DWw5kF4mTX1FgFAEoBXgrEQ2K99USekA8fOe58uOHfKHDoFNjf23sbF9tQu+aHeA7e3GcdHNxRYT42jo//hPf/C9Yz+rvnrjt7Lnjvih62B8CIOJZJoQhuwIKVn7KscGgQfZAetr9UvtZDH6nT3Jbx2rRlxDZt6+fStq1N59oOytRa1jitYptn06x3iOGU8do2MT12PIX6Yw4FppSAwW+Uo63BJ44r0QZbWKl1hwe+PEu/lIe3ROLhWlmTqljb9QUcsI156Ay0ddgocFwpsHL9z36qQqkXF0tV83/veXWf900pBRD+YAKwEJIegNniyooJLJb4rK8n9DUPrwKSEcFq0sdhYGUn+0mMkePFlUHvzjXyWGdSGPpdhJfuUgw6MF/xBth0qh3yS4w71hH4U+GNwSvXhy0bC7dmzHHcCYFGHCyssbj04FTSOIUb5jKUUczv0v9UhZL4jg2pAHDtxbWwfy4o+CVhnyqH8jCAmfcAXMHLpd1WwNXHlSc3vBsFDo0Cg1P/qm2bxUaNG0J7nX1/Cv+oACT6ASMhs6tx/8NLgPp4TMUyMTDFyJgyVrvW0f6tm57wYXGt6h14SAIMoSPpxpB9cGy6zWCFDvvZSGgsu8kwp8KZ2k4EtaWPTeuYbJlNa93Djk/BBZ4ozplSqEqA7auUdmnh/HaEQwWA85ohcISHLyXgS/k4D4APihHeIOzWmF1X7VbAoYmP1tFxpgBOzmKRDhYWBbJaxl0ce3P/MPG+P7wBUBx04dMDEHHQRd3h8bKXvKRo/cMTgLHg+p9lYNyjzPWhrsVevFNCYH15XoDgWSC9EmF0ZTrlKcXCjiGVJhPW8pBnLE4vT9swbut58FnXC219C0/buHVF2GvdbcYVR42n+qzBuwYO4Vt4zEdoy6AsloQ/y+PcMnNB4du47c+We2n0wz7DGhO+gat9ut7HxvnRIIWbW09c4+2BoOMsmRruW6dAeOt/tniSC8Zq0cy3Ib7al3Lrl/Ih/P/+1pt7DCEoAI5gjP3un1vCna+u/kH88oXldx/7k7BN4DEoMM0Iz/QF9z6e4wUT07v9Wp/MLTJUEVKrq1rG+u/6yNEU/aau/9kxWKZs07Z+ddqx6qrbkgabgEFYDA3M4nhN/dFjYL+ZsIhDpq3iswk4tV8OxLzFtpj2PyVewhnrQtcL4+g/9SGgMYpAfCnUWVfeGgvrdT6/dNVVV7VtgK1LktbBsaQA3tHGQuFiHYSixbMMe3IlIZ8qh/CH58Au/IEHgAK66x/a/vkH3ptXAHAN8PKF5U9+8B2X2cEd6o0VzwNbq54PsIQxCw3QHl4Ay0AH3gXgL+1IO+ShPXCxHwCyMEsM19ZnOrQz1l4yryCwprYjLjacOiYLB+kSLIu7rW/TU/pItvHoX6C1wqrBDfVrbwZg/g22mDocLZ0Uj1zctqMHwJv3m1AAwDNe9+zK7wV0ay+s9/n8/mPJnBvSjQLbpMDZZ559QRRMInAHebJXjr047N2nBHwpH9cFrfBHmh4AT5MHPljI2QOA8gIgnvH1GJe3T488ry7yekpARx/ggX8Ib8ukwYzxFjpeEdQQCgaYIxhw6iYBcbAwmX9o4QQruoRzttzpL1t/hBAdTTMHlyKMKW3sGNaAAcUTc5jzshSqEpAam6W/Tafa6YeAuI4Zemt+Sh6uBoYXQ3WLUM7ZKO9SWuCT5tvkpQ12o8Cxo8D+3vxxLBJdNDEulrfWWeep35TwjwqAZzFTMZktrlS9/X/5QrifTyalzIsMIY5xtrhSssJTbs3S1/vY/6bCMA612ESI6Bi1Py/fy9M2ubjiUKwn+KXq1sLT9l6bdcYE2LXtte+aNqk6AzjGWzAYb0fLFDwoAbU3A7AGapQAxcHGFX8tUwVA1xj6nCLsU20+dcPz+1/iJI/I8A+8b3LsGHRDuFFgWxTAnX8Kdmrp/UWr36tf7W2v4/rXE//ewqYHADgAr3jAJ2r6i/C0b2/fX6x+/Yof3llXxoQ4rk9xvOwD+++2npdGvUAbweX2W26pauvB29W8lIAZ4LuGxTqAVasoVNRT2HYsMV2Le2094jW2PttpWAMjUYfeKszxmn+9HQC6RfooPiPjur6Ul2Bte2t+nbz/8KzVtWHtpxc3XgHg1t4G2JY0aXCPFQVWB//mT6cWrLeHB7fb1Nf+/un2/ol/b+HbMwAebkkPgCgCeKJXBQHjvKKkcC0TZF0bwmJCu6AoyVaArTc2rUxX44Bj0zWwx7bJ1c+VebiE+o7ipfk5mLmyqf157Y4qT+mwLRymKAH27Atxs7+Hh7+ts1ojnUdRrPFtKAAHXw1cGSo94U+PgAn3Z/Mfti8GHitR1ZDdBgXOzhYfr1kwsc7+uSWu8ZT2971y78R/UgGIwnV4mh7MJSgAIuzV6qdnILX/TwWAYwI8750AMEDL2JAXvQCdhwLtPWZp25bShFEMreVn09Zac8otLsU+Dcx128f+HNximfS5sf4EZq+fBB69frWOxgVmrz7yE/VS+YP2ORi5fkd8OIjCOncGpkcr6dfLh/IBmFxfGk59BdDjE5r3weufe9AfFQ5j+Qc8JO/s3vxD2+CpDWajwLGgAA7DcPHbxUHLf+V+X8QX86DBe8K9lJc68a+LmHEwCfavzEPjvVsAniJw+cISX+wjg1LGSgVAmZRev9O6bK8hvQDEB3C0vdbdZLyE16b6Cv04Fjzgp8o83Ly8sThusj8PHy9vLI7brO+NfwzOnKtc56VwzHmWFB7e+iJ/WecRIPIHL8w+EESFYOAFmP0Ur54eC2bdkGwU2DQF9mezr6kQpEDTkOU8G4DFVxL2Xnnu0J9d0PwWQB+PA08AcAoKgAp+fv1PQnygx2POZIqAT4aoTwR7bTSPB620/TYUgBSDVVx6ccfaLMJw2kSYubKCFRhh2Ho5mLkyC6eUXhNWkW7sP9PPAIZX18sj7A2FtdcDuRb0t7NjsGmtyzi8aeQb/TW8CN5Du943lX7kphuC4aB9luL7s9nDm+arDV6jwM5TgC/+eQu1t2hEe5761n/Nvr8yAWwxwAMQ8RAcmAemRld/CKkMSEiGZENaKIQFGtg6mvaYnt4IQPuUAmDb5tK2THHw4tuu7/Vp8wIOCW8B6+bwzJWxvYY1/Wl9Lz4FRglPbDfxs9CIp5RPDx+bV+pL69u6No26UFixbYV5WvOv8Gvj2i/fAEBfYY3J+t3UGwDKLzT+9ufg2wgrYwGhPUBMfLj2EbYXAndeXDUEN0gBvIR19f58fkkXAeK6cHoCeLa4csv+/hKC3LPuc3m1+/66iMEkLG42fcdLX7ZSACjwxfKHQqAPAClzAkODsCY8MsRaRsd6lqmqAmD7Y5u1wpylmCvLWJEpPFP5qX1rb1xJGBl8BnAqx2X76qUrYaDvXrsCnloXwr6njHZzUc+gaH2O08tjWSqc0gaw6PXifM+Fqb5r83EFkOtLQ/T517fctPFbAMo7+NngwMs6D5/iYOOBDnvzxzfIXxuoRoHdpsD+3uJdcSGopW32yGKdn32BD0I5J+i9sjH7/rqIwSTcMwAG1x7TpSLQhcp8LeOiB0CZIOuMYbAKZ8wWAvsqhQGXgnWdgrFOW4VZS49N1KuFofitEy/1F8or6E/Lv+eJcpSAEq5efyUcczBt29r3ARSm4jSIJ5QkPkak/INxXefbisNTibUd+hTvA3GIYVeGuou9xRt2m2s37BoFNkABfBZzf7b4cVwEKvSNgKVHYOrBvzH7/pYZ3NZ98Ys4WHyxaAc3AcQLoAcAlaEhDutdhT8sFluHactEbZruTtbPhbatTbttMxZsVXu1bDOw0HctvDGeAHdMCcER6ybwtPjZdGzvwU/AzLZROIn2mGc9RZRzUBRS0Ku6H+0zF3fwKdGj5izAJm4CrNbWwZmdsHb3z4UXPu0631aa/IN8g3yEIfIRB66r+PyHG2CvDUSjwG5TAFdfOOm5ONxQNGe41TwLP5c3dt/fMgK+BRAWrCopEsdHTSLzFYaLPLsHa5ljXwH41bUYtPekr+2vJAC0fohPEBoKo9Qfy8f0VQtfYeba5MqI35jQwrPpHKxQt6O5xnNtUBatfzP/4rx86uJSvVEWJ68vLw99pfJLOLKcyqrOfRuvfQ+DMO14eAWQcJW3vPk5z96q+195CF4I1L5L8YDv3t7bdpt7N+waBdagQPe1vx9bLdju92OxsA4WbU7Qp8rsF/50cdbE9SYAFqc9zIO8e+66M3zwR5kt4yWrC+/zk0lZD4BlamR2pXBquxJcW34o/TgWpsUjpDdRLwUjlZ+zjGvKRsLt0VvbXno0Of/CPBSlwKVdDa4T6/Rw7mDUKAD2OeweHB17Ai+0x7ryBO62rgCm+EkwImgwGO+mxW/FC4IXoH0tcA0Z05ruMAWumc/vp9CzCyCkO6ufwhYhBHlKyKfy13H9czHzJgA9AB5TQd6PLn37gAmPYLjKDKEM5Bh0jwnSEkswQAtnnbaAZdtb+LGO8Rh47UJewcr12nl9bjNP8bT9WPxydbWtbadlU+M997/MPSqhqgRYj5Tt08PPy0M7mx/S5ve38JHWOU8+oKH3ZUsPTioPeLCPyF/Ek4g1zfV9GOGf3vQCVxHpGTyCH3DGs+g7zMIbao0C0yjAJ3/jwqRm7IS0/qGxp4R8Kr/0zn/twsfznsSV+DDNEMwr9VVAy6Qs09QDfNYDYNtuMx3xqrCutoJHTb+JOhF3KkNaT+Ms17BUrnUnxAe45WA4uNS0h2u/J+y5/4+QCoHZAtDfsKYPrZ+NO2Ow9dXrpYKf8VHuf6+/S4+GL1/2BKzwF9zTr13/m6r3hmuv7V8pFnzIRxiu6NC8ANMkTGu10xSg9c/J3lukRgtGHbz3P/ZTv1Ou/OUWOj43TDzpCUA6xmeLK733AMh0L1+IFn1gsgnr6PrrVqeFPQ9Arh0Zq8fAvTzWHxN6/Zdge23QZyp/DD7r1i3hnoJf2662XqRHTiFwyjz4QcjLnIvKgOTp/n9qjKV8r+9SGztOe/CVQl/D3FXWWhxuu/nG8LhW5DMQuJ37PbfWt1UGQ0L5BfkHvZxME1/Qo7sR0LYCdlqiNeSqKVBj/dPKZvjh510/2vrfhOtfGUF4EjijsZOxhG0Atb6euhgVgByjxLOnWPA3XHd9qF9icqXyZF9qLWncETRJGIm6U3Aa08arW5vnjqUwfg92gGPb2XSCPtkbC7UwPNjY/zdzTq1+HA5Muf2TY+z6KZUrXWvr8nU+Ffgav/3mG6vWTI6eUDIoSDVEPziVr2v7MON4HIj4UBkATszTsKPJk3grpZrBtoqNArtMgYH1b4Rq1Ia7/OctFqOt/025/pUxhHMAxNVY/rpo420AsbyUSTJumSU/C4xFzzo2DG0SHgTWtXBL+SzXMNVPFnYCr1Qb7Y9xW9emWW9sGOAk8FNYm+pvALOib22DuMXFGwPyMG+euPDVlQLAOSfKgLX6LdxSv7ac6RIcbwxsCwHfCTc3HPMNAMK0/XFbLaxNs15f9+zDuwGgPATxuJ2oOJm48hPEmxdglyVaw62aAq71z8kvISb9Otb/uqf+7aJl2i7MkDYnem+/5ZaBNaZMKhfnoaVcnV7ZOlajWpIeHC9P26wRrxEevXFqX2viNanvVJ+pfMU3FV+nrcC8+647lh95328ezDkqAZcvJK3+JG0Fbq9OCtdUfgpO5SuAevrf+728vB6+csiQa5b8BOnDvgFA/sFQvQDET0PFFfn7swW8AO2vUeB4UwCnWqn564RnnC4xpqdY/5t2/XPRIoTlYPfpiKuGX/n8J3sWGZhTDdNCPfv4SW07ywBr+gywJ1inEXai7TpwvXFU9SdCp7b/XL0pZaGN4KFjyZWVxjeA09Gd19ys0mld/rm+p4xT8bHxFDysCRzs4/rPhd5bFrafUpoPDem6ZHzb3wBQnuHFv37zTb2rxJbvEU8N52fmrzne3L9hf+opAE12tfDNy1x0rXchNeCxH/zBwT9vwW0q77/e8LywV0f8dIHyDADywpsAdMNWWGLKoLF3WWJuKNc2oX6NNVZTxxNgU9sZWAOcpdyW2XQNTbw6tXBq63l9pPJcmDlaJspcON/76pJCDmuK2wD63YkUXqn8VD+xfgK/WC6/J/Pw7v/qOd7VS3c5wY8y9/pfoV8Pb8DBWrRrFX3ADb8pnjAVDt406fEP8kDxKCruZ/cWj516AdIIcHwpoF/8WzGB2cECkElPC3uK9f/9W1+01YWN7wIAL3fhcgF3YXgauFMC7FPAHsMiw8yFoV3C6s61Q1mprcXJplPwtZ7tQ8u89ra+V8fLm9rOg1XKK42h1H5b5fYkPa6g2v1+r+9Njyf1W+AszJiv/oEnQKGp/Y5Fql+MWc/T2LWK9TtVaG+yHZSQ1Xmnjp9wC9TwEcX/7DPPvuD4SoCG+ammwP5s9jWdzKk4td6x1v+6z/3WLm5q7mBY8cCiKjDdAg5u2W4/FjcDPGbcy3OsnFpmPajnwOr15Vhq1eXbhO3hVejPjt2mdVxapnGtkztZznq2bUwXcGV7G8b2HH8FHLr/MQ+hNKcOzg1g1/Th9J+EQ3jddy1wjmWs4Ie1rvv+pE9Nn6yrvxtp4/EYvMhXu9a3XY+8hHiC96V4Cn7ns7PFH51qIdIGfzwpAM0VkzwwK2q4jtDkQsAiwF5+6oEfm7/pO/+5hR8+D9xp673xYFxmTLwRgD3ZyKiEYSJvFJMzbVMwS/lj+xxb3+s/wMh4L7Rc4x6s45SntNP42DHYtjwwijmIf3t2ZCz8sfX1N4I3AvjwLQviVBNCcanZ9rLjz+HLK7XoP/AUWZdHfQBQeQvOAgSDR3hiL818Cefz+c8fTynQsD61FNjfm32Kwt2GtPhj/v655dhX/7Zx7U8Xqo3jHvEAb1mkHAvu9PNdAFgoYFpjGJkyOdvOpll3kO9Yc6zL0LaxadYbE7owDC5unYKSM7bNmPqluqVylz6e0mPooO1q+7AKAIQdBWkOxqDM4DIoz/wecLVD2GKe1wh7rQOFRR/7URqMiXv4rs4c9LfquF4P+wlgyztsmgeLyTPcsFNggkIzn99/agVJG/jxo8Dqk7+zn4aJLZo4J3p0eXUCFGksEmvlp9LbPvhnFyzS/Ma3q62bMd73+t8IT7HacwApJucxtFTdo8i3+Gk6xD2BlxEiuTEo7FQ97VPjqfrM17oaZznCkJ/B3Sv38hTm2HgKN+9EPQ7cefBTMLy6mmfHQjg4pe/1rwI+FYe7Hw8BaT8at31qGePEg2kNc/v/4Dm7cABQeQo8igM+kjkPsD9rzwMfPyl4ijHGwz8U9hpSI2ce02O/+LfNa3+6UDVuDwMSd45FQ5ThCtRgG8BYXsrEQrxUTsGUqZdkppk2PTxq6xEXL6yFUVvP68PJG4x9w/B7dHL61/IBLqZ+qVxhMe55AMZuA4zt93Of+OAS36pICfdSPpQGeik4jppwDJ5QgoAH1qCuS+Qd5QuAyj9s/OXXXNM7WAy8o2FkDAqMo3sY6BRLlTb0Y0MBaKxckFEwWg1X0v/jF27caeufixfbFHbPP47PbAfARYprWqnnWMEEA5MrWM9jGKFlrKW2pXILb1Ppmn5tnZAu0God/Dz4Xh77yJWxDsNQ1ygALGPowbPtPAUA6yxnXRP+mBDWPtz8U/b3gQ/+8X2L3Ol+O7Yx+Nm29Ex4a/EoXwAk3/DCT93w/Ki08BbUgGcKT9mfLb7Vngc+NiLw9CJ6cPWvfO8/MIpnX1st/LElcBTWPxew9QIMGI5o7tDo73jpy4ISMIa5lepa5of6Xl4Jjlc+gONY0L06pXIRer12kh/wcOB4+Nm8JMwSvFK5xa9LJ/uT+jV17Dhq0zzpTiHLEC52HD4lHIuDTbMeQpZR6OMmC+FOCSH419nnJz6Ko+Jp85HGDYTBWuyEJ7buuH53LbwFHxvr8FTPBfNCKDxl8YzF4vRKljbyY0GB/dns4QPGIff+MdHF6uck/9JNu733b5nGwAvgjGnlyltdGYR1UjoMaJleSG/Q2t02fI8pbytvCm10/KX2WrdmDOvWt/jk4Ole98EaW1ncSGOuhat1hbkDlzy2qPCcMJ4VXsfSJx4Q/KnzCKBjbly9Mgd34Jt6KVBpYgUm+M1RvwBo+Yemea6IvDCGDk9B2dnZ4uPHQgg0JE8lBa7uHf6j+0o0WE5warv43C4O9KUO+9n8bT/6o4szFbdeAO7dcWwIyRQZvvMtr4/WWY1Q6dXxrFUvT6xQMni4hr/00EeXtYcRtd8eUxbYWqcmnoTjjcHLKwgPi0OyP28Mif4izFK5B1Pz1m3fwdIx8bQ751YqRD3s3es/P5WbajMlf4rFr+OJtFa6dXHMY2x7AG/Evbr8yqCuP8YxntQ63oV8y0uIdypshwFPpVw9PoPe31u8KzV5Y75ot3hm1wr5VPooTv6nmAQ09543Q8ak+cpQrRJQywQ9puflAR6sIViBK4tu9QwrziLgs7HhQKKxrmpxsPWq0qYv4mzbMn9quGl4JTxCf7mxdWW5eqU+cuUUeDq3jiKOeVZy9U/5bdCGgp+eCSgBShOFqwcUI4/pjI9degAoxUviR4KUh3Te0jgeMaIWe4t7j49EaJieKgrsz+eXwIwgBDl5ae0zjZB5Yx7+2QXrXxcxvBccUxgPPR4SWsYMppmyZPRVMzI7ZXQhL2NRwp1r+2M6PFGMFwovX+gxUvbDcNCfY5Wx7qbDQd+psabyE7hWwXVgDto58GvqRDppHxrv4FpYNk04mD/Y8+dve5ghvApw8yfnsEMj4j0IHRoALuaxvjEAJSDVH/I5/t5a7PjPLj0ApLxD44/cdEPkIxxDLsTrqqdKqLTBHg8KzJ85v42LMSUQdWKPufq3S9Y/F29YuKLoqOWv42SctAETtfuZgdknrMoB4zRMFkxQrSD2oyFfJ4QnoObt+FKfY8vXGZ/2VYKzbrn2pfESXK17GPHD9ALggB1uBNg5640z0MnMT9bLlaHO+Qfe21NsuG5y5wr0UCTra7jL+//kIwhhTGC9BtytJ0AMCo6tvQx4PGTiqcISb1ZzgsYwTOb++/m0/scc/ts165+L9x3XPTetvYtyEBZ3RwvEYdVYtyYZZSr0GCiYcs2p7fCpYn4z/qmLB14AxwrT/nt9OnVjea4sIRDQT2xv6qTyFbdk3MElWTeDQ65Nr0z707iMaa3xdHAsjNqzAKoI1sbxgR4oGblrfD0ayFiZb/Flvg0h4HmKn/jRg4jzBVrfwoRHDW0ivxHXOfK5Tnc9DFuKnaAHf8Qh4jgmKgQdPwnjbS8DnirZuvODPXPmzL/bn81+OliMdPcbLRbXX1J7/Tb/UdM3oQAAIABJREFUsD74M5VJ4EGPOG4uVjNeLGbUsf9g4uHUtjBQy+SUAWocFpOFl0rzs7HwAGAbYN23CRSPMfHasVmYoZ3xkEyFZWHbtNcX62yqTwtH+9Q4+/VCeH42oQRAyEKQQiEt7elbPOw4bHkqjXbf+OIf9DxXUeB1awXpkteBZwS0LePHYf+fPAfvoGDt0osY4g4P4djwifWdFwoNwdNDARxM4aSlhX8wWQ/eA2DZB69/brUCcJT3/rlAcyGeGfU+F8yxHtBhqABQYMOKh8XVY3gJaxIWExg/4LJ9KgRDgTVHwR/Cpy6GbxWkmPMgP4HHoJ4oMaPLNtBHThjZMptO4Vuqt255ql/Nz/UBCx2CG//4nSHM7T/yWYchBP1U6z6Hj+KtcW0DwY+rhzpnafHrWsG2g8Kwcbr/V+tgyGN2+f6/x0/wYFHgGeIJsHRR+mDL9fRImDbSnaYA7/5zguZCTPLHb6m7+7+Le//e4sV2Rk8JyHgClDbKBBmHVYM9fTBAHIjCPxj3q++8s7dHyvq5EIepvvvYn6wUAFj/nQdAzwEoc7ZM1kt79UOenn4XZUDLFF4qn3VS5al8tmNYWw/1x9QlfC/8wHvenrWiN9FPgCH09fDYZF5NfzV1rMVv562uC2wJpA7+YWzoz3X/i9WMMzreWt3VPHywCDQJdPD4h8k7uzc/v9NCoSF3OihA978u4F487l2ttHS45qybP5XedetfmQmuNFJjh5Kj+3jWG0D6WCZo04Bn88akw94/Bb+EqgBEYeFY4TWMPbbfhlBycNpqf6UxFPCBZY3fBx6d4ml5haXxDoejov0m+lUYoIN3ToVrwIagn7cVoTBxYwbKrW3LNJRxXZvHIQ6jqGdEiDLDcWnYtgFOh3zd+VGq+58CMExUo7Fy8uIN7JTA1/zjYv0rc4ESAAaGsTJcCXF5EVEOB5ImXoj26/x//sHz0eKn5c9w8JGikuBzygNDNvvyOeHcY+ACz+bXwh3brqa+W0cFsjNe28beyIALvqgMCD1yNNxGmcW/po9SG2wvwIPlCX7O6d6clzUBj1cJB7r/dY1FePvnlrv6/r/yCi8+OFTc8dDUR4LaNsDOi8eTjyDc/3HxFbRWCEOc6FdBn4ofJ+tfF3PwBJToEBSEg31Lj35klFPCIPzl1D/3/hn+5AffKTLZHhN2LNReOd3oRpCVBIWFkUxX9O+1Hds/Dkfi/0eXvh3CKS8oQvil7ulDOcB2Dn6fnIu7Ziw6No2j7dj0oD+H3hambXPx618I51i8g4ne/NY8eMgwz9HWwvXSUKqi8DdrDflYg7omj0sc1xaVLoynxtq2AU6+fN3pERbd/1ic4gl47YgP//z9rTcfy0UMZoP9x+DOk7FzMbuhWEBKL7euYXi2TrT86fKnIsCwyydjtYzdpllvU+GhwHcs9RT+wAdbIvCKUEGyIcrCtonADeOQtMIv3dPHb0aBd3AC/w+WEKIKZ5fjUGAw12DpY88e40n92zmKOR7zujiUJqsUeXMFddhPhGHWBA7mHhehb/G8Wa8AGv4Zxis8pW0D7LR4PPnIRfe/WdB2z5vpWvf/U7f/+2O7gLmgoQTYb357jC/FxMbmgyniamAUXkbgx3woAIUXAVXweEyY5YMyx3Jk3WTotFG4Gg8wCvWT/cA74bSFYLe0iWmHhlYRYH8WTx5So7CqC1eWMDwFOPTJU/tweWNf/DAUBDsOjA+3U+Cah7AHbnTtY45yXLn5yvXv1UF7CP/eDRjjSSKNEVK5WvVtvGj758KjOlyDxzHENkCOXkpD0K5tA5x8ObuzI+Tp/zBhjRauE5XxWvf/rj78M5ah4GMfePFwtFVvFCrSL6dA3HPXnX1BlvIAdEIt9xaAMlyNe8JBy714aONYylNgefBLeaV+sB0SBL4V9ppGvPB+gocHXdUUkpsOIYztP5UGDXmThHk2rfn8cqWO55Uvf0W0ulNjiHO0gg/Yujgjof3ZuP6G3GKwMJg+Ds//5vgItgFWNO6fG+rxWPECtG2AnRWPJx8xPP7DhWdDTFg9vFLr/t/1h39yizdVhis+t8m3A5RW1PYZalltHAwjXPezQotKgBNaBSAyWcdKtgx5kC61KZVnLD7tK+KYqz+yr2jtk0ZKwy7P+5CS4pWLT/MEpN3pKQGs+SuFkw/LrGDV5uG6nh1PzTwczF9HiWUdhoDrCf/U7wwvAcaZw+e4Xf/zeAYeSsuNkWXhN5/PL518SdNGuHMUmJ+Zv6K3GM2CD4tcrIFa9/9Jsf7twoY3ANZJ9AYovYROXNyDULT+WNblwSXbE2QqxBhn2Am14MrOCdJCWWDSjmVP4VEqZz2GKabPcht69Ut92jZIw7LPeQAg/JPKUsWBO+AN17kK6F2OUyArrXrrvGauVtZhX/a3TaWpTOn81ziUbLvujmMaXwiMNO/W+MqY8pWfxTMWi50TEA2hk00BuJ7i4nMWPLV8hrXu/+O4YMfgjANK2BbAIUHQRt8LID1JM4bIZ12bh7Lo/qcwozWbCi9fGP1RIBUIKQZdnT/CSt9ov45SMzj8Z2hohX/1GE1f2MNP3Q7YJYUA2wF2jJyXIVTFNRV3+EEPxs/Kxwp/HP4D/SwcpkFDrKsxa3FX66ZvA6zOPPR5wGK5v7f3tpMtbdrodo4C+3vzx7n4olWbWPi17v+TcPivlqnQIxDdfRWafrQKDJ3xtKrrAaAws+FTF8OpdzB6T8B6eVYoMG3rhrTxDNg6bOuFY+qivddfzDdC2OtvcAiQSpNRksbi5fUFIUYrdpeEvuICb4XFneVxvZv518unpyqhHKQO/Fn62jQP/6XWAHDAVlvt+tv1ergNEMdKmibojrNYOycgGkInlwL4HGVv0duJ2S1+aqofff51VXf//+HWF52YBTyGwWDfEqd/U+cEQGvS0qM7GIXrxqYws2GnEFhG30t7VrqXVyFkI1zb3qYrYFnBEGGn2jp9KIyoAFglKXPoD4IcryxCKNFiVpjEyctDGfay8WY/BesuhThUSPwZenNuSh7GPPUbBLxq2OuXgnH/XPCojVlzu173Dddem/R29Giwuonx46uuuurqkytx2sh2igKLvcUb4iQsWK4QXPjaVerBH+afJus/x3ywRQBLpqcQkNFR0WJarCw8XhO9AI4wi2WiDNgT30FgGeudQmBsmBJ+Y+CMwWdqf3Dxe7RJPZbk7ecHd/YEumFbYNcUAeBjfyMqKNHTJ/OOefHAL+eoCWte+LP9Mj14+c/ABi86Ke5/8gZ9VTTwWmfNRx48W1xZnFm8eKeEREPm5FLAe/3PWqhMY6+bQj4XHteX/7hgtxGGQ4MOs9OFjzgY9Le+/NmyF8AoBtX7244V7d2pnyqEA6P3+oBV7+V7efQA5MpYR8KeAiD04SFJOyYKQw31BTtbH2Pz8ijcEMIjgK2BXTgj4HkAMFY757w01zxD1MFVyBqr39JI08CJOChs4oCyk+T+By+B0cTxeaHSAeM/uzf/0MmVOG1kO0WB/dn86eSkhMCitjpbXIElmxP8KDuO7/5vQ+BbmOFZYaGlR3PmPXj+gb4lK8LMs3CRRyGnwmgbcWXmgG/T2+iTMG1fIW2s9XgTQLwjKeUotYcPK5V9Tg2xtQBvwrbfD4DASP1nPQBWGdW5qfHZ4grgeB/1IW3s78J8G+JaInHlXLfhSTn9b9f/S3Ad0NDVjp1pnMnaKSHRkDmZFMDLU5x0IeQEVbeg7Fl/5oU3FBWA5v6/yT37oKeBqfFHV6vQGwzy3W9942gPABUAy4w1rXEyZy+PZVPCAbyMFT+mbi0ug8eAMi8lQkjzMRoKJoS33XzjFZTV9DkYg3gk2B6woFRA4eD+t/a3rbjnAcB4sdY5B3vrX5QCeDCwRVL7qh/HmgvV+me/igfoACPDCs+TkP7t5x7cetAxk+8e0GPloVksFj93MqVOG9XOUOCa+fx+LDpOvlJYc/3vpN79X5cJff3mm1Z07pQsMIEU7V/2kpeM9gCMeRI4xaQ9YebloX2tgEz1VZMf+jYWvtdOcYwHAekBcBQArZ/64I+eoNf6Xv9j89AnvAPow1NANqUQqAeAY/CEMNc9cAFONR4QwrNjT+VjzBwX+/Ms4pPw+I/HK2A8cdxR8ReFi2UM52fmr9kZQdEQOZkUuGa2eGSgjXqTcv9ceAu/5P5HuTf5W97KK8DFbUP7G4BRhoOAdP1TmCFknhPag4CWOW8yDS9FgDfGws9sGaQEh3tuIAMnngPo6JM6AKi0gHDyBHHufnsK31S+9ufFYWlD8OImAjwFEN7rniPwPAAQ8IDPJ4TRZ8697+E6Jo/04HaLnfuaPqnuf/C/x2+5qfdOyHDN97+F0J4FPpkyd6dGtT9b/FgXYIjLNkCYpJ1C8MHry/v/zf3vu/+pAIUPCgl9B7QX5QtX0+J+P4W9KgJOXD95S8ZrmXUqX+uFOsbytu2wt81rc9p2F+KRboU3EhRXbzvghuuuX9sFbummfdbGgRuENP95ZRH0z/3nFJjavrVeaiypfLYtWv/dmjiun/7l+i6F/+FZ3ZcTyQNkvVtesD9bfKtdB9wpcXmykDn7zLMvsJMumd4/t/zKi8rX/07r3f/Swmc59jdVqQK9rSWwylssP/Cetx9Y+2r5a5yKQRfyHAAZbwgzFjrrlRg462kIwQPcoahofjWsAl4unEIb4qHnAMLb/86+POtqCEFrre7rr7uupwS4eGU8Egr/OMZT4x0zlty2A+c7bhjhQS2ulZMYwoiKa7678RO3A+QcEOrgvykAJ0vm7tRocP+/twfdaaVxQhrtFNZ9bgugnf4vM6/BfWBDY90THZwDoMVPoc+0hDXubjLuwNiNlc8yhrk6fM0NAjN3HsAKkBxM9jsmVPgKG1sBUIjUK0K42oZ5DGFlc6+a4RRPgNeHzbNp4rCNcNN9peDZ/JqT/xB2J/XwnyoyehCYQr7Hg8EPxDvQPg+8UyLzRCFz9f7e7FOchDakVcoQruuc8EdZc/+XFQA8DERak7ZMe+ETF7564AWwgl/TEp8sPCqta8LHnjUFJLYDmL9uaAUI4aXyWT419OCuvBvD63VQemw/XntbpyZt4dg0YHh5NbBLdSxcmy61z5Wr9T+Y853Vi3mEtaHC8iTGe+cAKOgdyx+8IKytvcW7TpTUaYPZHQrsz+eXgtDhRKQ1atJYtLjCUlIA2un/sgIAphaeCDY0Hgj/jil8/sHzB+cAaOmLsA973ZqWJ28tE7fpHNO2ZdpW4+ouV+EY6tR4FzrXfE19F6dMH4on2tq0hWfT3qFAMGUoOzmPh4WzrbQdTymteNi6WubFS/VT5dgeAv8A3QZznPzmBL78l1NewjkgGXtQiiStdGrfBdgdeXmiMDlz5sy/04mWjf9MWNXc/89N+lZ2oBzA1Ul6gzHGLZegFBykwRjue/1vHCgAKuihDNh0pyC45wAKe+ADBl7pDeDJbozD7pVbQTLoo4AT209tx/ZTQ3g4VMHBGPmP/PMPvHfgDWBfHs42z6bZ1oa19Ww7TW8CxhR4ePOAcz0VgqanwfonD+y/B3Cw3qPrX7wi+7P5D0+U4GmD2Q0KzM/MX4GFFxdlwSLF5M15AJr7/0DAc6GnQuwD9mgv2r+1BiBoBoLeCn6mu7B06G2TwgCnzCkUEcJq3rZ1HPAXy1/Ho3EVWDZu69k06/Ocg46Rcayd22+5JdznZ/0AR3Bjfm2YwqO2/ZR6tk+bHguT7XUbRfmMxjHfT8Pev/KCT93w/AO+27n6I02EFyAPcw0fa9sNqdGwODEUwANAqUkX8qkQ7J9b4hO3OeGPsub+r1cAwAxw4nmo8ffvAfP3idcBKehTWwHMf+pieHM/MO6UJZ/KH+kq907NwyugQoMCIeZV9j1oV+kxiP1I/XVgweXP38KGVAagCOBePa672f6zfWdoYeFo2sIspXNttSwXt32Eugn8dV5Ymmn6NJz8V+GPOL8LEJR94bNKF8aDAtAeBDoxcndnBrJ6AEg8ANA8ncMomKT4MldJAbCTvKXzCgFoisWNhW6tfi5+hvFZYAr4lCLA/MsXNvpdAGX8GqewwMMyFIQMa16SY/sA07OaTV6yngh6wkQ4tn5sY+BRmPH3sCHHzBBeEHgOUk/oejRUvBm39Wya9bYVrtOfbg1FelHYiZX7e8+77sQf/PN4of1UeI8HGDq1DwPtjNg8OYjwACC10LhIZXGGvP1zS1xdyykAzf2fF/YeA8Bzpz2ai/JlfxNcQRsc9oMyQIFPxUBCXAfsMfCEpRaER67MCENP2OgjLxSC2Lq4+PUv9K3hNfvx+u6NsQJXC6O2Pa4Gpn+vg7MBHD9DnIuABwEKAa7DbXt7xI6P6cE4nd9iUKdAz1R9XqPs0cvhK/g4jrc2TkPeG669tj+fLH366UdOjuRpIzlyCuAAIBhUcoEaDbT0AFD79O94BQBMrvcqYH/Bh0dA9PeJ2wCe4KcioKHz/j2FQU0YmLuxwG07FQAQchR6DGEJ2zY1aYWL+jW4xHoZoWXhlnCx9XkeQH8XL87xp0JsF+BqHDwn2Cf/0kMfDS/82QeVxuJn8S21H1Ne+g3YNxQcfEgJY4+0MfyE+TgLcxqEvTfG8CAQ6SLKP7cFVweDOw/hfH7pyIVGQ+DkUGDwBcCc8Nk/F/b3cx6Av7/15lO7kL3FXZuXfRRImcJscSVsA1DA09K3aeZ3ofcAjmX6ZNw2f2za8wJACEDIpWDFvh1rNNWG+bFtRuCj7qBepq9BXQc2XNsUYOqp0TjKU8I/n7+6Lqd1oERBWfD+777rjl6+pimEFZaNv/Llr/B/mxSNUvlCJ24H2e1E9K23XbAFVrtOTmI9/TAQ55OGdj7BaDs5EqiN5EgpgBcAw2RTIdNpo7pIMQlvXpzNuv//6fZbT/VCXoc54dnTcBgQCpj+Fo5Chm2A8HGgGg9AV0evA6pwC3HHuvfyB+2E2VMYMyTzt4KG79ErLLYZE3r4jWm/qbq5Q4HKxEtxS6fDTsNVrzRZl776MBTGkhr/aTz4Z/kErj3maGRp114EPFKReaI6v/rsbPFxO8FsGsIfE/R1z84fAGzu/2nufzKE912X+Ua4KAb4LQaPAnkeAM1bcxtAhUNNnIflgKv+l94HyMGuUhocy3RqO+KSa49xwjK3a6aXLih0qKs0Oux4zjNDGoTQoa2WK51AE4xD6UBLliHKMOc5/09zSOWftLGh0hFG24mSQm0wR0eBs3uLx3RyhbjsR4WJ2AkfLNac+79d/1tPAYheANLfsf75W4VHgVTA0+WfycN7+Mqwa+LK1L36tlzT3Ce3Ag3CwTsAF9p23giF4/Vr88bUH1O3ph+MJXoCVNjb39GU8bc8yjD1W+i4c/QKZcaDlLrzH3lJd9ulWf8H/OKuc+cGCpM7L/bPLWG0HZ3EaD2fKArsz+ZPY6JR44xxI3zAxEsvAJ5mDX5TY8dVKP4GugVjmQF+r+y3AZztAd0GUAaPuDJ5jdt6Y9P4jr1VAJCGwBwLq1e/YI326ma2KlDPG6+XV4KpZwLs7+WlB2tOFQSz/rz26+blhP+U8YM+tR/7wRw46Z/7HcMT3v6cA+9f7nfFnIHRdqKEUBvM0VAAr0phIeYmHE+iIsSjFSkPQLv+d6DNj1n4Xl1ciYp0zwgCPD+r37p3rweqIoBtgBoL21h0FHxThAIOBKae0IWlSNip0Osz5CVwJJyp7dh+aog3DzDe7JrK/KahnSoCW4p7wt+jmUeHFP3hCeGBQ44jKDk63s4r0qz/Pr/48POuX3kAOvrEk//WixSMtfYk8NFIzBPW6+LM4sVkVFAEUhYnLRUc8kspAG3/v7+gPcFemzd4F8AwUP5muEIWFQB1/TPOkNsDT110P4frMfmaPCswbJowUlsBmFc4y8B6CFMwtM5RxS1uNk28IAixrx4VATJxR5hzbfE33VaIfrDG8R4/fg/ium6oNMCY3QOsOu5uLre9/z6/8D8NPOsrkh0d8Tu2mwAnTBgfxXAWe4t7I8Mhk1JhI3FYpSnhj/x2/a+/oGuFfapeOBCojDPx+/TeBBBBHxUD9QA8dXGZ+zaAMnMIBpseIyxsW+9tADAyCMnUK3naX4DnWP3aj8ZzbW09TYd4jZeksK2A/qEI4NYDrO0g6GU9xXVXm5f4/ZOeIqmP/iGc7Ul/pVEqrrRJ1UE+5iGVDPyupfGdpg/+pNa45sO7GunG346hM0fOPvPsC45CZrQ+Tw4FrtZvAHgMKuR1Qui1z742qwDoZG7x9ZUBHAi0T4R6TPWeu+48eAWQFr8NqRh0+dwGQFjL4APzH1tfhCSE4UoQ9m8FgOndfvON/UOBa/STE1LJMkexSNaVMWmdEh2h5MDyhiKU/Soemb6E+N0pXD0vna5TwMa5C2yvYDsCdFc8vbjF3aa1jVfG31bnp+Kk+VBYTvOrfzne2LsJ0An9FB3xAbeTI4raSI6EAmdniz+Ki1MYDiYd96DCBJwtruArXSkPQNv/X1/ge4whuAX5u9AKUK9AlxcOA1LIeyEVgq4sdxhQmT3jHtOvKWMdhhCCqfMAUA5YLxfmcNF2od4GBDthKrxaHNjWC3E2AhY5PAT4cBAOEN4dHvn51RhyCwFCnWUQ7oijPoQ82gLOFOvew2tKHrwL0XrlPLWhzOPT/vCPt9aRB8Wolo77e3tvu+qqq64+EsHROj0ZFNifzb4WFQC7YLs0NVAcUkkpAO3633YUADAFXA+yvxF/E+SDYSQ/EGQEf/xeQO5NgA1Y3zkBaT8ZDPz5D6HWE0A5XHJllVa64qnx0Z6RRH+9sexYnd54c7gV6AzFwxVajqLKedz2/31+AS/rak2vvgQKusIQI90YIv/s3vz8yZBCbRRHRoH92eJJTqpeSG2d4c8ETe4K4D/c+qL2mMet/qJOafu1+eFAYIaZ8ncLLwNagU9vgM03XwisFgadoAj1K61rD7beE6fwZzhQAnLCScq8fiCAx+A6RWDbfm16CsyjaOPhnaId68L13zv1D6NBeAbnps3Dg2K18/801cNVQKwD0o2KPr2wzEe4P5s9fGSCo3V8MijACcWJxrSGLPv6zTclPQCnaZEexVjpBeBvob8P4mAavSuBFPgMHUUgdxiwJ4AKFqDWpWDQvFQcgp5C34YYy6DdCDwGbUVRWKdszPjYj7bROMs3HXp9aJ7GJ/fdKX/4De1crEnj9z7NH/9J8ZDwUaCCJ5b03d+bP34ypFAbxZFQYPGMxYKTqSbEKX9vC6Dt/2/H8lcm8ekXPm/4LoDxCsTPBFPYa2gVga7M+0DQGAExpq4nbFKHAjEf+c0Arx3yQt+OF6KEU6pc8zU+tv9UfS/f9rNu2uujlBf6NHRM5okipVs51sIP/KTzBHiHFlGOA6446Krz/LTH8TBS5MWeJ0WUg/1ZewvgSATnSenUfgVQrUuNczGn3gBo9/8Ph4nxhHBkEMIMkAerKn4fgAKfYUIZyHoBPIvbyxOhYIVNSaDx9Lj1ADBNJcDCif1U4uO2t22NEIx9UNlIjdPCKdVPwdlwvjvmDfWxOszZPVxj5iGUAZ2j+C01zTjy21ZAn3f86U0vcGkVaObQtb0FcFKk8RGMI74BYCYWF6iG0NY96x95bf+/v4i3ZcWEbQDvt5K83sNACaHfex9ggw8DBYGTEaIqUDWeeykQQiIoARPgah+7FN+WYB4DN1XX+w1tnlXalE+4cbVkNd4pDu1GwAH/wNsIPRo69FJvC7y47SbAEQjPE9Dl1bhGopMNVr/nrgMTzr0BsC2B1+AeMAbQAtcw8XsNvDPGAgteAFr+DKkMMM3QeRgoKxxKFqRjDdcI39z1wKgESN8ujk7fbj2Bo7j16jqwtC7ivfoJmGxTU9fWGZtmX6nQwkvVK+Xrtg35R2lOsp43f/H7NiVgtdaxzRpo1Sn15MlKP423zwKfAEl8VEM4uzf/kE4m1SxjfqeBvuFa/xEgbAs0Qd0X1NuiB65OgVnG38YIfua7XgAR+NYDgLR3FiAnCMYIE1vXptkPlACML/XP7QDWnxKm+q6BFdpmPBFTYE9pU4PrmDoeDl4eYNqDm5xzvZBWK8PEPO21mS2uNCVgxUduXpztvRoZ1nyClt1jQO0tgKMSose5X3xS0i7CVDr1CFA7AHg4wh9KBW8CuL+RbAOgfHAWIOUBoGIgHwlS4ZESBFoH8dp6tp1N68EyTxF48PwDw9sBa/S/KbztOJjeNvxUP9qvxll/SqjCfzAHzfxj+cAzIJatnhXgb92UgLrXP0m7xd7iDcdZBjXcj5ACuEcaFqpqlxqn5r5/bonrKd4ZgPYA0OEoADgtvfLQdB6A7neKWzb8rboQNwLCuwBW8DNtw8sXQv0pgsFrE4ROxlpmG084lZQAvDrH9l7owZyKj9fOwk/WccZv29bgb9vYtAcjlze2Peq/8y2v73lmKOBTYWpepuprPpSA03w74OXXXBNfYe15ZR3evL+3eNcRipDW9XGmQO4VQKu5f/T517kKQDsAuH0FAMwQTCG4AkXQ62+kcTBT1A3vAtDCdwR+2ArQ8tzrgN0edxQeFXvknhCK7Qt75iUlANYoDqN5fWTzJuKdhVkYS7HtUeLk9K2/EWj8spe8JAp/FdQhLpa/zsFUfNDenGmhJwDz/bQqAbgZsVrD5kuAsvZJR2zjHmcZ1HA/QgrgIQlOpBD2rErZa94/t8Q9dM8DsK397gZ3pVjg8SUww571L4wgMFpJ6+8JL0D8RgAFPcOEQvCTH3wnCtUgCBwrNiXQvPoqTFLtUvnqcqZg0BCH0XJKgIeP11dNvZpx5Op4feTqe3h6eRaG1w/apfI9mMzD1/3sdxvi/HKs0Vg2W1x51jmcV3EEmCgMdGNrO8bxO+Nd/NP4xUB4QDB+0iKEljd36f292aeOUIS0ro8zBVLPAA8m32xx5Us3DV8BbAcAt2v9Q+nC3X8KPTIEta6Y5zFTtBukbZnmAAAgAElEQVR8IwCCX5UAjXdKwT9f+vOoBGzzTXxXeBlruqQE4BlaHB6MQs60pzCzfTE/F2bbOJZzDtbUMouDTefgluqmyqFUrT7u4wjwhLKJuUa3P4T//3bf/7W84Vf+95US0BNeZZiB/3SKAuY/nsI+TQbBbz+3U55UWeroHmjTeU0Qb88BH2cJfMS4789mP1XtUoVJ1N67xQtN3HoA2gHA7SgAsPqDG5AMIPwGxiJIMGKrCIBJfOvLn+0LfVr/KvxNPH4u2BGoQXB0ngGNUxilBAvLx4YlJQBjDDcExnorzNhq8fbGbMeUgpXKR/tcmYU/NZ3DHWXf+OIfLHGLZCVczJzreEHkE5iDzGM4W1z5xXv+z+Ud7/5I+L/9/7gvKgaAqfyGCkNvzgoc9gMlAC/knRYlAOetVvR3lCVDn7N7i8eOWIy07o8rBbjAciGtzcdvGXoA2guAm1cA8MXF8OIfhb8n6Lsy/ja53w9lg2uBKuypDDDsysZ+LrhWIE0VcjVKAOpwS2BqP7Xj6NU7JG9Aqc91xnxg9a88TqU51RPaMkch8Cn8Gf7yr79zCa8AYdK4iAqBtGcdG6Lu7z3vulOhBOC8lY4/t87b9wCOq/Q9YrwXi8XP9Rag0SyjZt8tTpz2tx6AdgBwcwoAPoyS2+tXhlCMO8qDeyCQigBDKgEIL19Y6lZAEC4ZCzslfFL5FGa23KZZD2GNEgBlB5+n1XaMB9jOGLx8zcvhRNipMNc2VWbzQ9rBO9Un87WdxlnOEN4TtfotXyjOt27PXy1/Cn+G2BL4/9l721hbs6pMtFL//OdPDOesvc5iaxdVRXGoKquLErCgBUtzkHP8KBDL5NwDZdtE5Ku5NxerUFAbaYI0t+lAvBcx2Dd+lBdzftBGNM2lTbX9Q5Fr4jUVQsRcjOGagBBvgz9O1vWZ73zGeuZ4x3w/1l5r77XWfney9pjv/BxzzDHHGPNbjQAvX6JvKzfJpsYwOQ/HBD9yz/NspsRo4I2kLK8XR0fPnLEqmYrfRwrAAPDMVbU0F8fLyADArVXnZVpuG/UE/Yrp/izofLukbxpootwhqMNpVLezGukR988+/X8sWzv/VelnxW8XBVXuBoDi8EqKymSTMCpjiBGAuuK54W3uX2A9CxxPaSagKNMtYxCvIRB7J374yivi6X6vcEKeat6sv+vOO9OaP5V9DcIIQNyQv4PyGA/tqb9DPyGQHv7qoAfp0vTr6UGgfdS/Z45zawZgNr9lyiRgPkz36wzAV1403QB4EqMAR5zS1b4yuqGQSx1cFL12+MJNoyBoryJeDn/k5a9o7gbgiL8GxRBYZykgKahgxFrzH6KsNE7fEUHSEacEsKataeGuKdA+/GrpfP7Rd1farrAoL/XzadN3QHumQTim+yNDquAZz1sVfrz73oeWL/+pX2xN+9eMAMS94577bYTL5YBUdqWMAq9szOJtkkPdHPjxy/eURhLbIqDPYnb01TNXJhMC+0eBo6Ojb2PHikb+hd/ieOkNgGkD4HrT/xj140rfaHc/24OwaINAySOccQDNgAsEBfJEnBs/9uPNLIAf+Xd8JyOgNrod6y8j1lB5STiVVgRhBJBOEaQRAKh7A6K8Wn61OgG3rjDiPiCOr/sQHHrTsPwMfXwo/ve946eWOB6q9Ino1+WHtOC1+x/54cGKXw0CNQLIvyzP87EPRzzijj6EpbOTGOK7mLbrRUBPj8Vs/rX90z4TxmdOATMAaF1Swfjv7A+FrzMAkwEw3gDA1N4Di0U609+seQ7ccIU2yO3SKPlyN/VKeLZ3bTOMEALEjgbWZgACf90P0FJWTvFsMtwrMc0ba/04p866GUy0KqeNMfX84X/z9mI2oCtvLafPvWv5eHyh+LEkAhpQeSpUupk781zxTb/F8RIb+1Spj3XTCDCjNcsZ8nmrXIY7iHoc2gkBzGygXqRFi0aOBtNrgGeuTvcPATMAHDOh46mVSbc3AKYTAMMMAIz4cYeCPuVL4dsScjpyV3duI7ZFK51rsyhc/VD+O9/2xnEzAcF+gJbii0a+gV8rnRoQQXwqtCgd1rEx1Q9hyTqSvhHEZrd0ZFDLhHtkucSpgB15dOVf5OHxir4r5Xj6cMRPxU/6jIHKc6An8nr48Z85kfKnsUAjYAw+KW7Q1odkBHzy/hcYL5M22g70A0SbTAbA/unfM8cY70iDeZSZuty49EdnAKYTAP0GgK7zd9F2TFgSBNkggDAudlYHxlzKWwQmy0Lbj50J+P/++o+LEfRoxRUpM67Jd6xb95UDRXfj1a+Kb54z46mcEagaAhUcFYekaAfg6xWy5gF3LR+frhbP58fvP/2D30zLHuFUf54dIR9wlFn71tHnt99x9/Leq9eX9//Q48t/8S9/dqNGgJXDGUiBNdzMPytCLK3t4pT+WJxw50ohm0kL9m/3jf1cZ65QJgT2iwIwANCBaFmuYLmznP7eAJhOAHQbABiRpPP87LSiiHS0moSYKGjSGzASioiPjVc8cuVHUZq+VU6Ay6t/4Er5aFDHXoD0bPAX/ig0ArzSMgU3QKFScZ0UYoo/LQkIPakkIFCjH2YPTvLCYFTvUfWojOZreRTlubQ3P/re5aNXXpGMeq0raTAUkocQn4ooKf8rjy0vv/wHl/e87OryngcfTjf9nXQpALMBysOpbMenEd6KI/EErodwTPC/fmd7BiCiAf0wm7tf2mfC9swpQAOATEQYdUD4Yde/zgCMtWrPS3xsSrLp/mSpD59lYRsQUvjiGyN9XK0ajbwgQBFmBkNNgAaKEXljpIh73+2K4GAPgB0N/Js/Xa5zMgAKrVBe/JaRdBjuDAgfxytKLgkY7dxoibT18EUP3JvWyTGb4PPkdypb8KU/YS3c41yLx3zGwL/89P+e9jb4c/yoP3++rulb6eL4osVHi+PlHZcfTLNNzBMQ8fADb2JDIPiQ0/tjIY2ApuyePqO4B7y+78cEMXMI+rbaLdfbaJS/JwPgzNXp3iFwe6cBIAKBlrYq/+kNgPboH50Wo4806k4dsxHARScWusKftGUc/aYb0/xDhStmBvpH/c3ZbZbZ4NHgiiUBezwomgmgYfA3f7rEcoBXbGMU1ybidpXf7HYPNggGCkNpAMGLUwMwiNbC0Y3KB+dRSRfVkUofsxeqkOnWtlU3eUr96NYwr3wQxrxrEEoJhiTO+o9V/oxPIwA4ER+U1yi8Nt/WcEcaGAH7/JBQVDf6GX0yL0OW750GmhA+WwqYAaDWtLrBXPKtmwCnEwClAcBjfQ29ViMvCCLttOZ2hkDyF1rjG4o/ulaVwjKCKkD7hKbh4hQihDhuDfy7Z/5oNSMAY0CUP91+JsArq/TdMWIeqhx9vkPTQVFCmVtdle7OHSk2zgogHy1zXXw0j7FuzGygXWpKX/G3+uY+XHy79q6GOX6sxsv5sXzMBmzCCCD/rgyB+F78EK+E+zwtwe3jXQEYTDT1r8uPRJdM+8kAOFtdupeld50C0E7FDqgGwHQCoDEAcKwPF5J0jfpJP6Vp5EY8dPrvuPPyaMWvxgCNAG98hHhkJZjiikKkMO+dEcBywOf/c6Eca4rNlGYw0rWwPN3vvzVPTNHjch+M8PFiHW6y8z9sCEQ4fjgqiF9hCDglyPp2wVe89KVpiQCKWPGBuwvfFLenzlF6bOTDngbUBcZgaqO8Jq94RrxU9bP2dqNpaXtN2+KZSjykIU7gYRgB0VKV8mmXmzxMXBIers0Y5iHxIMQ+nH07IQADoKGpa6eABqjntASwlyr4bJFu3QSYLf6a5akXAZ13AwDX9/7wd/yzpPgpaBR6oRR+uxHWSRW/ClQIUAhhFZxNuwajqCxUiL/iSj8ov9/4X9/fLA9wJoDwBHsCvCLt+sbRPb22lrgNhdgciBG91m+IO8ofChmKGWfrYYycZIaABg2UPQ0av3ufOPTiS57qUNSdeTB9oGiKdJq/SwNcwWtYjlKeHOv2RgBnI5E33YaT4hPgDpz2yQjAJkDgbPVDnRyd9Xs6BXC2unQvSwfTFAzmOg6tf0Ic++M+gPN6BBCWub++t4uGKSwLJ9KR8fm9zlT/EGHKx1dYji+X34RUMknwBAKVAgnGAKai0xPDsk+AtwVSiUejWoaNgRi9j97g5niZdUxQ60ahqn4urdJF3Y0ALpd7gCeMlEd/4JE04wADgT/MQOhMBeio+UXuAm+HVxHWif9qFEleAEyKtCtPhHXkW5Qv+TT1aG6oXPemQPJ3ywiwmYYuQ3ZVX+JI2u7La4LYu0DcFbL91A/uCxcufMteKqEJ6bOjAJjGGImCMHf6xGiuU2MXPw2A83gE0I71JVqVgt/oOEJobkvxU3gC4ohWMfLXdmb7Bn4UmEW9GD9DxMFIFccIYRBg0xw2EHYp92QU5D0B3kCIvofc+d+F4+gwVXgBXTQ/0qgGaSAQ1uJ1+Wt5hTJWPF27+DS+LzMc5Ta4OWWa693LN1pugA/SYxYK+1igyJUvx7iRFkcOG3xkVOzxDHBgXRXuw0wAZhhT+4DGwodFmwj9JwPg7PToXpesHaPTvThefu6BlQFwXo70oZ76TC9oRIHdRS9vqfMbMAnFVz62tkAcIzwRFwK4C9feMC9Y5Zu08PDqlSs2AoYSh3Hgp8m7DAWE4Uy75jsKT8FxLcUpwrVWruI2xF3gMSD/Wrn0J0/xGzD2a6bkNR7diG9KRWmW+ZzxWpBKyaVhPKXH3S96JPHgSfYEgI9xzLVWP5ZbhYIncNt1IyC6CRB1A+4NXM1ywG+vldCE/NlRYDGbfaPoNOzYzvJEHEx/YwbgvLwCiPpe/2flOn9BKwpxES5huLyyiEtUTjIaGqv8GR/lmqDPbVvgqnVQHmAdB0AV+m336hgZZj44FY5pcUyRY7Me1sBhKGBNHT/E03wKfInPmrhyVNUaVUb5OtqEeDBdB2RdBqfXcjvyTfllOhRt7NOQVoQIV3ctPv3HlME0+f4K3B6I30kvDQIfJyNA8m/VQelWqR/aYpeNAJxcKPhE66Huxuj7xtlpkKnkfabA7XhJigKkYDjtYHAvjpc0AM7DEcD33n2X3eIHYYH6kz7+m/4GJS79sCHqpCMgKvN1IUZQxGcQDOqhdEAeSgu41/k1AjxOW8Uzwk14Nhop1vJiXMJaPPUfE1fTFW6tQ80tdSpor/ElTmqP3F9f+fx7lg/d9wLj3YSzxAUukZ/iiB30uNsC/QHT0vjhXQt845y9xq25gRMUN40A3GB5EiP4xDNamW+B166+JNj1GqCn8/Qa4D6r4DPGHW9Jg6FagsBZmYiDjSmYAThkAwDCLQk2CFgRslRsvvPZd0AvpMco9qSjnnUVvk8HoYt32G2UGOHsFATr98EPfGD5h5/61PIlD714tTZZics0QyDpWoNFHjV8pZ0aY0KmtbMypMIu+LyW39h6ufINZ+dvZY8ttyc+FP0v/di15X9691uW/9f/9m+W/8//+RvpWCL82NZWNuumedItEEoffYF7fmoQBkG67lrrmmludMAM2OUHl/deu2FGAJT4SR4UwgZX9C22dyqL+LOOhPT3OOJK7fl8Jy8LgmES1ol1ERovZkd/e8ZqZCp+XymwmM2/qB1V3RSaZESsSx2qAcDd/VBEjVBpRqRKj6Fu0O201/m9sq99wwgAbmFdKFwCQbmUPxgC//otb1ved3ncfeVaJumsfpt0p/ypADJEu0AhajkFj2dDmEoTfGBxa25XhsXfgj/xf+33vHz5G2//CVP2eGXQfn/5e8vP/+6HbeSf6qe4aD3UP7txwgUbfGsKP/JH37nP0bVFh8Vxo/zFCDjpkgB4GZsDtSy0e9h+uX7t9p6na7t3bU8T7hfRenW5IcP3Vf9MeJ8xBRYXjz6XmEsEg3UgJyBglUIAHNodAOhsD+TLfCBA9GcdT+jjFYMJ2RwHQukkU5w15b0p/+J4INqYit+1N/kC9av9/bc//uPlxz76q8kgeOw1P7qaHRhCr6g89XN5eDrjAiZMRX/88j1pahoQNzKm+xlq9eqqay2N4tThxnS74ViLp+VH9WN4huiLb3v0URvd+5MSfiMlDAP2315cBEcofj3mGyn6Lj8cryv6BfJmXXI5OBKYlgGcEXDSUwLIt6kzN8jJSQGpo/XlwA8yYJeMAOxPMHyFF1KbOrpChp+xGpmK31cKXLo4/7QxWu4YZDL6p9HU4nj5kXuelwyAzz94/051lnU7LkYuP/od+e7+vC7IOq8Dd2m6v2YsYB8CliTwmpvWEW0OIap+dKP9oejH/CE+f1g+4O8nX//65WsefTT9ihkEpwxZdgQxbUte7FJKmJ6GgfAj375azlGl6Pncl+XDu75BO0y/Q0EDQmnzVUKfTstBmCpspOPoHiN5r+Br3ygXaRvjtTmD78uhQmZ5+IaxxL09XbTsC8OyYFoKCJQr8Xjud353aQDAEMjGwEmXBLCvgDNbpLfSVo0ThhMv0AzG5LpyZBvpfu6u54Z9kTgrXMxmn9pX/TPhfcYUWMxmTykzUUgUfrlTw8qHIDgEAwAWP9cuk4ETCS5nabdoIuEYhezyqP9lP/HO9HwwN2IBhpsCpU5a3xe+8LuWf/flL4+xAQbH/frXv56MhU889VQyDJKArrQHcBqyNu0VFhQU0mGki3YPjR2tu7rlFIfRRMKJL9biuf5ORQ0ljh/W56MfjAWE68he3cynCyI9yjbFbvjmkbDgCvzB70ONKE/Hrm/MvqiiTbQSww77T8h/UPh00wjAN4zT733zv13riCxntpo6NncbVPt2wF+79GbA25/rlulcGyqdIcPPWI1Mxe8rBRYXZx8xoeY6RWEpL46XYEoIgH2+BbAY9YtwKmjQ4U+aAELgYnc/BE9txH2W/hCkwK0Qtvk4FoWvP1tNZeaFNwQpbq77y7/4iyUU9rb+fv5d7y5GPqQ32wcj+i4lNDRMjQHm3QU9HhqXYVTAUPRdCntTYZxtwNIDyyZekeIjnjjaCoNoKK2GxkPfYvk1mPhOlwDoJrx6/UQXB2GGC4YGFSTrTHxAF6OV9HP4wzjcxmh+nTztVVGRyb4urNOl2fyD+6p/JrzPmAKXLh69OzFSYGEmhhMGfOMdjQGwDkPvQhrsYdBRPzp9ISg9DVj3wH9XN/nB4MBMBEZSLcVPIesgZi++/Y67S1qw7g7CCPj9T/7e8gvPPLP8my99afmP3/zmRm0BLA+QHyngCNF221BcMAYocD3Pd82IUckQP6TlDxv1MDLflLKP8sFSQcPDzR0LxKMGsVFvndmToQYA4tkJGsc3xOnyI68JR/6FYZD5c13DGvzPOyRYboJBP9bwHzg+3hkDIC1NVmioOMMNGX7GamQqfk8pcPvi4vwtnqH8dxKKi+O0Xo5OvgvKfAwOGJnAuqfAbin+gR2NdNmFM/3RzALX95Pip5J3I/7CKHBx7n7oexoaFSOj1Y1jqD9p964nnkhGAAyBv/rC59PywCZmBnDMkHQmJP9tavRfU2jY/Y69Bfa6Y+YLlk98ahC04egSEAYLjuJhWSBS4JGfn/7Xb7oBkS/K87gQV8IUvjhOBo4+5lWjQc0fl3/9vw89mAww5IMflgLxw4wg/VI/q9AN+GLGKVL2Bc9mvoQf1vbXWRLQ5QClUUGXfOqDcmGXDADgQrw9zvBXv8XFi2/YU/0zoX3WFJhfnF8no7Ej2Dc6craa0Xlh3e/bLYAY8XBUgjroz+rpRwaiAFl/CPRdHfVH6/uc4q9CKn8HMULDq4RGm4pxBDri4ZsPf+hDZgjAGMAPewXWmRnAjALyLcqWttnEZrWagvP+4Ju0edDXP+NDRU/+IM4Nf61mAhgPCpubBFXxU6mrX5eb6/2tvqo8KwoYRsg6o34oeyr5Mcb2ex94wAxt0kQhTsgYT5L31EgN/GAIrLO/Bum07D73LhkAL10s2n1B5DH5CnWaX5y/5qz1yFT+nlLg6MLR92nHUMuS/vTDyAiCYYxAOKu4UBbclESlz/qMhaj/ro36h6zvtwQthCsFLCGEb+BOGwShVLJiIQ+QdqQpIO79//WPfaxlCGBmAEr977/ylUEGAY4TMn9ClAthB97zSvo0vjG61VHtCq+VoeJpo3FAH3w39JqluxNoDIxdIoABASMU9GC7sCyFKAtxsMN/7Jl+KP2T7vFp6lvOHBE/GJfktzTqV/4L+NB4+Or1tfbaoN+msmlIiqHk222XDIDiXgXBmXRUvoIM31P1M6F91hQ4evbRC8lUQ+A+GAA4Q8tp3EbwurV+saStzkEnQ9iujfrD9X0KToXqViErbhPA4kfhnATvlceaDVV+FOy+SWPOCPz5Zz/bMgY4O0CDAMsFmCW4deuW7SHAEUEKtmJkvThOSvg0FH6tDChSLEGs9pC4F/QcTYyvxL+hU7NeD+XT/OZpBz+O8OEH48CfFoAf9hRoGqOT5J/KXBwnHMeO+jGzd1LFT2MfL0QW7QccswJWAyDxmONT40nnT74cuySA+DpajtqFfrtkAGj7JkMlaGf6X3r2peeftR6Zyt9TCsyfNZ+zAySGCqY4EZ4YMr8IyI6+azBS/KzbEOjrj93EZ31/P9f6ofghzJKApHCE4s6/luCsKXWflt8dEHcGpJ3Vbu2RNG0U22p5BQrg8de9zjYLUvl3wS/99RfT08LM08Ntr//XFL/3xyZE4GL4ieFI/onC4Ofp5IX8hWc9a4kf/AlXaWg4rGYerJysYPGNWa91Nkpi5L+J/gxDKb0/4BVWrj+UcaT4Cz/ydYUnwetj+iWM+IJWxC23HdsNG+82QYOT5oH7K4gv2t8MGOE1DT86Ovq2PVU/E9q7QAEyk0IVTvSHH64DPimDbzp9pPgpOIl7gr4D+W8Khtn8FnbGU/meJcR96VD8VPS9MAtNMwiyIeC/vcDtC0d8LAtAmCaBmZWOuYV2pDnCMCvw1je9uTAGcJTQGwNPf+Yzq9E/85JpWwhFr4xr39ysBujdGOnW0o3xh6LzSwMmqIn/CKhpybs1SPpyVI1v4DJ2up/13fS+HhwzrCld1Ml4uMKrypsFXzqjdugpAVsGQHuQp4K2gfG0adm0Tn640RJ0snYOcGUYXnPdBR0y4bDHFMBd0rSCwVjqFkZL03q7dGUmFX/qLKljD+s0rJNC1nkXbvOrru9zROQEIadHW1DjwS3fJlhreebz2JqGbjst0CGYGj5azQrQGMA0P/YLYJlADQFcAsQ2iNqlawMgFNhJ1651JzuMBirHPgjDJG0yDfpNqz5icLbCemipNGm5F8drbfRj3TBjsI6iqqVJGwFzfaJ6pqOAynfCl508zDSEV68n47hvg6C+FwB8YGx5GkKGQJ7U6nSa/r/8vDsTfqQdIXHW78XR0TN7rHom1HeBAtF1wGQ2bzHjNsDT7AxRWf7ufuCKDtyymkXgFvXwo4D8fdZ3+LfW90XQJeUbCUqn2FvxhqTRctTt82YY4JXHmodYSGNCCH5PX2mfpp2a6WzMDuD9ABwp5Pp/Em6BMqSy8nDTyov8htE0jrgh/yGzBmlZIKi39aOgTmGY0jFKUykD9xh42gz93tT0P2mXprA76mFPAys/ZV4zw1T5NrtrYfDvWhLADEAzw7LakGk8KvTclZsAMRPhZZn1C8E388/NXdAhEw57TIFLs/mvhcIoEECYamRHP00IgQzBYudjKwImdZxKmNYR8Tjtmjb6/eCNM5vyh/Cy9X0qXcIsJE34eaFZCW/Fj0b0zEuEbZQORoX5S1yM1jCaK6ZYA55Runt3YxDUjTeOdiJlBsUMvjgNPkQ5UJRdxgDi2ENEoEMXH0oY6+hpU6TviE+eR/kRnfr8Nm0AAI9Ul4yzrx/2lHCkb3wV8CLjGGSfUH4U/n/x9beHfZj8qXgkt+PV0+CjIWVgCaVoe4en8gluct1j1TOhvgsUeM7R0ZPGVG0LsxBkZ7VRRu/uN1yzkE0CsKOTtOOvdnCf5Ua/4vz+UAEoAq9ztO8UdSvu0HwUr1qeV6+bIWCCVRSWjbasvZojYhZ3QNtFSuys3qToMwRgqHpDgMqnr85YTsBlRMgDdcaoFFPTMHz70g55ICmi46YNACi5dBKg0q42A0CFTh4jVAUf8ZzE88YBDGm/JIA+zhmAkIaL4516Erhpa1nO1L5EmmY5jYvcbrvtttt3QY9MOOwpBYrLgMhggMJ4FGC4oGKIFbvJOBCACRfBB0qdo0dT8K1wUTQuDGnOYqOfru8/9MrHWhuiTKBlIWcjJBWEFJzej4KRsE+QDs2H+RF2lHvSGYGI52p3AGzq2No6vAqlGSlT9cNIGEoZ0/M4Pog+FK0/o861V/mQB/GzfpD7KPskIfLQ8oe6N72MApwLA8D1vTQDoDzUw1fVPsB0hJmfEV+XBEw+OLrRH3JkVzYAoq3T0+Qqh4P9JcR9ugRoT5XuLqE9vzB/mAzVBdFRIMgokE4DYuQPAUllD9iFo4VFMxm5U2HKH3fln+bu/tb6vgrALLhM+fswCjiF6pb4JiwZLmHMv4jDeA5anL70CA9+NASScgLdo/ZQxRCEc4mmpthOg/9qZUDJDVWwGi+dHHB17Tri6I0cbBDjaNZ4PfM1DSVsmMQMAn//+f7LnScEsOmxVs91/fE6IdqcbWi4Lo7TU9TkRULjN8eHxlven98BfzINlgQwy1bQy9GeeO3K+j/oPVjGzea3cI/LLumSCZc9pIDeBWCCWoVzFjBUwhAs6wqGMekgyJqR02o3OTss8ISbox/zN1zL0RbiQRBgPdBPEW7TEOD6PoVSC2ZBZgJwwKhd4yI//02hmsqioCSksvbfXfloXHUzLw8Zx+0RqLVV1HZsX4RFBsA2lNYY3kTcMacFaAQUdwhkw4jT/YyjMMLJlgNcHzX6wr/yAy0xK6EGzKZpCaMlGQB5lk7bFzJE9wAUvKrKXN3kJ+XR7FfwPuMRYmnq5T/Yu3Ry2oOaqE3ph2PWSq/kzkaLGVPS7lS+R2QAACAASURBVNMdAHuocHcR5RbTZUWqDMg4p3UUcPVCW2AAKH7q9hY+vxfHy9Oc8sf5fQgnE1AUSoDqrgg6ixMIvVCx9+TZwiOX2/L3+UTlaxy6kV/HDzMC6TiWCC/yUwHZXtKmkQGw6WlrCuAxcG0DwNWxZgDUFDP6XzFKFJrCCOAPdG3czfIDZghAS/xwVI9HK2vljKGFj4uZDrsLwNW32ANA/iFUfqv1DfIZ03RA8FxBK/CV0AtuyBmP/1l9wzgzfB3dzD/3jcVs/rVd1CUTTntIgcXFo88VglgEMP0TAy6Olz931/ZPAujon+WvAyEAT2vKX9f3O5V0TYBFAo/CjWk0TpfbC1KmZ36EPg/9HhKH+Q6FcnwQbQMBTOjbF/4Y9UQGwDaU1lih33UiQEfxcIOfOf1f1HNxbBv+fJquzXlFHtJXSUvcJY91bVwqQ0Wv+Svu2zCmao8CQYboDECfAdoXHhrKwsPYAEiaRDQDPrty/h/89/bnxrcWRnVYzOb/ZQ9VzYTyLlLAjgJmgVysm4mAQSfCMZWxwnJs/N+83KwheqvXW+/WqalIgKu4T2PKv3N9n0o0w5ZAE2FlwqwWd0BerfxdGhgmFmdM2TluNW1QTteMAO4RwIVCNkp0PKZtiJ3xqrzgPmsDACcQPE7+GyN7KMLyNcrVCRTybrQHoO+IYzoOK3ye8srfUPxQ6h6f2vc2TlPQAGj139n8VjEDAL5SPvRuFx7yn08jvNjwUTMDQnp7CANprHzaVvyuFyg93tMRwF3UpHuKU3EUMAtjWp2EZMDTOAkQXYbB8vsg8IUBs+0p/+r6vgiglnBTYZXjqVBTd6FAfVyW4QSkGRFajro1nbitXPGLyjc/xiPUMohTH8xpecVwtV0Xxy1lto1R61ChruvnVKrABw/wQJljxoKGauo7zrgp+tPiOI3UmQ9h1+gfeCYDoJIv8xgCt2VIwQBoKf889d51CsD4UPlJeUz9acxqON15/4nyFOlOiLCzOtZc47X0iFnP3ibjrYsX37Cn6mZCe9co4J8F1hGYdiK6awy8KX8YALTeU5l+tEPhl/11xmLbU/5c34eyNYElgodK0sJUaDEelaN+062Qbs3Dp2UcD3OaTjyYJsozh1l6xvX+ipvGoZt5d8FrN9IegUJpSJt7ZYYR8qZ4bWw+2OQGfKD0MX1sCh8KTnBmXzGoa8/k32CT4xDjJpwBmM1vYQTpaVX7RjkwZsbWf0j83hkA8oaHAS/V+C8ydi0u3q542dViQ10jI8oZmF2a/sdMhPGK8If5Od7C6a1d0yMTPntKgeIkQMR8YpVCSG/7UaBoBgDlWifOwpQjLCoOrPltY5c/1vdxrAgCJgkZCq5AYCUDQMJNKHk/fnuoeVJp+jjuOyqjEJAuT4uv/jnPrjBfN5YRpiHuA6Ht2BZFydFapMSGKKJtxQE+ENgc9eOKbGwmwwgOOHs+NSEe9S2Z4Rii/FEnjhSLfPN9AhGtkC9+mFnAlL8/XrhpOoUzAPlUAJZ/aCQDJt5x/Ey+Mqh86t3+O+fFNwDIQwWtMi67Mv0PQywte5I/pA94vPENeXfhwoVv2VN1M6G9ixTArtKC2YLRNZlv25ZzawYgdwwq+ghPKJBNH+nj+r4KrJabwovCjApP/E2QqV9HPFOoOssggs7CmYdAC2NZNSj5GX7Mh2mCOK38fRqmBYzcjO/hlcfStDGNOm3jSKltWmmNyQ8KFNPnEV5QtFj/Bw9DUZsxAB7WUZy4oYiGKn/kbbRxikJnADBL0reUMKbOY+K2ZgCkroknlC+UD7K/8RjCGDfqXxKm8eD+jjsvh8sQ5K9dm/5vHREVfil4qDEAvriLOmTCaY8pgF2lNWuZAicp4MVx2q06RiCMjaszAIoT3YDsFJjyxxWgm1T+ur5vwojCBlDdFGDez3+rMHNhrTI0rs/ffyMvl18yUuinglP8mKZVtsSxMF+m/85pLL7kwXJahhPzILx2wzYFgs/YvlCakaIdy1PbiA8FqzvqIzyh3MHPOG/OfkRIfobwH4ofjWPmoVBPTGx7lN+Fb20GAH3V+EB5RHlU+KHgY8av8JrnPaVL5N6Fh82UhumUCGcAAkheyXWZHgHaY127k6hjV2mro9ByJ8yMiTVIZd5Nu/UGwBZOGQfOBuAJ300pf7wxDmPChBSFESGFEL7p9lDDxG0CSvwKAaf+zDPyi8KieOoHt35rHrUwxsnQ8Hf+RgfmI+WEaZhe42c3Rm1sb7YvviPFepYKTvkd07cYvUc4qh/i4Jx3mr53/WnoaBSj/8iQgJFEuqHMs9wjAdqkGYBAiWGJLuRD8oSH3jBguPKO+mU3NgAr/0QzL7ghUdvxrN3YXJ3a0PFGgXum6aWLR+/fSSUyIbW/FFhcvPgGChHCZHVGHXl+aaudB52z6MCCg7OEbwFXKJqTGgGmrLxwoYDJ0OLRvyKkoniqLFM48yCs5NVKBxyjNF1+64a5ssJyNQ7LISQ9/Tf9Bfp1W7Y1FJ8qU7i3cXztJEoAhgBmBGpLA8AZYbhHo+hfi+NkFPSVjZmEdKRwNr+F2RHmQUhakU59+W0zvPWiXTZQcCxXjeu+PqK8FrqVp+i+diMdMSVdIngaJ5nG0BdtG+FZ85veANhfPbuzmF969qXnJ4bzFiiVr4wyEA8boMYw+di4NtLRciu4QbCc1ADA+wA6OjHhpMqNykqEjQk0+vn49PeQeWl8xhE/wyMIK4SipCn8mc7DKD7jIEzDh7glreGs6RgOGLmxc/sl3x/upI8MgF2ZAajxNfDjhjvdbV+bwocSqOWFPTfpkZjE/83NmLW+ugsGAN8C8AoMdz+ktmf7ez7L/l38Y2EdcSEPagMI4LRr0/+4sKnA18s5lYGz+S1s2t5ZRTIhtr8UWMxm3yg6rWM8jjLArNvuRJgWLXChIZIhcUEcjIhO+sAPpv9NMTnB5IUOlGPLj0LNwyiuKMZWPhLWwkfD1N0hDDUPK0vTKn7qr3n6OvlvzYNhkpeVG4QVBtSVx4o2ZxtDQFKxEQ7dNFdTqmflH5/hnyfDByN8nCaAkYAf+kAyhL3id30BfYC0In3OagMg6Hrf5Rc0Ck3kB2SGXQJEPsiwkz8YV/ip4Bn4u7DWBVOCB6bUd236PxmFrk3Znl4GLmZHX91fDTNhvtMUuHRx/mnPcLXvbd8ICAMjWv9K+HgLeTa/hdHjSWYBsPGvECQqeFTAVPxNiI2NG8Sv5WX+XnBqHuK2+OJnBgHrQRjFgR9/XWWumwfTCTThLW0c3ZZ3lgruJMZDcYZf6phGgFnRg+/TD0oh+yE8xaGikLTsJ3oK4CwNJMVZ5UfRv5TfyGPebwjPCe+k/PNpEi1X3diDcZL220bayCi0TbBsb+OF2VM7rUQm5PaXApcuHr0bnYXWJ6AxYraiGYb7xrfRGZgnnujUjsty1Y9u4gklfhIjAMrRlKYXLPxWIaV+6q8jYvXX+HQTIp7GVXdXnCheT/xWHTUPxZ35ECIef/QjdHlUDQ2Nr2myP6Zv2a4JVs6377UBoEI9u6ngI1jQI0iLcPYP9EucBoDRtO1lOvZVQix1vO+BB8r2y/h++x132wxbi//IExm2wgM+Mf5SfnUXAJEmpB9oi932xHcX4OceuDfJWOJIw6/hg+a9DIahPouL87fsr4aZMN9pCrRuBGzOnIYdGky57ak0Tn+yA7SgTu3le8ZPYgAUJwAolET4mGCK/BifUOJQWFl6xhFoYZpOhZvELQwF+rt0LLMKEb8rf8nPcGNZGfb6R3mIn+Emfne/6JEWv0GpcWqbcFvX2G5bKWB9PCkmVeR5NB8pf/gVfK8jf82D7jxjwFE4IEaYmGbG6ZptGwVc//d4Y4OnGY/S3r28TJ6TNMZ34kdeahmQpEuGuHBn2208Jv9P3Pv8cmbH4Vu0/Wx+6+jZRy/caSUyIbe/FJjP59/atppLKxQMmTr34njrL2mlJ4F7OoR2EBgMJ7kJMO0DUKESKUgXTsFTCDKNowJM/b1bv5mGUMMUJ/FXoWjunN5/G86V/MNwKcvC4ae/KD/1C/Jo4Zb3AZAPCbFJjsof8CynuMcIeI2LOrxo5I5v5e+WWw1gmaHzhkRKh3DGXxynEwXcbwCliI2WiutYN0b/yMMMj9xvKSuK9X/liexu8YHyiud5DXN5YabB6iszI/CDfBhbr23HDy8Acnhru992222376+GmTDfeQosjo6e8da7MmDTwfHu+Hz5xjvu2GqH4n0AVj4FGIRLHgk1SxTNJirEgyBZdxZg9D4ACp+KEGsJtZ74akRY2g5hZ8rX5av5WBzkE+XFtF7I0t9Bw0v8zU/zV7fELfChv8a9et0uBGK7g9ewE14NgLM+6z5WMWDkzffprX/1jeYznye+fuCB5fve897lJ556Kv1+/WMfW771TW9e3oN3MwYYyShTf6aonWEAf8wYYBkB+3wwon/t97w8Te1jeh9n/GuzCLXRv10A5Nq74BvwgPCBhbk0GqdwI57bROrpAoNnbLttO36x2Zn8QKjtmvzSE8CTAbDzWnSPEbSngStWKEZkFCQ4mrTtDuI7sf+mMCVe2IG8rgGAO/9tdNsjeExAidAy5aZpnWArhJYP8+n4Tahl0c9DjUN3EMfwD8KMBmoUMB5xZt78ZriDrXKYJ+NpPtlPp3E5AwDhrQYA3NvmvU3l/0s/dm1pI1MV6up2xi34HLx99cqVpPC/8Mwzy+j355/9bDIE2C9IL34Tss/WIMtjOAwB/Ghge3+GJ4iTOPfcv5phcLLjud/53YVyV/4yN/mBUPlC3QzP0PjLrf+z3oTAf9tXmI/lF6z/p2VO5YNMO9CduDdtM1tOFwDtsWLdF9SjC4ESI0ZW6Wx+66RTh32dprCQXUfRDkI3Ojqm8tc1Av75q9+QhJUJFi9oKIBUKKmb4Q76/Lzgq4ZTYWoZ6qf+tTIljpUDP/5cOo9bNZ7kizhF3syzVkZH2vA+gOBK4D7eOetwTPkn/m1Gb4VAJ78+VNk095Ovf32n4vfGAGYGWnmpUTGg7xAnQFP4Lh39FWq6lntxnEbmIU+RR2pQeSTHKXjM8ZYajjRMEj5ZdnXdtXAWvIKllxa9Mr1BX8Ud7qMLR9f2RY9MeO4pBYqXATsESGLQxfHW7wOA1W6dhEZIABEHOMFyPsmRQLsQyAmX1sidQouKz38HwssUKdNoHJanfpKnCVANd24TjlG6Dr8onflpGcwjwxTH+RWGgA/jd5Qn/RDHTeVyVIupZ50F0At2zkKAd5UJXHlznwlzE+7NvppXvPSlS4zg8ePUPqBX7vr9l3/xFxaubsRBPjAcrL+48rz/Ot+oC3/V9CI30vQ/252wg/8jviv8yCeEkmdtlgX4whDraq+zCMPGTPK2h562CMcerT1VKxPa+0SBxWz+RTBgYkodAUjHbsLnS5w93nbniabJfAfRbwiddTcDPvz4z5TTlRQ0gOqm4CHUMB9XwzR+4F8IO8bNsCusMBA0X3UzP/WDmz+GE0q8sOyudJW0YT6+PDwMJJu5yIc4wqUGwK7eBoiRXeLZPPIvDIBsvN5z513LP/uTP7mlyj1yeyUfxfF+2B+A/LVPmFv78BC39v813bYBUHhCec54wvMB+UvTVeJcfuQ1cX0zztu+uGwdGQgDseCNDvrisbZpA+A+adE9xrV4GEiFRMCgGHFjLWudDjA0TToN0IMHBRyUBXCCUFlnGQCGA5VpSzBl4dPyVwElbh/Pf7OcwrDoSK9Ck27LsyedxaMA7YOSXx+eNfyLdJqfc7dww3rugw+bQE8GwOJ46Y8D7tp7AODnNGOVeTUS7qgLlPPvf/L3bCSvCrym8Gv+TOvDMRvw5BNP1g2BoC+zD1Vh1AfVT92SPx55Ao+02pk86PjB+IbhFaj5pWUjKTPVQdph20eWh8oyxsNyRJXOuR7ke8TDHS17rFIm1PeJAlhrqjJn0Mkx4iFjbwPiNEAhTPMoCoo++XNJQAQANiWtYwAgTRIsFDpeOOGbvxxHBVFLGfr0zNenrcXTslxaE5RdaZlG8wmEsdVB8or8UKb3998FDVh+H5RyUQZGjdrmcOOn1wLvmgFAQ5W4Kv5Yk04C/Z9urfTT/F55U6nXoMZXdxQfswwf/tCHlo+95keXWHII+7XghvAbr37V8l1PPLH8pV/84PLtH/9Pyyd/59PpB/frfulX0g9tbv1P+p3l7+TEmI2AET8Vfsor2Z02IRIPVx+MtLchl06SJ16GjPjDaOrqkM//TycA9kmR7iuuFy5c+BZ2ZLVC6VfAxfHy7c/d7nFAdLRoGYAdiIJVN/6gI617M2C6EMgrLCpN78/vQCiFitDH02/mVYOISzyy24yAWpqav0/vv5kO/nQT+riVOCa0NZ24LTxKj2WA4zuKneVoXxxN4zLArtwFYJv9OjbPsc90jf69Ao+U+1994fPLv/vyl9Pvb770pVGzCMz/ne94R0FX9J+H7nvB8r3v/5XlL/z2Hy7f9bt/FP9uPr18F34Iv/l0Mg5+5G3vXuozzqynh+irGKUXfUJ5WfiiiKP+dBMK32jf17JR7q7d/gd5loxFGiwCKdPKOsy+sa+6ZMJ7TymANSdlwsLtrNPTeF4TnbgLhyIsdyiMIteZBSgeBqKwIRShkwSV+46UmvnlPPw3Faz5S57mx/IJozgVP8tDwllmJGzD+JGw7sJFwzSt4uDcRblXry/vuPygjZqtfRfHS2z+gxGwC9cB22a/1CeCDXKur6AeGIlH6/+RwqfSRhgUv//7x29+M/kjXld65gMIA8CM5vyYFs76m+IXJW9+3iigMXDz6TQ7AEMgKS9fX/kujADX9hEfws94gvyUofl3Hf/LZeNa8ZOM1reRFstZiaeFPh3f0/3/e6pH9xbt5xwdPUmh2zULwE6/7TU2dOIqHm66EXgjLkZb6xgA6UIgChwvqMTfhBD9CH2avm9NF8WFn/ozPqEPj74lrsfbf/eWJXmZIaF+vnwNo7sGpZ73vOxqYfSx/Xkp0FkbAFiawswU+kDqBzKSY98hJO6E2K1fU9qRIv/617/udb9937p1a4nf33/lK0vMEFDZR/nQAOCImbibATBE+TtjAEsEmBH42X//8WVxFM/Rg2Vhw17EYy0+JI94fnLfWF4gnVmvRgbMl7v4+E/X8T+rh9AOR7P3VpFMiO8nBbDmFDGj+TnL9efu2v4jG4N2zTpjYN07AYrRhyilUOFRUDlYFWgSz+LUypC4g3FimlqeToAmYRzF1RGYhjt/qwPLJdQ09Av2EHSVbwJd2hVCHTMAZ/keQJqRSn3A3dUPwe36hvWZLNRhBEAZYm2eyroGayN/0/7OERkCyFuNAdwgmAwRKpnF8fLV115VTO9XR/5O+euSAJcF7n7oe9L+AF9v+14cL1tGQMSTwjMF7zt/nBjh2nlRr9n8FqbatzGCP0me4J3CYPT84r6Pjo6+bT+1yIT1XlMAb0+DUZvO1X4TAB06MXK+W/wknWJI2vREMIUWjymKYjABk/EC3uveCcALgajwTcmp8qMgqvgxbVJwErfwj5Sk5ufcmpfhJHm3/CSsKDfyj/wi/GrxgrgtfAJB34rD/K/dWBabu9j2i+N07/xZGAC4+ArX5HpeM0OFOAIqb4qbswC4xvfpz3ymOhMAxY0RffT33/74j5ePv+51SXFDef+7X/5AmgFgXBoCkWGB2wWJP/ovfjd+7MdtbX+w8qcxoLMGeUng/kd+2Moo6JDpg30DXe0eKnzlr+yGIcE6sE4sD/6YpRkiW04zDm5QNVwzPcgTLf+jo2f2WolMyO8vBXgtMDoSGNNb12RWdsBtLwOkozO0jglV4AZubCRbZxmguBCICikQQKqQk9sr7JzWCzv/XeQTlUc/QipSxUnD3Ei7VV6Oa/45H//NOoXGA8tzsMiDeLo4RX2lDkXaazeSAUc+U4hR1GlvAoQBquf7FR9140Y+TIdjWr3WZxAf/Qb7AbyS1tE61vj9H5T/hWc9q/V75OWv8FHT0gD2DmgZMADYp4nHW3/yfygNACp1Kvk+6OJjWQDLAV31xxKP8VXEjzXeEd7GbIPS3rtPU7EPKQvT/5SXHtfW9+IY1/9Ox//2V4XuN+b6PHDLQi1GNM1jPKexDOCvBgZeGOlb5ynwasKwq3+sERC9DOiFlX2LAjO/SOFpPAo38fPKr6YkC/+oHPqxDPdt5ah/5KYfoRo39COUevTh1ypf8/A4u1sBUzsvjpMiPg0DgK/c4YEcjCwpvAk52iT/veHxf2U76d/zazeXd915p/Gm9iG6AbEpTxU03djlH/1hxB8ZAPDD/QLRH2YEeGrAzwCg/7zzbW8sDYA+hV8Lz4YADAAcGyzoI30T/rjxEbxi/MC2V14ibxC6OOEMUR4I7OLtf7qZecUDzSwreYgQ4Zeefen5+61FJuz3mQK3L2bzr5EhuyAE4mmct+28GjiYAQDOuFRmrAGQLgSisKHwIVShJX6m/FWAqZtxPdQ4NXdOY8KSefThwngeopxaWdnfyvLx5NviRPlnP4sj6cKyfR74rtwKCAWCs9RDRl0niYPrWnXUT8WvEDyGUf97/sN/bCnRd//CB4vRtu9DyAebVbkUQOUPiJE7FLf/qyl/+GMpIErDPDCjAAMC5QIX1uN//h9/psEdit2N5kcvCYhxgHsDoMiSspP+2ToSGLU9+CXib8ZV49AZFygPsuIkbb+NtNj9T9orLyQ/zmpmiBtZ91l5TLgfAAW4DFBY8tKRycRk4G0vA6BT+jsBvHABLjorAPfYq4HTy4BOYZkiowDKAoqKPwyXuBYu+SY/icO8CC2NxpH0jJcUasbH0mi8mjvna2n6ymE4YS6T5bfy0XiRO/tZOl+HazeWtWlejPC29R4AlAc2G/bxPfhfR/2RstT7+ROvZmVFNyAu6oHS1+n/L/31F6m3C4hlLSh7pKMxQDeeDO77e+X3fl8xk4H+YQbABpU/aNGaBZjNb2HTXmEAdvCF52/jk47lIRo2+/T4T4PzzGaL8D1N/x+AAt33KmAZAAo1CSsofrFSwaT6QzwsA2xLKNMiX924Jh1G8DJcBb91lgHShUBUcF1CKlCuKqgKYefjuvwtHf0JWT5h18iIcTIs8nRhVdwYT8sR3C1PxGNcQolX5J/DLW1PvJT26vUlNpQlA1Pas+HD+UavoYbCUMXfKlPLn81v4enpYtRfUZ64XCe91EcedfmkPvRPRgHu8NcZALij0Tw2/1HxewgDou8v1SvhsjrCiJkKM14q9bBwGeF3+t18Or3M2RyVzH11cbxMa/+Vtg95g3xFiLS4JwJPEEe0nM1v7er0v/FUMGPh6zJN/++79jwM/KvLAEnR2mim2QdwGpcCDTlHS9wAMcJZ5zSAbQRUwRO4Q6GVhVShAFXoMR8PfZwcbmVE8X0als24lfCUZxDHytJ06tY0viwNy+7e/KK8mU+G6VZAEfZUYuCFkxicSIvLfGBUNoqq4WMT1FImZwMQ1jfqLxTjzaeToeAFvPIo3DAS/AVB0fl/3POPEwRe+cMwGPIH/PWH/oFbABPOm1L+efSPvLXeUNpFn3DtXIRVjM9kcOr0P9tIZNGuTf/jvRS7/If4RpB1mHb/H4b2PIRa2DJAxLDiR6FyUqHMkX4X5PRsEqKCgwobda9zGuBlP/FOG92aEutSal6Y+biV70Lo+TyoYAl9uM9TlKnHGeVEfjaCl7Tm58qz9IxbKb+Ix7iA6pbd3IW/i4Ow4rIXaW9sqlrnQiCM9rGrHwYrFTtnFcjHiX90pIb9JHfeNV5ZQqnefHr5pjf+9EoZVmYD8ICPzgLUNgJieQDr/cgT8Knf+u32ZoGKNcD6KbSZjKGj+wHxYHTDALA+yvP/5CnlR23zAW5/SZT2dbhPYymySz75MN79D5p7XKPvPP0/3f1/CAp03+vA0wBgXuvQTjAqE5/G5Ru6m9bKVpzEDQEEvMcuAxQbAb1Q0u9IoNGPUOPDLT9TlhK38KN/hhbm83TxqkqVZTM+BbF8I221HF8u8/P+zC9Dy4/+TCffFkfLx+NA6bz36i6KJEjlNMCQp4E5xY/pYaYH78Dd94NxgM1zdlf+miPltBQgBkxTvtZrljYE6l6AaBmgotsHefu6om7JAFizTsVsRzYMsPnPZEWmMTbjtgxL4Rlre/KDgxZ+9Xr7xkHp76cxC+kVfN+33h2RDCIagIvjFZ2kDtP0/75rzQPDH5cCUViawoUgIyNnN8IwlQphe5Kp2b4OhauBEx5avhOsBZ4Yvb3k+0efBkhCh4JIhJUJspqfKrAoDvLUfKM48OOvFlfTqVvj0+2hxvflMK7GoV+GJpCdf6fh4eP6by3P4YTNY75NwX94IKh2JBCzURjp8xhfw6+raX6vDGvfaZOcKkh1DxgNU0liqr3oMwHP8ppgzgREbwAM0vSVSFEdzbAZURfWyUMcAcRUv438sfHv+A479md8z7b3bZ79jb+CcGtHTz8YM3ffuVO7/zEbQZp7/gWNlE4IXzTT/9Po/8B06F5X59Js/kFarp6J9RuMjs75y8/bfidMywBpdLEaQSkuhTuPFsceBww3AorgMiElfibgVHBJuKWJwiUe87H4DHPQh9u35N/p5/JjuV6RWx6ML/kzTYoThQdxq7MMTO8gDDhtUxOqi+O0Yx8bUHFsDyP8kyp85g3FldbHofD1t46izOlx657WA/1Fv9HP9FggbgPc1CwA9hSwbgq9Ej/JNx4Gwuhf64S28/xEnjGoPAK3/wY/DNj9v2vT/+BJ0iKSod5vcXH+lr1WFhPyh0cBTEk1AkN23nvrW74hgPtG8ScNTx3LzwDk7ySAfNhsfmvsMsCLr7+9EEShElRB5ZRWIcQYJvEtv74Zg0qaqvAMyipwQX6SJ/MxfJjeQ59O82BY9mvlVaujz4Nlqj/8sPHLKUsIViqyFMbw1Pb9U/tMG0Hb5c/RPuE6kIt/wAAAIABJREFUyl/SYLStFwRROQD/pAxm81t+FuC//8M/VMbz47xxi6CvK2ZWTqLwNS2P/aGMVK/FcXoumPxFaLzh21h5hHxAmOM2NwzKWrrQ7TTuIhkrt6qb/8irIjfR/vP5/Ftvu+22aQbg8NToftdocfHocxRW3mpVwZw6/+J4+cn7X7BVIwCWPvHxsBFyK2MF+MIowJGyMbMAaSMgBI8KKv8tAsoEG/0yrPm38vXxtVzm6cuvxEllahq6a5D55qN3uK8dP97YRuHt4di6FXV2uPi8/DfWkalY2OZeoW3i+4Uv/K4lbvI78ahfFH9SlNmI+Pl3vTs0ZlZ1KmcBapsBx6n/5TIyALAvQZX4Wu48u4H2Yh0A0Rboc6nNlU/F7du44A9vEFx5LBkwWoa6MSgYq6C3Gf/jl/NSJZV8oPQV/8Vshqd/J+W/36ryMLHHs5TGrGJ1mx+ZPHd8bNTb5j4AdNxiF7eUn3ByOMIIwMhrjAFgGwGdovJK0L6pRBmf34TqT7eHQdyWkAzStOK4fCwc/jm9+Wl+MtKG0YT1XB/Pvl0ZzLcQ4pq3lF3E8f6174wbFEvEd5vwg/JvrYlvaPSvRsBLHnqxjfgNb+FZPwsQvQuwCQMgPQW8gfph9E9Dm+2D0XpL+ZMfam0Mfx+W02ApgXm3+vjieIm9QdtU6GPzxnKUta2XT/hme2fDABuuD1N7TLXaewpcuHDhWxaz2TeUoVcdvr0Oz82AYzvNmPg47wt8IjzgRyGhOP+Lf/mzo4wAKrVC6YkQS/78JuTIBd/0y9DyoX9F2Pl0XiiOzkfL0bKdwOWb7hC0/KWlEJ+G34Q5n4Ie6qflkz61cM2T7gz1CFhq455RlbZ9nztU/n4Uv6HvX/pFXBPc7jfAsaF7OQuwic2A0QzAax997UZmAEA71Ef7XXX2yPFCi9ddmzO8dvkP6IU9QWNkx7bjYoYSBnStjZUXG7od/e00+t97NXnYFWjdCUALNrJuZ/Nb7737rq3OAuC0Aa1oCAHtVDX3Q698bJQBEG0ENOWbFVihnCm8ojD65ThFPkxHqEIy8nN5UUi2oOajipd5EuZ4DT1LWuJSpBM/kOTxdXgpDY0uxI0w59FaB86jKWtzNQoGujEib438N6TsW9PqecSNF/xafCt9ys8CnHQzYGQA4AKhFn4j693c+d8YjGyDdOzPtbFv1+q3S5d4Orr8R+QOZhy3rdTH5P/2595hBrQaRXCbYSD4T1f/HrbuPIjazS/MH65ZtC3/vDsbt2CN6Thj4zbnusuRVAuXPKpCxxv7OFAx+lVFRDdhh3L1gs6UdFZo/LZ4UV6RH8smzPm18mE4Ict1eeroGoIcygk0gwGApZN0OyLzINQ8IsEtfoYX09agpIFh0EoXnQUXYUolNBRiaSit+Y9UfCdVnDh/X8MRtAcf64mAk84CfOKpp0QpNQrbXgI8Qd29QWb3/Ws7sq3Vz7vdd2r3nK44BRIYdbs0/Y+BCWZAo7albCJknPmz5vODUBJTJQ6bAnilCkybGDiPvMzthDCUBzbCjFXqY+J/9PLdWaitNv2xUxnMoyqOtsbsA3j48Z+pr2NSqBFCgDkhRuVe9e9Kq3lpvOw2xVhRkkXZPq8gPxhHpBFph289PRHNiPi6KV4FDkGZFt4V5nHHd74hsMZ7Cf/F8RJH+VCvOy4/uBLIMsrGjMfP/vuPN6PgDayFjzUKcMEQ+gnx9fXRWYDakcC//8pX0gY/3AiIUT6+oz/cGtgYFqvlHbvjYM2649gfcFa8L7/8B+v9gO1MGLWthuVwbEglT3oIZTtGZmw7LmY+SWePa/S9mM0+ddhaY6rdwVAA51QjJvZ+7AC4BWvbHY53AhgOOkIQowQ4QdiqQuszBrgR0JSaCKeWnw+Tb6/oqmmZJkOLFwnKrAh93oVCdvlZ3CBtoSSFbnp6AvS4/4ceb4/KK+UY/pVw4Gpx1M34Wm/vvno93RKIq4KTgkC756Nn8LPz51evL6OLhMAPb33Tm088BT5W6Wt8zDwY32aaJ2WajJTmuWB9I8Ard9waiJ38+jYAZjRgCPg/NQBYJvYirPsEMDf+gY7MDzxU8F+lTa3NpZ3NT9s53wRpRpLwJcs8jdtHx8iwljwizhW5dHTh6NrBKIipIodNAZxT9ZsBIXTZGQt3nkb+g/u2uwzAOwEMB3a4CsQIpU/xM9yeBqbCVOEU+YlAU0EYCjfJqxoucTQ/U+RaHt2EklbzN7eLV4yypE29wYSNlFZ+pYwCV8SpxXM4pHg5fgtPxvWQ+RNqeL48Rkeo5BOswSdlvOboVxX5Sdx4DhgKThUpcQTUNwL8LMBD972gUP40BGAU+D81AFhW8Q7ASDqgfQq8F8fNsVGlP9sEMPIf4IcnoYlvoovwJr4xCzhGQW8zLmY8a7gaD8oM1GKWNv8dttKYandYFBhyM6COYt54x3bP5/o7AVi2CVERGOiceNSFCn4ItGlvL6zcd6/CUiHo3frt8qXgtPyjUZVPo3GQt+Yvbs3T77IGrSDguQdAaWVLIyzXl6H+dBPW4jLcQ60Lw3wd6O/hlcfSMoDxAo1C3oF/grXvkyh9TYtZANBa+Vbd4FedBeArgXgUiAo/gv55YNw/0JSzWgIYvfcBRsLNp5f+vn/QF4qavNoLpf0srvgZX167UZm9afb97Nr0/498uwyGyGsdcLr577B047moDTastARqhcmpRLAxZpuWt525Feu6hiNwGnMcMG1+i4ST+OnINRJohQLOSkqFnKX3Yb4MKjj4S5jlJX4abjhpeueu0SsyAGAMeLq0yuiqiyvb19/y8vWpGQMSz2hx7UZ17R+j7qSER456VXFv0o3jeMVo2vWnD3/oQ/ZSIBQ//jDNHyl++iFcTw685tFHWwbA6DpkeqV9FTJrkTb+sU19u/vvSlu1eCAv8aC/1nhzl3b/4/IzGlgFvlkm+fbFTGq++e9c6I2pkodDgdufM5vfJJPraCX5uRE3lgVwLGabBgCmARUfdDZ+K6RBAiWhI9oud9cROFU2kcL14f67JfQoRCEkRVAWbsYh9HHp76HmxzDxUzrBTVrVDADQ7J+/+g2rNXzJM6xnDvdh1W/BzQwClkEYxYHf1etLf6qB9QO/jh75bnOm4ObT6UW+mqKDP6b0+UAQIK8HprKPIA0FLgV4AwAzC+sYANj4R1qST9KNf2wTwtwOxuMdbWVxNO21G+2X/2AYiXzZpd3/eJiKdGnJxGzQqT9mUg9HJUw1OVcUwJFAMntj2XbswpdXArdpBKSjNzoDQDehjKqwQaxL6WtYsebtBJQXXKbMVPhpGvrTL8Mi3TphTKMjZBG4XflTuRYjFKFZlwHQ2iMheCTa8JuQ9RfcPA2LdD6e5kM3ocTFE8KqKMirgHiQZ7Ti27IBgGl1zEoYnkJ/+MEIwDE+GgFU7jjHHyl/nC7wf94AWOcWQGz8s7cMMo7YcNlqQ7YJoLpz+xs/Snjhl9sSpzhqNNmly3+wz6lmwCX8W+05W05H/86Vyjy8yuLpSgpZtWzVTeGFeNu+qxvTgSYs9KiiKH7iM2YfQFJyWYi1hJQoHRN0Q/0CwWh5dIQZDlmYWhot17vlW9Ob+9qNZie90AoCDUZB33IJy9e8qkrc16vn2/JUw8anYZj4c9e/50Xwob3wt02lvkbe3ScCZsurV66YAQBDANcD41TAm97404URAKOABoIaAc31w1z/ny1H3QKY1/7RHuxjSeH5jX9sC+E38IK1I9vIhbf4pWMGh314l6b/dfSf6COzFKSXgzcPTyNMNTpXFJhfnF9PAlaUhmPyW/yGsMAIHXsBtvVGAKYDU3nO2qYfcQEEPn2KTWcBcPSNiq4QVirQVKjRP8NIAJqfS1f4u7BUduTnyiOulhfDkVbTy3dxCkDaVOkQuVlWka+vt5RpOPX4Rfmx/pZHUK/oPgO2PV75W/fY22nMGhT3AkgbkGf1YqCxjwSB5/X3hsf/1ah9ELgvgQY/6alHLQs+kLYt/NleA6DflMoyCXdl+n/U6D/LJsygnitlMVX2IClwO46xeKHQCCt/O988CQ+8277NZQA8CUoBkWBgiUMIYmQLJRIptMgvbXhzQsuUUGWEo+GhEKwJycifZfeEWZlD4jNOhmYAZJqRThE91M/qxvwUR7j1e0icvviah4uLqX/gXfBAng1Cm+NindNQ5KPLyJvrWrcDCv/C2MbonssAnAXQUX6X29Pkne94xzBj6ObTyyd/59NLTPUrbcEvYdvm9jFe1DbSvlLzR/ra1b+ZHrs0/c/Rf2u2yRlwoD/oh5dVD1IbTJU6fxRoXQwkAssLHDA/ZwG2ZQS85+47k6ExZGZizD6AdCUwBJYTWr3KT5WVF4wSZsJS/JC3+btyC38XVuDo8kthGl9wogGgtMMarCr7yF3gUsM5woN+hDXlwPA+mK8IViWlxin80/T/GtPzoxX6OmVkI+AVL31py4BJfWlxnI6w6pHAodcD40hgQRe81fH+Xxk8A5A2/rmZNRhbBa8pX8Htv9l+4m+8o2Fox4e+pzwV4crelen/6ug/49vsq2kGQ+xX+eKf6dnf86cuD67GtzevBB591Sv76DsJoMXxcpuzAFhi8IKOuKiFjjhj9gGkjYB9CkrDKdBqcKCANIXNvJlflxBlHEKm7UqTr9YlrQhxz3uk9NWv0wjqwAF1SwqAcQgjPBlXwiw9/Xrei0f7FxffrKOkt5kmGwC4nY/09xB1eN973muzAFDsetSvNgOAI4GaV6LFr93snw25+fSy2PiXZ1Ns45+0WUuZ57Cav/EN2o9tmCEMz1o/Rj12ZfoftxAqXb3b1wH7pg5OC0wVOt8UeM7R0ZMF49NaD2YD0CG2PQuQOqWWrW6ZlgMuQ/cB8ErgQlA5oZXC1E+VlvpTaHqY45jAjNKoX8UdpkdcH9/5FWvnuQ2HGADV8rwC0PJZd4dDSyloGsb1fjkvHPvzArfgy9z22G2/U8cAA6PiRQ/cm0bACX/2p4y/PxI4ZBYABoCnzdBZDbSvjWRn81vpzP+Vx0p+0vYc42ZcgbipE/X2+JIWuzL9z3P/xmOunYhvGnjktpuu/T3fuvIga2+zAIGiTcwv/qlTb/legP/lntWdANY5RfHDD3iM3QeQlJMIKihUU37O3yvbVry+tKrkfN5931SUffFcOKZdSS+0G+gDo0BH+5HblLbLz/y1Llpv8Tf60K+WV80fu8YffNjwZz38EkCjyJq2xya4U3sCOFDyVQWMNfcnnizqov0Ibr0YCHsB+mYBcA2w8j022FXLB6551//qxr/Vvorqxr/cNtaWbCu2qUCLI37kFxidbD+td4P/bLkr0/92+ViWLewzHmeryzT6P0j9N1XqtttuwyxAYnynaMn8Cql8t/VGAJYBIPgLfPx3xnPMuwB2JbAKLbj5o8CrQR/PfZtQZHqEq1u+La7Lw+LndBbPf0teNFaii3P0IaBI+cPPysh5+u8WfYKyfZwwj646XLuRNqkZn1XaG7yXjNDZ/BaMgQcWiyVexEuGQJ6C71SMYxT5unFvPp3wwRKV1cf1K38ksG8WwL8DMPQOACjjxmhq1rHTxj/ypIe1do3aTeIWbY3Nf6ntVgaHp8EuTP//ZnDnfyFvXHuhTvOL89dMymKiwEFSgLMAav1S0asfOjOFMHbPbmszoLfOCyGSZySAB46F1RSb9+fVt4XACoSghTMsEnYMI0QciQe3z8e+fVzJw+KInylXppNyUvwcF8ZQUo5ZAEPwDzEAvNFR1IN4jIXENaezetX8cWuczGAU7S3CmLynEHHBB7grfxeUf8Lh5tPpfL/VQ2bR4Ic+9fuf/L0l9gDwVEDXLAAvAWJ+OE3QdxySN/4lnqDBHGz8s7Zxbdzyd21nfCP+mF1o2qY8RUS8d2X6/6WLRWiceVlHvKe1/4NUe1OllAKtvQC1dTwRyL9773beCBh6GgDCxiv62rddCQyBNVbYaRpxh0KSeUu8UKnmcMsD3/wxD8DIzXiE+dlVVYxwDzEAivJZVs63GpbjheHMg1BwLOjg/LErnVP8FLy6BGB+wn/0Yzqsr6cnctcdvW8iXZ6JSBcDmbGab9qUmQ0caaTyB+yaBXjl935fVqzNyBqzHpzmj4ye1VO/qxs+scRS0F/bR91ol9o3/SuQFzixXRJknRfHOzH9jyVG9pMCP89XxHs2vzWN/lVTTO6DpEDzVPD8a+y8ag2rG+HoQBDOP3B8vJVZAP9CIDsqcSMOEPxdV92qMZBOAlQEVyEYRQCagmM6CRssJDWNujXPyF/CDQ/EY1yGE169boIN7TOUNlYP5uMhy8tlJ1wYR/GhO5j96C0D+XEZwI2Wtc0jg4DCnEYAIG7Ns2Nym1DqY/PIRkBxPbAoGPYnPRLYtRcg9TdJ33cbIgw/TYNd+YlvXFtau3S0mfGetHnkl65vFhyLdssy46yn/z/3wL3L+4J3RtgeHuckZ6a1/4PUd1OlAgrYvQBi/UadInWMvB77kXuetxUjIE3TdSmDLGyGjHJhCKSTAJEQU6HIcMIoLPLL8U0wShzz64hjgnhAHMtPymB6bSsogCHGEdMSduXPOGaECA6WLqKdKhhJU+QD/yuPpQdkkkCmMqnxovAGjQDChj9nS6yV9ynLaAR9Ir+8AQ954NhiURfWKcN3PfFE7ywAng9WZY66dW1+xNQ/jCDlBSwPKa1bbVVps672pkHBvO64/GBRppYP9y5M/+M6c6Nlja9cGx1dOPq+QFROXhMFDo4CuNzi9vRGgOsE7MyRpYyODct60/sB0FlZLqGWj44MQTfkqBtnApKwioSd+FGgqcCE2/xzXPv2Ck2/JV+fnwlXjaNuzafiNhxyOl6/StoMNQAsH5SjZQk+RRzxt3pouiHunIflK3mGJwIqPEneqMLFcTIETvUOAdmQiIuBCoVsywLNXRZ9swD+DgBMs4cGSj7znx7gEeMIPFFr06jtovaweNJGhV/e/Fe0ARVsxgXLepuWEWPy+6/f+YKyHYSf2F8oXwR+6uCk/FShiQJdFMBZV+vIIkgw/Zo6hnScxm++lYeCsFPXysxlQ5B6HIbcdkcDAM/fFsJQFVVNuGkcuP030znYEqQuHPloHHNr/j4NvzWO4MTbANl+2PfAutdgIchdvoZTUK6FuTTMz8KZllDrLbh7umLUmpQZ+I28p/yofDjADSF/9ZWvai4TEgUdKtOxU/4d8d/9Cx9MPIvy2S4GF8etI4F+L8DHPvqrq1HrbH7r1T9wpTEAfB1uPp32fBR9BI/9eBpX2svTn+1IaO2p6XObcvOf1StoDyzrjVHYm46LTcutNiBfBfiiLvnFv+nWvy6FMYUdHgUuXZx/uqszMwwdCj8InW0cC2Q5hE15qx3GLHvohUA8CUChRhgKN6+oqMAIVRBqXA33wlfD1M14mqeEG370I9T4V68v/QxATemrf6JBlJ/6aTnqT3cNarqam2l9OL55P0Cg+DlKI2/ASDA3Bbr4kVcRzwyBDsW9ScMApxQ8bsAfP38xkN8L8K/f8rbUx8jr6REgVf75rn+e+dfZBpysGKzY2Q4Ztngut0fkX2z+E5qzztvaKzTUSPjl591pNCROCj0vgdaXZvMPHp5kn2o0UWAABS49+9LztYMU7qCDIxwP+QztkEPjQXDY6I9CPYA4469KreZOJwG8gMuCjcZAC4piagk/JzQLYevCetP2xa8JYLm/H1PnEF5srxod1N/jZd9Sb6NJxa8vjYW7Olq+9K/kjw1mWOpJghrtX+HBVO+OMDUC4H7k5a9oTg2oQt2CUYAnf7VdFH/UyV8MpLMAPAJI3DGj4I0T7PrHbAnyIo3SjX+OrtYOSmfv7vp2+YHf0TZF3bR/5hE2dt4P7fPrxMPdIZgxxDIDbhKF3CC9PGTfKOSKmwlYzI6+iqPRA0TlFGWiwGFSABYwhIlNKfYIVnSo995910Y7ut8HkISb4IHODfyGbgQsTgKooBPBFgpJCS+UvI78NT91+7QI03QM9zDHK8pjHIa5b9zxDgFHuqiir7mTEmY+hIp/gGsfjcJwl6cp/1yXlIblE7KeOS0NARPiqmwCd8QvqhAaJTBfvvCF37WMFKtXtGt933w6XV1cwxk46sVAvBuA9wIovojbugb55tPLh175mLU746eNf6QjIenJb8Kgja19GIcwt0Xiy/yAU61u5EUo6HUUey0N8vvo5buTssceJNa5C4+usMQnud8gr0sXj959mFJ9qtVEgYEUaI4FHn0VHSLsPKKI2dGhjLHW938/eN9GOrzfB9CUszrbTLyGbgS0NwEiYRb5qbBjuIcujio/c2saup0wtrguPwraqkBmftdupOt0KQwBa0pf/a1cyWew0cE0A3H2ZfnvsK5aRqYZDQGv4MkPCbpRXRGWjQWlFfJ66L4XrG4W3PBMwKuvvaq9CS3jCDw+8dRTrRMBfAWQeN51552t0T93/TeGerMkZ4/9OB4zHooUvrahuK2NxM/yiW7+c3THiLymyMf44wghrhHGTCPp4WHUxoWfw62YBQBPSDiWQTETOlBcTtEmChweBRYXL76hU8gGo64f/o7N3RCYrgV2ZSg+EAAQfGM2AnolYwKOisbBVrgKz0gowk/9o29XhuGk6VycTjxyXKz5UiiCLqroa24T5iwv42vlRTiJn8XT9NltYRLf6qrxNZz+hAjzP4blY4MmuJ1RWgj/LODVj7TyELS78WM/vtHXB3EcUctWN3haZwF4QdBTv/XbzZ0beXSK5QCdhbCX/pLiytckY+MfH/sRulpbkHYS5vnV4pLukiaF5W9s/tN6tNyL4zRSH6PoNS6Vvo7y0VatcpyMSOHKC+JW+dGVD3kCF6QdnmSfajRRYCAFFhePPoeOwo6TIDscLWbpYBDGm1zz89d2NiOd1SwABcLQjYDFmwAUcB3C0JQPhSChS2NCMwqXdXoq3Fb8nM78Xf6deOS4fFGPwmsITVT4W9mVOiCuxfH4MQ0hwvviMC5hLX+EMw4h8we88ljzmJDyoedRfndA0g38Dj4DxC18uF1wE+8N4JVAUzrsO8Anu/0swE+94afyun6j9NINgDIzAQXM/kDc737RI226k1akHaG2D/36oORVbP6TerCO65z9xwwi1vK90mf9AJm/QdIyav+O9k7pB6SBDMSM6ECROUWbKHA4FMA0mCp9GgLW+aSDsZPiyWCcu1Vrfl03pv20ozZl6EmAZp/C0I2AhQFQEXZJybmwUPG5OIXCi8IoPD2sxB2LhxoAUAxD7gEo6qUKQdwWh3hKWFFnVeCM62CUV+QXKnzm5elHfGAIvOT7m+ODAwQ7FK/yMfmXEGHgd/ywk/+tb3pzew1eFLKOzgt33mQIBa7l0d2UMU+zANwDgFkAnBAgLoB2u+HNp5ec+tfw9NgPacG2IM0I6S/xCsNO4nW1AfYYEP8IAq8xL/9hTR9vgGh9onzh1yWD1knTyk/4wvCZjIDDUWpTTcZRABsCax2r5r+ppQAIhloZ6j90I+CLr7+9NZo0BeQViwrDmsBUf4lf5El/wMBdjUt8mCb6Zhj2ALzsaiFAhxgABT4+f+ZNf0D61WAQp6gf8/Lp+9L5+PimH/MUmB4XEkFeKHuOGMV4VV6K3FQECHvto69dKeMhBgDicDOg4pRHzVoeZwGe/sxnbPTPsjkLsbrrv5n2Z3ix8U9oYXRSetFNyPj5W9vM3BK3OZUho/FM02ZGovHvu/oXS3zY6Fsb7StdRrnZvp7W2t4FvqsZxVo5icaTETBOcUyxD4MCeUPg36JzoCNw2pFC1VvQiIOwTZwKgBBhOU35q9G/4oMjcLV1bvV/+PGfWU1ji0ArRrL074MQmj6O+qmb8XQERqEbxZP4rTJymBfMagAMnQFIebMsD3vwsvK1TlEerKcP43dUjkujZRk9GEch8wTsWhpQZUB3h8Ig35Pn8I0Ruj1H3GUIYAYg/376xmtaBq32H+4FwNFAlMFysRSBPJ78nU/nI5Gl8reNf1r/7K7Rzvw1jbaFd+fvzqN/mZZYuqvN+mGaH5sDWT9A0LXzp22T3aQbYS19V3gtzPsT10uz+a8dhlSfajFRYAQF8CIWO9iQDos4UEKbuCBoSHnYIa2KvuZORwGpMCqCzwSjCkAvTJm2S/n5NEF+hTLriB/i5OqBESAFFeCQmwAtX1925bswlLQ+Dhefr9XT5yt5VNO4vIu8cn6Fn+SZ8K0ZAqpUVAFV/JW26oaBig16vS8RYhbgP/zHXmWHWQA8JKRlcP0fNEK/Yl9MUDf+kR5dNPP00TSRm34Z1kb/xAXKM7r6F6d6amf0i/qgLSpt0Iqn7Ra4bbDCMM4O8FthV1iOl9rk4vwtI0TnFHWiwEFQ4PbnzOY3vWXMDun9KbxwbOekbwWkC4HYUUUwsEyUhY5eU/rqHx0FbCkeJyAt3AtVFy8pm8gg8OkoUEfGrSrfnJ+fAdB619xJcQo+rTJcHY0WTFODrLOmZ1yG8ZuQ/lGaHKdVfkdctofVKTAEyEPk4y5Inq5BpMU6PG7ra709IJcNYTRv5Qg/ww/44KbCe+68ywwAKEPkx3V/S5tn5NKNf6RhDWbaGv2UbuK2cOYjYeCVvtE/6alX/2JTMBW/4q5upqv5ReE+rin7TFMYZX/4qU8t8Z4C/vCwEty4Xjm1gaO95kcDxJfbtP3RV6dNgQeh06ZKjKEA7sZezGbfsI5SrKNVpvEWx2md7yR3A9hGQBoBgGKtUyAPWfOGIkxCjgKOMAtIG0mq4FM34/dBnx/jR3kN9ct51IS0GgCgSU3pq7/Vl/j1QcVV3UwX+Bm+QRiUs4UzjwzNX9PBnX/VcJeP1ZH5BIaA8TR5TJWD8ForXlbC5EELXxynZ4lxlW8yBrgM8Lt/tPz5dzUv9jVp8vpzRxnYgJhmDhSnjGe68Y806aIbaUIaCCzoWPFnHP/ehNWXdJvNb2EzH6b/ofhPAcxKAAAgAElEQVT9+n4Uf7QfaaX0oN9sfusnX//65d986UtJ6Xf9gzEAI2F0+bP5rWkpYIzmmOIeDAXsyWDp8OxAsbXc7Af43XvXvw0MgoQWOctSCEEK6x9CSpVbzZ0eBRoiEBnHQxGSgxQY00fKricvCt6WEkM6TYtNgC/5fhs1Dp0RYb5ROZEf42vZFi+qn9SdaTU+/TS/wk/rqO4g3662SPmTZpJPOjVwR7PR1POv8tg6bvBlY6jO0ykCzAzwSGH0PkAqQ5Va7mM3Xv2qlN7jh/zTxj+pj9Uz08doTXoR+jT0JySt+H3txjJtrNR+r7iKGwaAKv4q7SSN9m9fz2p6wQW0gDLnaL9L8fswzBJgxsXPIGi5HieUlx8LOhjZPlVkosAgCixm8/9inUMsb/OTjgk/dBYIhHWvBMXaIfKo5U9/CMOa0ld/exRIhSAFnRd8qtRyfBOqmj5IVyiyWv70J4zyVD/Gy9BwOelNgB5/lpP9tZxC0fp0iqu6XX5GG/r7+kRpXdxaHl4JFvGYB/HOELyDx5SSoHf8m/iroqx0JqoVL/M++bNRMM3mPSgc+g+B4H/fB7AWX62r0o917aKxxieNCPEoUzYuh+DKOC2clYYRjSO/LF9IO+atEPsl1lH8aghgeQDLAg3Oq1kZLce7p1mAQepiinRoFPBLAW3ruNypz47DqcHa7uAuf+bBsgjhj04LATH0SuB0FFAFHpU8BR6hi2OKxAnUJIRzGq8oLQ3z9JBl57KwxloT6pZ3BS/sBKfQBT2GbAJM+Hmc+K3lRH5ROONlGOLsw5gG+UV5Ko3ULemiciI/oy3LUpjXuNObCjRs11Baypsrvl3t2leeTeG1Mmr+UJS1jX+kCWGFnlW+VPpC8b/sqr0yybroaN38Uj+M+73GgTuiTxEnqLemgRszKFhewb0Jm/qDEYA8iQvKaQyPuF7oa9NegEPTblN9BlFgfnF+nR1lEEwCdR7uDu5S/AxLNwIGgoFlo7MOvRIYRwGpCAolEQlLCtKhkAqF8VWgZr+iTIkH5Q+Bc8flB9NmKxPSipe6JS3i6voshNOQPRFWRhduLIewAwfStVDktfjwr4WxLEKNV0vHuISahn6AkdvnmUe9SlPymkEaCVkhm380kg38aKwl5ZbzMHcQP+Wfy4w2/oV8lesahilv5pf9oPBhAOnT0tV6ZVwaJRnM0Cl9eurDmRRTuEF80AajdGzig7Le1l9zAqOZBUAbFfV3Mmh6OGiQupgiHRgFbkd9FrPZp5LAcp2CI4QwbDa/tc5+AMweFB3RCQh0VAgPneqvue0oIBVBpChUOEo8E6Rdfgwj1PypaNQP8fJFPlpH3G2Q7nUP8mnhce3GklezkhZDDICUj+ZP/LKflZP9i/iSzuJF6TriURn79DAMwrKYl4dKT+eO8ma5QwwQGGaYXaKSIn9rW1Xdvm84vg3T+TTuG4Zuwl9oAByhvNPvwYfT1cjgH+ANI6brF+IwBE+JU+vrlrfWQd2SB+JS4TI/wJc89OLlBz/wgUEb+zZhFKyWA+KRv9WpwfeLBybbp+pMFBhGgXxB0Fe1Q/S6F8fLBxaL0VcFp6eBveAIRhhDlB6OAnYpBQtzyrBQGk7JqCIp0lNIMz6/CaUMCG9PPwh7WxbwaZhnzoMjMQhR/IbQwurEvD3UMhiWy7N6qn/kph+h5pnzUvoZTlGYpLXye/xS3jmvKI2Vl/GzOMSXEKcH8lXDSUE55dVrGAT869t7yDc3/gEXzBaBR5CO7a7Q5wce8X6Dvz3+qH/QB0M/oVVIO4bn/KD0cVpik1P8Y4wD7Clo6BjcEujqfHTh6NowiTnFmihwYBQA81OA0GrndwQpnHAumNP7Q2A6CUAhEUDkC+EG4V0b+au/KQUKd0IqHX4TOv+kJBjmoYtLBdNSLH6Ui+dVXd1IL0z5ttJLuTAeGHcMLYgb6NHKH/WQMlo00/AOt+UrcczP5W/+EtdwII5MgziVeEijo2IoTY6QQUuMjv0P097RSNkr9hafR4oR7VjzlzZGXo3h1ow2/bfnB+AH/KH00c4+fOPfrg6tuktdwrIlvaYlj9IP8KyVvjcQ/H6AqD1zG9w8MLE+VWeiwHAKYDdsq/NLx486Dvwwqh96PwBOAiBNEhhZuMLNUS/LH/omQDoK6BSIKR8qmAxb/kwXKZ9a2q40EgYBz7oohKBBWJoN8HhhvfrBhwsDAPGH0CKsW5C/KWFXv0gBd+VZxFf6VdzIi4o7wZd8f1qjpvJWpc0lENDN80UW1Om6Wbj7flEe2h7qNp6kMlQ+dX4er4Knc1zFNZUT5Kf4Ky4tt/ZD4qJQw2tuiW/GivhFdWjhYW0iI+rFcTp+B0V70l38Xnlv4ht3CbTaIqg34kxHAofriynmgVHgwoUL37I4OnqGgiAUEtJxKLwQH4/9DJkBQJxIqLCDAqJcKAYd6dfc9iogFVpFAbVGvYxPyFFpVuKdyi+nsThaJvPDLAAEsQpjoR380wawXB4VM0eEpC1oMeRURErPsiN81E/ryjS+TvR3+BFPQCp0PF1LRa4jbz+lzXZPbZ3pwnpqGOqs33SvC1N50a511zaIp2X3lZcMBpcH03SFpTiVdEzfGUfTqlv5K3ArTjWaMA7oQDdx4vcq7XyJy3pw/n7X/2CcEH/WRyHqhN+0GfDAlNpUnXEUaI4Gzr+WOguFiB+5uG90HAgMbAocMhOAuwSgALvKwIiwpvTVH+vjxWiUiotQFZ/4mfKmH6HG98qvJ8zyzOkwXd3Usz7FCyWJNWBsEsSsAAWRQggqrXPktrKjetDPw4ynpZUd5FDunGLHbnIq9i4FCZyBa6M86nVWwRu5WfdWmCq7xD/rl1Hkrbyobsf/qhQL3nXxirwZ1gVdvUan78o7h4VtEtU1G0psywgX3H2Adf0ht/TtimHAvQBFfYL6L2bzaTPgOJUxxT4wCtx+dOHo+4qOMkDAID42Berd4bUZgeJNgEreEFiRovN+xbPAOrIVZW0KrqIAbVQraehXTevzqnxDuRe0VGHvNnz50T8VIWjRtxGQ+BIa3qLkuZbOETs2nlGxFzhKm3QpgigNcY7CQj9Hj1acvnDiqvGGuJnOQSr2BDWf3FYt/KL0OV0rDyocl29fnhZeSReV49MMbcdWXjJzAsW/7aN72zQYsDfB6OLajf6g0/zC/OEDk+lTdSYKjKPApYtH70+dgkILHca52WkU4tEg3BTYNRNgbwK4/Ch8EpzNb+GYn1f4/lvvAqDyK2YEsgIMw7LSNmVJJa6GgLgtnvi1ymIehFevJyWrNFrH3bcMgPphrwBH7ukMeFbwalisU3aYpqKMeuN2pesKqwjsgidrcbx/5rtwRN+FQw+/hnX3ZQ/5Zjk1XNSfccfki7gFDXjVMffirG7QQ18EnXB8b5tn9rep+Jn3v/vlD6wMgEr90YbTzYDjdMUU+0ApUFwV3CVgskBKo4zF8RJn/bteDkxHATvyQz5DRr0wBrruAjCFTWWcYct/iEJHHInn8/DfGrc1C6B1V2Gu/s4NeqAMzAQ89MrH0g/r7jAMTk3BR7iqn7qBv/92depUmFFa9VO3y5eGZGf+A0f0fXkgnOWRb/k9JG2KQyUe1GloXix7cJlCs1RG/k59WNy4TOcLzzxDHXoqEEsLmLLHc8owPPDDPoOTLjkgvaeP1hdh+F7Mjr56oCJ9qtZEgeEUyPcD/K12mmbUVF97bTrQPJ0MqC0BYMMgRyCat3dD0fkRv//ms8ChAhaFnRRy3/e1G+0jdM54UMVey9Pjgin3VDcV8BT6FMQuzGgh8UB70h9CG27EW/nV28XyQ3lalv/2YcRvk1DLUHetDKFBUQ+NX8uHaQmZpvLd0HJ1lG8In1qayKjI5aS2Ypnip8q3WjfiPAS6Mlr4M5x5dXy/64knkvL/+698ZWuKH4oeywrYTLi6w7/ZkIdvGAFQ3Ldu3doIDiyjj9bTnQDD9cQU83ApcPulZ196PjqLH4n4b3YoGgAQPDjzHxkB6SggBRAghVAW4sgDAnPI8bfvffO/bUbmHKGrknfK2xRzRxxT6jk/S+PysiUF+kd5Zj+ss5M+J4GkbR8EPa2cmlvp3+fWPBg38usL60rTl5bhHbDGk6AFwpIS7kjfxFsZUUzTyjfgV5ZR0F7KQh4pH+dXj9/0AZYNaIaG0rGFixzPy2UxD+MJwcHjjbhY6//whz6UlD9G/3/35S9vRPkiEywjQKlD4df4eN3XAIcgic2LpDnpQkj6AK9pGeBwldpUs3EUuH1+cf4ado4EKXRUkDg/du6P3PO8lhGAPQLohKnjaR7iRvqhRwFtVJ6VsSntSClTYeto38eTOGoQRPman0+D7yuPNVfPSr0KOsK/iw5dYV15Dg1TRRKlicqv+LXqlesW+vuyJE+M0KAAMPXcBXGsC8I8iqN+dIPXwFMFvaVcw9P5pTQe3+jbpbP8Mh26eD3FzekbJe/wZHkdZaCerCuUK6fOFYJmthGuI68nn3jSlD8MgC/99ReH6NbOOJjC71L6oDPw3/Y9AriRsLctksF49NXpgaBximKKfcAU4KbAIZ0HAg0dmgL345fvaRkBhYCkgMsQ6SAI+za+cTng/h96fDULQEXslTq+1S/4NmWu8ZgfYRQmeaWb6vLVrmmkoUo2cIOeOrJL9NV4Spuav8ZZ1615q3tkfsCfyhsCXRUQlAAEPH8nXdPt1Dg9gcQBEHgRTypSvFLX2RY9dOlMS+UrdE7xc79p+k9lJF8pt6e6Fqzr4BGO8OO6P5Q/fn/1hc9b+rEOjPZhdFAeRBDhiHdaf2YECS09LYAnHko7YJE+VW2iwDgK4NEgU9x+xMLOROHG77xG/Yl7n18YAa1XAYN02NxGJd8F02VAkYKuHAtsTd8HaTuNAc0XF+JA4d9z/2raPdedws5oJjRRP8TT75bb00YURzIymO9Yf6brg/mmNyp2jLyhMLF2S0V6WsL7tMuBwvz9T/7e8n3veW8awV69cqV7FkHbQOm6OE6bNWHUgl+wvIU9LtjUGf3Af75taSRwFsNmC2bzW2N26GMmoMVjwDXzGcqh8iccuwYPvuB6O/tBBMFLY3DfRPtb/X2/0vaaTgOMUw5T7MOngN0U6DqKt55VuLDT3z2fp4uCuCcgugtA80E6CLguxc8wCFCM7k1pU6ETyqjd4mh8CTfjQEb1tgzA/AivPGYv92mdx7i1zmPSnTSulgs3RrwY/XL6mMr9rB5x2YSg31QeMAKoCAmf/sxn0qgVG+W62gIKH4r+u2/8T4N4mTwNCAO4K2/0EYQDQuEO/UN92L+i/MEPGJGj7Vnff/zmNwdlD2UOpY78u34wDs6KtzDjU9RbjLayX0ynAQ5fq001HEWBo6Ojb8MxGetANStaOhXj3je/tPzk/S9IdwTYXQDOmGBcQih3FYqRO10GNERhd8WJjICs6NVoMAPh2o1w1E+8DSodSKsMOYJLQkdGYPTniMzy6qIV8/ZxpCxs7sIoHiMgjOA5JT9Isp/jSJEBQMUI+NADD9hyAdqyab/mJEHEr0P9sAfG8hL+SPzg2httOeYPPAAFHeUFP78PYMhJACj/vlE/ePA0p/sjmgBPq7vvL+57Og0wSj1Mkc8BBW4/evbRCwcpJdeZ0OlwW+Af3HdvOiao1jYFEfNFXAi/IQYARlet9f0e5d0bn6N8Qp0xgF/w4h9x93Up/B1NNIz0MIMgje7cW+YU/AKZB9NDCHMkD2E7ZnQYCczz7tdnAKRlgaBd0R5DlX0UDzMHQxQV4uCSmzF/GH2TbwqY+Qp1UiOn7yQA8oNyBy6131lM99dogj5S1JvtJwY76jGdBjgHGm2q4ngKYINM0YFEIakC86NYdCoYAekyIKZh5wvgkKOAdhtgpPSjkb34FaN7zhAQUvkD4qa9H3o8/fACIa7V9fUvvoO6FOGsO2Ff/CAcm5mo6DECPKsp1ZqQPRR/7IKnMgSNvZu72619c5vCgI0U+1A/GL8pzxqPiD+U69i/ZnNee7MhyoQyZz0Bu04CUPk3fb1tAGC2AUbULv1hhkNpW8y0SF+bLgUarxumFOeDArcvLs7fgk5vgk86TstP4sEIwHJAK44b8aJTDjEAum4D1Cl7ruWb0qeCp0HA7ww1HpS/Xk0MN3Cr/fwGL1xYVBP8yAvCHmmwQSyt/Sbh3syCkE5Yo+fa/C4J00PHRQ0AVYp0v/Md77AlALSVGsC1Nh/qz/zQZ0xJSV9qwpsjdGPbActAnDUiJK/hG/scWMfaSQBMp0cjf/jtouInjbCxU+tKOdamw3yJu1DOh0ifajlRYCQF8Hxm6jRZ+TdCqnKOmQaCjFxSJ8zfTKv5DbkLgLcB1qb14a/KnIZANT4NAZ0JgN+1G2kzFy4fGirA140HQ0DpAAEFgT39nT4F+gyAX//Yx8q2Ip8PeMWxjz+wiXDVL+qnRTClPfaPmwGpCD3Uy4BgCPiTAFzzRzoofO4vGbsfYSzem4iPumj/Urenw6XZ/IMjxeIUfaLA+aEAOkjqQF6xiyDUToXRjH5Hbo54htwFYAaAKO5Q4Ut4a2Ygh7XSaZpsEODYYdeIvk+oDwlHGUoX0ANTzdPf6VMAo18owGj6H/7YZ4G2Yh9o3MNPsXTxA+6VQNtr3r4slrcOZfxauJbzpjf+tM0AoJ5DTwKsg8dpp0Fdrr7yVdbHtN7qTrS9ePS58yPNp5pOFFiDAouLs4+0FLtOVUbGgfrRTZiNB1yj2yUgGWaKm9P5OnpXPyp0r/AZn9CHB+mw94DlbxpiScCmfDMtsAQw/Z0+BWgAQAlGvz/7kz+5BUUR/U7KF81GwHid3peHEfnYPywptfptrotuBITxs07+Y/E5rfgwALB0k2joZI6nK77nz5rP1xCLU5KJAueGArdjx2zUeVp+2TBIlnYWNupmfPhBCQ4RouG0PpW2GgC6HOCUfZoVYBpCxnF5sDwo6m0sCeBkA+mQYL6M57QE5FTOigJ9BgCMgtaoccQ9Fl38TUNQecGXhTAo8XVOe0CxM2+f71133lkYPH0nAVYUi10wIIAjlrL4w+ZF/PgNyH0u29w4+N//4R+WWLph3bsgaDvdCnhu9NhU0RNQ4PbnzOY3U2caYFUzXqvz6czBwHXUdB1wVtp+NsB/F2v/VPSEaiDQz+fr/P0GwS6BPiaMa79Kn1i0Tr7bpIAaALVlgKQ8dRYg8/+Y9o7iYqnJ2t/1C/Yflr3u+Xqs33MTnJWV6/Lnn/2sGQHrKGSkgYJvThy0TwhAufb99LTLOkZOxBswRlA3lG11Vvqqu6HFzRPIxSnpRIFzQ4HbF7PZU+xUHFXYdHa7YxVrp0wHiM6JdBgFRcJR/dJ1wH6UTkWt/pFfpPQ58md8Qs1L3DAygAMuJcLSAHb2n3RmQGlBeqwjhCMBOPkNp0A07e/9/F0A4Puhs1fKx5G770ZA8sbYuwBIAezWV15jn4XfU7/127dYVxhCQ/+gYHnZUJ+CXyf8tY++Ns0UrNsfcLER6vWKl760qLvSQd3TccBzo7+mim6AAquZgLw5iqMU7VQYdVBQhuF5FDLKABClXIz01T8rc5sZUOXeFS8Ia5WhxkR2494A1AHGwct+4p2DjQO8L+BnATY1AhoqyKd4SxsBUxFGMBkAbtYLii1S6EP9YECCb1rPSVf6zbqbRDFzAFyLvpn7Ht5A0Pr6kwARf0D5Y3PhOopd02Bmgo8zwbjBjxdbYSbmJH9YzkC93vqmfNdCrm+igbajuKfjgBvQDFMW54YCq5kAdiI3+qfSp/BJ3y4uFCAUdZ/QTDMAVOQdCr6q9CPlzvyiMFX0Gg9xe37EATDNGjz25nS8EMaBni7ACQjSBoIJ7nWneU8iLM97WlWAtSUAGADkZ7YVeHedNwB4LwT5CHwQKWffX9Y5Coi2xSia+TPPpg6ztFFO6z/kJACOAUJZwyChAieEH5W5Qhi2/J0Gv6HOqBeOOrKutWWQJny+xL0n50Z6TxWdKLAJCmBjoApGChqO/qvfeeYA4UMuA8JIyY72qcJWt1fU/HaQCro1unfxinANU3dX+RVDAeVjX8Edlx80wUx6QWhOf6dLAVWANXdzGVD7/oshs1c0bqH4bSlLeAN3YVAxh30pG4cwENf9q+0D0JMAqDtG94fwx30duOxIjWyTRzojsHJP+wA2oRSmPM4XBXBEMOpYQzoeRlGjDQCngEOF3hUnUtqM3zXylziFcdCVJgv6AsfsB8FPukHwg17rXPl6CAL7LOtQU/rqb1fLrpTFLfBulwGAKX6O9qP2p0GLS6HIB4Q0CPgNCP5Yd00cI/Qyr+YNCqyRo56c+RjyKNBZttXQsrXtkvGTBxxosxZt88zlYroP4Hwprqm2m6MALgtKAoZT/CIoObpthee4Q24DTC8CZgXcJUxVMbfiUYETquJWo0Dd126sbhnM/kW+kpeWXRw5zAq/CL96ffnc7/zuQiiDPhDU09/pUoDKgkpQFSLD7Dpg8LXwOEb0UPL4YXkHEMsC8Dc+qfFI5qd7XnZ1NUp1y2iqtOFed48IDMvIIIcf6wi4roFxui3WXRqWMbROuMHQ6i5tR9rqrMvmJOKU00SBc0aBSxeP3s9OBWidTo0BcSMcFvmQ2wDTi4A1QZr9Q4HLNB6qkld3FI8KnGH+m/4ear5MIxCC3+iVBf+667zdInEK7aKAKouam2vJ1l55RImb/GDYkfcIk7Gn7e94o4jX8fKkjlbRX9ZdIsLeEuJe5lm+CdD1KFAXDXcpjCcA2JY6e6PKXulAeTVtBDxnSmuq7mYpsLh48Q0rQRPvPGY44WADoEOgtgRuFFcENadfCQuB7IQ140QwSmd+UT70u3p9WRgAYhjtkjA9D7hQUXioMwI4Lkd+VUgDwPhPDLzkx/YmVL4Ut+aZ3JWZgHWXiFCXmkEO40Drvu9tzhMArFPRdsEMgNJ+fmH+8GYl4pTbRIFzRoGjC0fXFrPZN7yFjalT62zZzVkAbpSqQXsSWIRmVdFGil7SFYK5w7+Vfy1fnwe+vZ8qgBzeenI4z5rsuwDeJ/xx7I2KAlCVvvpDSZKfCcHLMOIK5Y92ZlsT1vhGwvlCpPUPMQjph75ykiUi5KO487vvUaB9ak/gyg2A2n6kISHljqfHZACcM2U1VXc7FDh69tELF7P519jh+mBN8dOfBoApZSpZVbQUqIQ5jqWhf4bm35eHS2cC3/lbfvRXwR+VcfV6YRAlYXSCdd59E9S7gK83AFRpqLsYRYpyrs4AkAcIo/Zn2LUb6S4Atr/1lWC0et/lF6xNNt7WZ/nnemB/A+sKA2jIUcC1kdhywlp7YrMjlX2LztKekwGwHX0w5XoOKYD1NAgbdLhw920e8SKMir4GcYbeFG8gTCPlG43EzA95BPnAz/KqhDOPMF6URgS9L9MLY4xM1t3otWXZepDZq8Lwo3/91jV0thnaymYA0Ma1dlaecPxFHuJlQByZrspodus3/ah5NXDdo3p6EkCVIS7LoQEAuM8nAUAb1kXbDxsBPU1JA/oDTgbAOVRUU5W3R4E0CyAjGbO+xQ8dr+s4FYwCMwC8kIVw1Z8Pd98UuCasVTgzrvqpwGY4oYsX5ilxrGzxi66BXXej10Fq6C1XSg0AKo4ajHi3NQOQecPamrziofAA+CZdBpT7BIwAVUreva6B6K8EZr7+LoB1HgWCsoWRxEd/UBau88WPfvoQEOJv448XAPk2tHscZLSP+vs2nQyA7emCKedzSIFLF+eftk7mOh8FEGYARhsAToCa8qWgVcWtceHW73UEdpDel99SAJVycR1woo/siVh3o9c2BOqh51kzAHT0SGVCfiVszQAoX7C9lQ+FNz2/6J0Qpph0z0zuOygTinadPyhgnzfy8wbA0KOAuBEQN/8hj3V/WJagkYD81p3dID3YVh7iZUDtZ2xDQoShDpMBcA6V1FTl7VEABkDqZBzxE9IYyN99BgDOV3Ok75WrfasA7hC2Jnw1PgW2pIvyHeoXGRlRucVtgJkmJ9noRUE4wWEUUAMgUvpQJPSnAkkwtxUUd9HWylPCS+Rd4wENu3ZjdSeE7x8ox/mtO0MEBQslR6VHCD9VmH2PAoEem3gLoGY0wCiAEQx8x/zhCWCtB9sNfq09HJmmzdLkiiaTAbA9XTDlfP4ocLsZAFT4DkKYohNCsdbW/+GfDAAnNE2oqtDVEZf4m+KWPFp+DCOU9Ca4a37q790VnIC/H/lBKE93AYwR+yeLqwaAKo/IrYqfyhOXOSlvdPKU8JWPh6UE5tkFoTTXfRQISwc+70YJzwrFibrX/jBC/9hHfzXdR4Bpfhir/HGTYU2xr+OPW/xQzhBjwB//0zaM9nBEtJjP5996/sT0VOOJAluiAN4K8B2tOA6YDYK+64BbewBUyVKwEmoY3PpjHEKG5W8vmFNaxiXU/OlXS89wSaNl3P2iR1ZCWUZ6NQE8+W+WApEBoCNHVSKtGYDFcTLgCh6Rdoa/tXXmM/9N4wGbCaEgU18Jpv51FmBdAxEGgJahBg3uzNe6bvokAMo+6a9raSJqR62PzQBIHzOait+WxOCU7USB80mB5xwdPUnB2TIE5BRAnwGgSwAUmiZMAyXLOAky3EMV1gzLgtoL9aislp/LozM8x41GfhDSXcJusyrwfOdGxVFT+urPO+XJx2inNANQ4yPyg4dB/JgPVicAWCYgyl33r8xnlT8UJBQm67tpA2BdfIem093/VPysC76jGQA1gDJdv3g+pfRU64kCW6LApYtH74bA8p3NrO+BMwBmAFCYUlHnb1O2Ilw7/TrS0Xiw9Fom3YQZj1ZcDe9wJ8EvIxAKaIyWpr/tU4AGAJVGF/RPAqOtWnsAclsbPwg/kq9aMPMQ256wWZ+erWaI0Fcyr6xrIKIvMn+FUJBa95Nuxtt+y5UlgB7AX5W+1sdmALgEGfQ5LFduSQxO2U4UOJ8UgAFggiaY2oRAglP63rsAACAASURBVKDruw6YSwAmWKlUCbMQNeHqv308FczqZjxCl4+VH6VxcXtnEXIZRp8snEATrLNOf9unQM0AiBQJDABrq8zLfg+Ab/OCH5WnvPvajZS3zpapm+U2xvT6d0VwFkPzhlsvA4Li3Ke7APzjP6r46X7fe967ajvrZ6sZENAXD5qdTyk91XqiwJYo0FwL3Iw6ktChBQ4oVnifAcCbAKsClgLVw0hRM46EdSp2jS9pClwYpw9q+hwXdEgCnnA2v7XuTu/tq8zDKkENgEjpQ4HQv5kBKEfQ4FvlA+Mjxwfe338jD78jHTxhfUb6CvzXNRCLl/HYFxfHLQNg3RmGs+COaPMf24wGgL3mmOkY0vri/C1bEoNTthMFzicFcKwmKTcRNvo9dAYgGQAUqqJEI0E6xC+Kw9GahUk5DPPQ4gpu5uc3geU4Go78eAsc6QKaTEcBT0eVqAFAZVGDaQZAjDS0E9rO84QaBC238hTc8q2XQukInXxBiHLXvSsCfMV8CFHW4697XbEEoDTAsUC8EsgfjAMoXfwwU4DlAhzB8z+MzEFf/Lb1p+3nlb7WQW8CRL1BQ9afcDoCeD511FTrLVIAnSrqbOx07Ix9MwDpOWARlio4C7co4lAw1/LQdBLHK+tUloS3vjWfmlvTX7uxxGVASg+4JwNgWyqjzFcVCBVGTZFEewAKA0DbtWL8tXiSPBIYgp4n9Hsd/kBdkc76o8wqoG6s/7YgDAkaEzAivCGhRkVkWNCg0BZEvC582ZYPPfCAXQRUm1XZohicsp4ocD4p0JoByDMBHOFAGGE6Dkqw6x4AMwAoWEVwQgnXFLX5u/gnMRosTxH4kV+XsNfyo7sAQJfp73QoAAVCReGVifqnGQBOy+eZgGQAKP918JnxCOO4dJwJYt9QhZ/cMvuAM/dD/qD0MUKHskXdWAeftzcAtN6eJrv+7XH/889+tmVg+/pPGwDPp36aar1lCsyfNZ9bZxMBRj+zxv/pFbwuA+DF199eTJfayFuUsCpVU74IlzheCPvvIh0FtYeSXxhfw1XI///tXe3LZVd9DfMX9GPAmXvPPJNCiGleTJtKWkNSWt8Yaaa0msgUgqZQ2kqd6qcwI2SklNZiDAj9VJMaP9gKhQFFEgx2BGuhaoPfRNpGsB+CkDFhSKzwcNu1z1n7rvM7e597n/vcO/M8964Ll/2+zzlrv6zf/u234M+0WEiW8Aj4HLeV2MsQ0lGMsyyh4dKcPHruBNkxDQDLN5sof60DrFedf0kTpOtk2GZojmGJ0XJpbrz0DXxGDYdIqAdxx7i1ZyzjX8qr5BfzwnoJClXa32ib8wLADROBs99dBNhh0WRjnLtbLcCoAHD+4/O51lIn2nWmVUIPne2gUw5EPchHw5kXzcL7lNLzmTGsvAd89ZXeY8TgsCECkTDgLhHLpYuXBiNJzNv3SL1UTwr1g3VB02ZNkAiCaCvQkLGt0IQggnfUH0b7IH2o2UvfBL/SN+AZ+Ne+u5bXqv4R20Xu+JwYn+E1/zj/nzDsME590f8vqsRi5d3tof3lRmCDCLDTotmuwO32N8s85EIBoBspsfPMRBr8U6cqnW6OR8KumZJGO2Y+r+e3qKOP78RnRn8cB/xbjww6eGC16qUvSgq2L0ZgEYGQWOJKctbnXD+0jDt7rntSt0p+yCNrgrhglibbCM3On2dFYLRPFT+/pWb2bsUL+UFVrun43fQ7qJvpYMa0Glazr5ImPus/vvvddidF+FaWHc0Ndn/O2gjsNgJoZEnSZiMMIxyuAxgTAH7jQ3861wAUOtrYCedOVuN25JvDpFOO6ekejavpVSBQf30+7TQZr7gHvEnnrS+mL8c4LAI1Aor+cfTMesu6MjBRvixjNSv+WQMg7SW3HQoDnYlnf+mLX0wr8+N7jrmH3zDfC8/TAMfSHyRsEYHH8OjWZ60apvv/2QeR9MW8sts9tL/eCGwQAWlo+7UODf6/82d/WV0ImASAruPMpEwipRk71ujWeJ0954W4hfBqB75k3Jx/fB7Td2bECO5VL305LCHuWnolGthrZJM1AELGIGKtI7G8tU6NhSHeXQ++f8b5+FJ9SH4UoifNPsg8vnt8//gtpW/gs+JpgMw75rHIzXQlM6YtxRnz0/Rqr6XJq/+lzCKOzanm8Q12f87aCOw2Auxg1FRpnCOpsSuBU0dK0ozE3rlTB8s4y5pC/GMddAyL7tzRx+fyXeU5iTCCxqC0AGzVS192jcAP+72YM6+Rifr3Rs+ixXrH2fN94ZFlXqoL9NPy7/zKa0HmI/R++2lmWNBXI76af+0b0B7/7vOf7+Wn317Lr+Qf00V3TBPD1a32mK7k1vgUdrSvUQxp9w2Au81P/voNI5AaGkcu0nGyAdKsCQDv+fjfLL/NL3S+magjAbMjphnS6aguk/tInOJzmDdNfYfg1xMAiNWk2dwJKodlzS1KP7ZoTkkGKvLe+pVuVAniLtWXYp3QOqB2aAAW3QgYRrG6dU+JT98Zdg0jKbLNqYmwmFbdmo/6HwV7fDfM/adjj6Ut6bcm+95tM9xWuuHuz9kbgZ1G4MSg4YWODOHoWGsCAKYGSh1sJuZApr24HWnnzriLm92hE9a0o3E0XfeM/D6F0V3Ki+9JU/LQ+V/iBc0IOjb/NotASQCIhAKSg4q8NJoEcad6I+WpdSHbWe7R7NLd895Hi4tB5/Vhrg1A3VABIJJw6f0RBySfj56WtQb4LhUAaulrz3nha1+fQUACRs8/++zsqYsXU37QOMAOE++rf2gwGAbtA9KCuOMz1K3vpXaNAzumz4BbKq9ktjuNtPxg9+l/O81N/vgbgQA6K3Zi2VRNQCel1wSAfBNggWhrnWsmb3a2Y2m14x6L1+U1yFufofZSXvosxj33kdmdD/z2YI85sOJK781S4G7nrgJAiVToRwGApEIiTRoAlqUKf1LWuc6IH4SG7N+lz+2DQrK0k6h9QLuKxMd3jf509zQAYXSMETMJm8QME8cEK3HDzrl1YFH7cz0Dw/FtCbvuufSPJvLG1j0IBYsEAn6Xmlj4p89JmIZvbd+l8fW/N4IA/IzdRkAbfmqM7Nw6E411TAOQTgFkB9uZqeOkX6EjzSMy7XAlfhYcNC3thXixo8756/uUnsW8ghnzK8//eifAjRBNVABQIol2CABaf1viapLqPtUHlnGpHohfLPtcF7vdIOkZQvx8JgVpJTe84yLS1/DeGgBph5pntKtbSZ32kol3RrqYlv7ZJDH3zPb6cKSFIADtwqLv5Dcibn5u/D5x4/le/LfbvOSvv0EIsONCoxv82fAnzX5NAwD/QQeLDlU61UjIqVNlhxzMQQc8lg+fQzPkNXiHLjw/I+bN9CG/rP4NHf8nL3ziRnDgTj8Dl9xEsi8RDkajqf5KnYUb0ze9eqBlTDvNUO6x3oJMB20E7YbPpNkRLMlx7P0huEDdrqP2/AzJL/txpC7PTUSu/mJnGNNH98C/8Eyk4cgfWgq8c+mb6EfCpxsmsLjrjttbTZo+QzHt/PcmHv3foO7fj9l1BNDY0AmgkWc1pjRKCAjwB2mWzgL49Q/9SepgM6myM11kdp1tTlcj40o+OR3CY5wRbUGOG56X81N/yZcdpZqrXPqy02y+wserBqBELEoyWja04wCfngAg5buozJFO4/QWg5YEZvFDe4pEyff/9tWraX5dSZ/EnExpf/wOmMuEaRy1Mx/60aS/mphGgFACdT2+IR5CpJjzm9Qv2jFdAPLPgpLgpM+l3aP/XWclf/8NQwAXbaSGp1J5oYFiJFU6C6DWucbOk8SbO1SSq3TIY3kxfS9OKQ/1k7zzc8Uv58k00ZS4eh2sjgRX4DQnOQACNQ0ASUYJKJEa6q4QaNQA9OqBlG+vXlX8eSGQCsr5mdpmurYE4gPZg0Sx+E5H+pkM2e7knUmEbJc9tz4nfOuieKV3fffDD6f3wvvhXYnrKqaWBdLDjXUKeG77l/VG/O7wPXunpi/fsM7PDzICu45AFgBiQ5zMVzWzY3n7HXfMfvW9v58FAQgEvQ51hEAz2aJz5T/GD+6cd+ef3IwT89DRGuNEM3TsMf9IAjn8kceL1wJDO4JjXv3bHAIlASASDcmK9ZQmSCdpAMbqQRemZZ3tIR01AJw2Q/4qDPC5NOfERwKctymEIR5NpimZKU4nIKi9FHeRHxYTYhU+CH9sZE9M1VTc1a5xaIfQoxoOFcriO+o3nX7b6bt3vU/29xuBG4ZATwCoSOXaYNHhYTQMQSDfAijEOug8JSwLAaFjzWk0Luwlt/jldMyvkCbHkXT5PUL8HFfz6+x3vuMB7wTYHM9Xc172HH0QD1TXJJNkTpp9XglcFTqXqBesh9AmkPxTm1jUXhhOMxK++Gt+rVAho+UgnGt71HQ9e9AogIyhkViW9JXg1U6CV5PhWIeBaQNoFYB/LIve+xW0F77174Z1+36QEWgRODNprgw6lELjRBx0fvyjk4JUn1SsOG2NZKodqtgzuZZG6kzbkW2OWyDiTN4aJs8phjMuzUXxC+Ft5z8fwREPXGfq3+YQUAGARFMiHwoAbbmAfNq1K70rgVn+NbNQ7loXqxcCCUGT9PgeMPnXMPqVTMbjN8zd4xqHmBfTwZ+j/hp28C/hq/GjHVMGPFcAwhenNfS58Z1qbqv+zUhG4CYgcPrU9HKtUSb/MJJgXAoCMHuCQOxc0anyz7DoVv+CXTvhQV5d/Byn0IlzBAezGG+J96mdBf/ppy5vjv2cc/UmvRJZYVtaqo8d6cJODYCWe81eFB6lPhVvhuQovtJO2F5IjtlNwSCkw6JcaOVwCh7aJhbE4UCcwb9pfgndBf0xeh7kzWdk4b0dlXORH+bnoRWAun7sj1E9zx5AWh3hk+xhJjue2WGiYdV3S3Gn13zk703o/P1II7B3qrnQa6ihQ0LDZbg24p4A0HUwSRB48P091X3ubEns0VRSZph0urlTDiQ9yFfTlPLUvAvhMb/orp0F4J0Am5VSfvrqq0svTMsH6Wgd3rttvksk1JFe3erqRyx3jcM6UGoP2jZqbabkn8geRH+yeajrjU6s0iuBQCE81NYk6DvTPm/DLXnDf/F/fg4A2ju/iXnSDXPwLwhLe5Pmdc/7r1LiTmME1oAAOh4dNQ0abakhL/DDGgGMmAejde2AScg0S2GL/Erhmp+EDzp2CVMNQX7nGP7I473RJUc5WFTl3+YQUAGgNOpXtXQrALQEpfU4kzjrBs1Yxgv883kQY/VfhY9CvL3J9BpG9x3hr0T2tWZfbcskXnmfXptneDK7tQc9v3bqiySvptoV82XsUPt35L9WHGr42N8IGIECArGxolHXRhI57sKOrkmLBdNZ7OxYO3OMjHMYR+lMG93RH525dugMp1kLr6XRdJ2dI56MQaf58E6AGyMAKNmrMEA75qNJSCgjkBzqcRbqCmW6jHCQ66SeBtgj0/7akPbZ/TaE0XlS53eq+0IzXIvX2FSAYtOvw+2OhJJfSkMtYPxmcTPt4BkiSDBOZ16x2n8tRe5MjMDhEOgtBJQGy8afGuyIf2jYA9Uf5mF7gsAYGSshx3h0a5xCp5477AXx0PmX4mY/5t2Z+I7St/pOgM0JAD977bU0BUCSVyEg2nHhTSwfCAF6JXAuWwqUrFNdGedwln0XjvqLOyFy/iIAZ2GZhMi20rlFvX+4hrpk6ryzJ7xHfne8l4apPYZVvqmX1wHiYNQ/PTk9t+SnOJoRMAKbRgANMjboHvmzgS9jSsfIPDkSA4FWL2dhh7ukmTvqRSSvHX3MO3T+eTRI/5CW+8DTd3XfiW/73Gef3hwD7nDO+/v7MwoAkexLbixkK2lpkvCp9aRmR/04ez4JqyB7bP385dvvnJN+of4PRrwhDurHpttvzD+tBzg1fZntT+trzy+8azFM2vPgWyk45LbQaj1iPknVP2me8Vx/LCm7jcARQaCnBUDHwMa9TCdxwPjoWDGf2iNckrN2zp1fkew1ntpL+Uh4zovxaAay700ndOkH+8A7bLDFyr/NIBAFANUEqJ0CAUgqElVP6GR5d0SPtSooVwinWLsCwiaBqT35CRkyDsz0vNgGpP3crCbe3No0EO67nT5XQMT63oM2Lu/ci7dsH9BNu3S7GJ5JUx63Ns0tt9ziOf6bVQn8XCOwDAKlUQM6wKze1M6vZi91FBq3C2fHevs972wFgQL5ZqIG+fLPzlsIHWEaN9sZN5rMK+TRE0YqYXf+5nszObCDxLc8+MC7NsN+znX2xhtvLL0LAEIAy4Umygejeezhh+CZpnGkTiKc9ZFpljJJlpJXKR3IcJn2dwPjnIBggGkJEPSZ6fQSBIR2N0LzTZjpfpDKd6XRPLYptkeIX2nTTi8nQcOn+N3AYvSjjMAGEBhbRFTq4PLoh+Rf6ThS2tRpDjvcLAiQrEnSdAdzQPIVws7xKvnl8JB/FgaCP0aSPbIgCUyafXP1ZhBQAaA04o9+OK56UCdF8OyVH+vsmDlWn8fSdWHH5HQ7jtBpas9CP5oIU7vGtd0IGIFjjsAJjA7akcB8dXNUq/aEgVonWfMvdJzomPPUgBJ6IOGSar7nx/iB9Ktkr88K9kGas+cHI0zggHf3QsDNCABvXr9+IA0AT6TL9fMAdXCpNJX8Bu0jCYfTaxhtH/P+wK9vBIzALiJAQSB3jCTubuSbpwfofxCz0JFydJYFgY7MB0SsRK2ET3s0NX7Fnp8Rw9Vd2QYGfHwk8I0TAOKoH6p/+kEAqGkAegsEtf6pvVaHRduT20OvHczXDjAcKvZd7Df8zUbACGwPAmnOEKpMHGLCzg1mHPXQDSLPwoF2rmqvdbTdiHqgEQARBzJO7kVrAMbSjAkKpbB4K2D3PXhXHwm8GQHgf3/+8+o2QJI+FwDCxIJMraPL2ll3B/FzGVdWuBduzUQ7MflvTwfoLzECRqBF4ES3ZXB4gZCMkKojsBLpjwgF1Ahg+52eI5BH6yRpJfkgKOS4GkfTLRFf8+htBZTv8ZHAmxUAlOTH7DgNMJE46yNNKasBycewShrWx7h6nvU9nfKHY303fNiPOyMjYASMwE1FoN01gHsEmldKHWp1RMXOtkT8JT/GnzT72JPdO2K4ROokd5oSR4mcC/2yXyE+46jmAVvGyt/bbIYBdzxXnAWghF8a9avfpYuXDj0FgLoLDRbLuVSX6cejfSEY39QG6YcbASNgBG4GAr21AiUS54iKppA6O9kDmXu3zRcMFog7k7qQP6cLSqSuBK/hOR8+49xHZnkrYOFbQET+rReBKACoMFCy5wuBVq1jsVyjO+SLbXA3o835mUbACBiBo4RAu3tg0jxXI/M4skI8jqR6aVSIULt0vlDHYpSGfd1ZK0CiVuKnX80sxVU/2MXNG+Hiu+N9vvHii+tlP+eWECgRPfx05M84uA8gq+gTeffXo7AOst5hBH/PHb/yr088/vi/fO4zf3v1H77whX/Hv1cfe/VuvjMGcSD8HqVG6HcxAkbACNxUBLD1CTee1TrR3EFPmv28WFA62Wq6ECfPycK/0wokYSCSvRA4yHwwsi/51fI4e75/FoC8k48E3ozE8t//+aPqQkASP4UB3AeQyL0rF7WjXmHK6tfecd/3QPhffv5LP/jRD3/4BvOniTwhGOR62GkB2rraX+3vbX43tavxw42AETiiCHD3wHOZ8GU0zxEYO9nopn82JS3yy/65o28PGIJQgCNdsZVQhYES6Wd1P8m+G+3nuCo4ME5lKyCe64WAmxUAItnTrWa6D0CEMtQT1C2M6hkPRM8//dSEMAEhoVTPYr07om3Pr2UEjIAROBoIUCMQR2O5M43zrAWCz3FD517yBxln7cDebTOs3Mfcfe/+gY7QM9kLwcf1AjlOJxBg2qE0Grzvnns3w4A7nutPfvxKbyFgJGt1QwCgMMn6hrqgAoDGr9khAOxNJm/1ypn1lOak2T8aLcxvYQSMgBE44ghQEFhmZNUj9jGBYCysICxAO4Cjh6EdSJfEdKN+necvagZEQEjnyYf1CxQ6vBBw/dLK//zkJ1UBIBL4C1/7+mAXQNQAxDRwcwoBdmgHMEWQ6qDULwoUWjePeJPz6xkBI2AEjhYCWRCIBN2ba20XWw06XemQtSOOnfUgLD5L3CB0TBng0hicN1DSFKiAULsVEEIARqD+rRcBFQCUqJXI1T/XGRmpqwZA46pd88OCwDx1xboi+bF+Ha2W5bcxAkbACBwPBOZrBNjBdmZW3wd/drqpgx8TBJBOw9VeyZN5w8TzofrFuQNJ3Q+NwTsfSn9MJUCDoPFpRzqfCLhe8kduP3311aIGoEbeLA+aKBcs+FOCX2S/+tJLP0YdYB4Ds6tTx6Op+S2NgBEwAkcUARwqhP3UeeV1HGn1NAP9Vdg9ol+C3AfxFwgHnAMGieg/E0J41w+8533rZ8Adz7EmANRIPGsAOkEQbtUA1NJFgWJv0rw+0AKEOuab8Y5op+LXMgJG4HghMBAEQmebSXfMfwGhj+YR0pLwR9OEd0Ea/9aLwM9ee62nAYhEDUJXP9UQ0a4CgMZVexQMuoWASfBrBcH+GQAoa28DPF59jN/WCBiBI44ABAFcptI7ZpgjbZqBeIsjNSV0tSNtdMf8xtzxHUJevhp4vQLAG2+80RMAlKhLBA7ST8TflSHIWwUATV+yM88/OPd7L1L4A9nTrqYPAjrinYlfzwgYgWOLQLp86PSp5pvaoaMzjiMyhMNPO+el7YHAc7roL+70PuJmGrybrwbenABAci4RN/0euP/+dBrgvEwWTwGU8uVCQORTLe9TzYVj27r84kbACBiB44DA6bedvhunC1bXCXSL91KnH0foOppfEEbSOIyJK2n9Wx8CvBKYBF8zSeKPnD071wB05a0aAMar5UN/LAQE8Sfyr9Qh3wVwHHoPv6MRMALbgsAJTA9AK0CSro3OEB41BUyTzOIIPs7zjruRjz4fGoAHH3jX+tjPOc0oAJSIu+QHAYDlQgJXAYAEDzOmj24InFq+vfozafZRD7elYfk7jIARMALHBoF0nkDaPdC8kjrpyigtdtprdVc0Cpi39m89CJRuBIxEraTeagDmc/aoG1Dnj6XR9GrnkcC1+oV1KsemwfhFjYARMALbiACEgb1TzYWSZoAjOJiqERi627UFPQEhagmCm3loGmgBfDPgesifuSgpl+xK7kkD0JUTygJlhJP9NI7akV908xn5REAVLsWO/LFodRvblL/JCBgBI3DcEDiBDnl6cnquXTPQ1w6gw45kTTeIoribQDp8xh3EC5oA3wxI6l6PqTf1kZxrZm8NAMpu77YkACybhwoDmDpI9aLLJ9ulTngnwHHrIvy+RsAI7AwCaVvhyeahpCHAQsJT05dB5CT8TOpdp05/mKoxiPHG3L4ZcD3Ez1z0QiAlaLVTIOAaAC0fjOQZrmYpvYbjumDNJ9tFw+CFgDvTlfhDjYAR2BIETmBnAUZv/LdTCNPLZ6bTS+jUowmtwplJc0VJoDciDNMDJC+bh0dABQAlaLWTzM8/+ljvNkiUEQUAxtF0tNfCksAYyjbXAS8E3JLuwJ9hBIyAEViAQCcE7JMAqC2gmyamGnwg0OGJnznohUAk7Jp56eKlPM1DAQ2H+tTiR38VBDBtgIWAY5og7BRYUG0cbASMgBEwAtuAAEl+kel1AKTvw5t6H4AStNpJ5J968sl2776sywCJ6xoATad25qHmhY997Ht7k8lbg/KW/KFN2oa67W8wAkbACBiBEQQwDVAa+Uc/rwM4PPEzh3gfgBJ0tKsGIJH23m1pFB/jLevOCwEr0wBpp4FPBBxpMQ4yAkbACGwJAlgr0BsNdiPBrCbuFhPed8+95C+bh0TgIPcBZA2ArNS/9667/2sR4asmQO1cCMjphMEOkPY5V7akevszjIARMAJGoIYAzhzoCQB598B8i2EaFU6atL/8kNzn5LPZ7M3r13sXAilBR2KHAACSRhmhHCCYYQqA8TSt2hleMrlzhOUetT0+EKjWWuxvBIyAEdgyBCIh9EaFnUYA5OOLgdYjv/A44BI5w0+JfKAB2LtttowGoJY3/HkiIAWAkumrgbeskftzjIARMAIlBE5PmmfiKJCkwNE/TF8MtB4BALlEglbS17DBGoBOQ6NxanbNU+08ERBlDo0Cy5omyhp3VJTqiv2MgBEwAkZgixDA2QEt0U8GZEBSgHnXHW9fHwPueE410o7+WQMgq/ShoWE8JXa1M7xk4i4BrgFAuWeNjzwDQuEWVXF/ihEwAkbACNQQ4NXEA02ArBYHWYBk/Ds8AjwMqEba9P/nr3ylJ5ShfPAvEbv6Mb360f7l57/0Awh0ifx5iqQsMkzC4Knpy7W6Yn8jYASMgBHYIgR6pwIKGagGAHavAzg8+SOH0mFAJdL+yj/+Uz7mmaN2lANW85PQF5kxX6TFWQCaXyxnuLeoevtTjIARMAJGoIYA5nxLJKB+GBl6HcB6BAA9DGiMwGsagBe+euUXTKcEr3aGl0xqErjDIJVz0Pb4YqBaa7G/ETACRmCLEMAlQ5EESnPDPg9gPQIADgOqkbX6QwDQkTrV9lDja7wSycdwde9Nmm/l8q1ofLwQcIsauD/FCBgBIzCGwGA7YCCGNDfsdQBrkQBKhwEpQZPQswAgZwFAIIAAwDirmLwTQDU8akdZ+2bAsdbiMCNgBIzAFiGQbg0MpK+kADuIwesADi8D6FkAJeInqec1AKFccKQv42h6tZfC4Yc4uFDo5K23tgsMufpfpgBQ1qdPNd/courtTzECRsAIGIEaArgEpiX5ST59LgkAQgwQALwO4HACwP7+/gx/EnQ0lcR/8P3vD3YBQHWPS31iOnVrHupPOwQATi3QTGUtggY0QrW6Yn8jYASMgBHYMgS4HTCSQXQfjgKdGgiQjBeZiaA5Su8IGof56I2Ai/JAuAoFnQDwFgS6XtmG52xZ9fbnGAEj8kueDwAAC1hJREFUYASMQA2B05Pmud7KcO4TD1qAb7z4oln8kAhEAleCVkKHAND+27sAUD4QACKpl9KX/JAO6Un+FDB6gkA33VOrJ/Y3AkbACBiBLUMAK78TIWCk2Y0G482AIIpPP3X5kPTn5KWzAEj8StwkaAoBwH8VDYDmTQ0AyziSP/23rHr7c4yAETACRqCGQN4OqHPBk6bdiiYr0T/wnveZwQ+JAM8CULInSauZBbKuTOD+w8c+PLoLIOYZ3RAgBqQvZY4waAhq9cT+RsAIGAEjsIUIYPX3InLACBEjWP9WRwBnASjRwx6JGn6PnD07o7qeI3PcCKhTCKV0MW91t1MAmFro1gDIFI+W/RZWb3+SETACRsAI1BDYO9VcaEeA7W4AqqBJDCAN+GGPun+rI/Dm9esDAUBJmnYIAHPs03qAt6CBYbiaURCI7m9fvZp2EOxNmleiZkHLvLVbA1BrI/Y3AkbACGwlAtwOSNKpmZ+88InV2c8pe1sBI1Gru6cB6BZlRg2ACgHRfvWll36MbYNIA9Jv/3ILoKj+db2HtwFuZfP2RxkBI2AExhHACBHq5hr5I8zXAx9Oihk7C0BJ/Pyjj+U1GJ32pacBUGEB6XB2AA4KwkI/kn47op+Tfxz9J3da9DnfFogdIeO1xKFGwAgYASOwdQjgPvgeSYT94RQMQD7+rY4ArwUm4Ucyh/+nnnwyzdWzPFohYHoN8/j842hf/LNqPy/YnCQhbk7wrTuVH8uUpmgCED49OT23dRXbH2QEjIARMALjCKDzJ8n3TNEKgIg+99mnV2c/p0wLKUukT4EA5qWLl7IGAGWhZD4XCtrRPbU28Odf/XplGQi/n/f02ngNcagRMAJGwAhsLQLpVMDK6JBE8ugHP2gaPwQCpZ0AIH0VCloNgIzcuy16c/Kfz+fTD6RPO83sJ2Esx2SKPxaCbm3F9ocZASNgBIzAOAJnJs0VHRX2yKIbPUILgJvt/FsNAb0VUElfNQDPP/tsT43PckjEHlT9DCuVWxYEctmFOx/mGoEr4zXDoUbACBgBI7DVCOBUQCWUbJdpAPh5O+Bq5I9Ueiugkr7acSNgxn5O0kM/GcEvE19X/DM+zoDAYVBbXbH9cUbACBgBIzCOQOlUQBIFTWgAvB1wdQGgthNAtQEvfO3rvTUAwF5H/yyLnqmaARXYKCQUwrHwc7xGONQIGAEjYAR2BoF8KmBHHHnUSCKZNPv33XPv6gzolDPsBFDC19E/7SD8rMIX7DPpl/xGtAU5r0mzn0b9J5uHbrnllhM7U7H9oUbACBgBIzCOAE8FJNFgxE87TLhBJr4dcDVJBhoA3gkAsq8JAor5mB3loULaWFys8Wha4h+vBA41AkbACBiB3UOgubVpeiRSGGmCdHw74GoCAFLpQkCO+KMwoMcBp/LoykHJXkf1pTLDrg4c7oO1HZ7n37227C82AkbACBwYARwJq4SSiEbmlSEAPPjAu1ZnwB1PucxCwPY44OGqfWBfKxuUGwkfxzsfuOCdwAgYASNgBHYbgdOnppd11KmEo3aor/1bDYFFN/v9xZ9/fL4GQOf2g0YGC/lEre85/d1uuv56I2AEjMDhEFjmciCMRH0q4Grkj1S4WlnV/9GO0wAhbEXtiwpgsAv5H67QndoIGAEjYASMABBIlwNx5Cnq/3y63KTZxxW1/h0MAaj/a+SvCwKf/fsv9FT9PeIXLYAFALdXI2AEjIARWCsCUC33SIfCgJjQAoDM/FuMAIhfV/9zxK+kTz+YOAtA8a9pAiwArLXaOzMjYASMgBEoTgPIyJPkhJGqf3UEasSvZF+zk/Rh5tX/IoChDCwAuK0aASNgBIzA2hGIV82CcEhKrb2Z+XKgMvlH4o8j/eimEKD+73744awF0NX/WgYWANZe7Z2hETACRsAILDMNAEHAlwPNhYCxOX6SvJpK+OoP+/lHH8tHAifSx+g/aGGwx9811QgYASNgBIzAWhHQaQAddYL0+cfI1JcDzWZvXr9eXdynxF4j/JI/dgJk4hfMFXts2VxroTszI2AEjIARMAJAoLcbQElIRqLYDYC1ALu4IBDaD5ztrySv9hKxa3jJzjS4FrgnAAjmFALOTKeXXFONgBEwAkbACKwdAdwNUBv9k4SgBeAfJwTimOBtvisAo/3Sin6SOQmc7pq5KN63r17NawDmWA9OB7yy9kJ3hkbACBgBI2AEcDeALkBLRFQaiYp2gMIAzA9/8MNZIDjOawVwic/PXnttpif41Yg9+ivRq13j0R/b/z7zV38906OAe1oAwRllgZv9XEuNgBEwAkbACGwEgXg3AEej2dSDgvKNgXOtgAoEmC745IVPpCmDf/vOd+ar546gDaQPoaV2cI8SOOwk8eg/5ibhY8HfXXfcnlT+Y4SPRYAZ94T19NpGCt2ZGgEjYASMgBHoXRHcjf7bfen9i2mUmJaxUzCIQsHN1BRgFT9G+mPz+iT0GuHX/F/46pVfYF4fi/sGhE+tSjQx4qdfGP23/s3MNdQIGAEjYASMwEYQwFWyJUKvrg0Io1SmjfEpANRMTB9AW/DM00+nNQXQGGxCOFgH6VMogIm5e+yMINFjP3/+9g4buLMfz1cQk5jBRDwIXOrX+ictyysbKXRnagSMgBEwAkYACJyZNFd6BBRHpdHdjVxzmlJ4HNGOuKOQAK0BBIQ/fuKJJCBASADpQkjgvyYsQLXPhXyLRvo6moe6Hs8guT918eLsjz760TRfzzl7EnvfBFG3hA8zYdLhEd0Zrw6/HF5ypzUA3gboFmoEjIARMAIbRGB6cnouzj/3yGqEvEvxErFVNAXl+OU1BVEwWMb9yAd+dzb4nz07e+D++3tETfKFWfvjXfvPbFfp8/uiWfq2gd8yuCQBYnoN2pkNFruzNgJGwAgYASNQORMgjuyjWwWDGrGpf7AnAtU81mTvk3ZZuMjErN9Uez+NE96x+g0jaYrPDvlCKHO9NAJGwAgYASOwcQRw6hyIiaNa2kvz04nASHBKmiSxkh/DSuZB45fyWNGvSuAhP8UlE7jEKYXTL1/2U/hOxqGJvH0E8Marux9gBIyAETACRABnApSJrZlVV6oLAZbSVv0oPMT0SpCHscd81a3P1mdoHNo1Lv1oatqReCB2aCRqWGThoMu3I/8TLBebRsAIGAEjYAQ2jsDpSfMciEpHo9ldIj5ZxR7TkPDoTzP6070OMz6jt65BCZvfIibT0uT7RDf9a6bGV7vGV38KBziW2bf/bbyK+wFGwAgYASNQQwALzzAKXbgzAORZG/l2/u3otj76VVKs2hc8o5pOyL0YR/NdIBzk9Jom5L/wWwMmSQjoMMTNjF7wV6uR9jcCRsAIGIGbggAWo4GgcGIgSAtElwmxoC1gmI5y6UeTYcxP3Vmo6EgZYRglZ1V5jaxr/oGo+Q7LmHxuMS6FAXlPahz4PaV0DNubTK8l4r+1aW5KwfqhRsAIGAEjYAQOggDU1FgwiHPqSwSnfonsulEu7KVRMlXgmu5AdhIxiZ5uFQjEL78T46vZxdP3PMj7jeadhKXmdUyzeJHfQWqc4xoBI2AEjMBRROAEFg8mLUG7i+AK5rITESoBC8nGsOiO5M9wmqXwqJWIcaKbedW0CiB9xpmbS2gh8J1ZI9C8AiGp1Z40F06/7fTdR7EA/U5GwAgYASNgBNaKAAQDaAtw1wA1BiBECAiRkHtuGYX3/Dnd0JFsIuZOsFh2lN4f2Y+szqfGIOffnvCXBINT05cTsXfkjm/DN+JbwyI+r+Rfa41yZkbACBgBI3BcESAhZpOkCTOdQzCdXkrCwqR5jiS7N2m+JfYkPID8dfQ+H6XPT+rrhzevM49oYrFjK6BML5/pnq+EHkj9uGLv9zYCRwaB/wOYY2t5jDmFhgAAAABJRU5ErkJggg==;" parent="1" vertex="1">
          <mxGeometry x="652.5" y="-170" width="110" height="110" as="geometry" />
        </mxCell>
        <mxCell id="FXeQf5swQIMRkxGQJUu0-7" value="docker image" style="rounded=0;whiteSpace=wrap;html=1;" parent="1" vertex="1">
          <mxGeometry x="920" y="-132.5" width="100" height="35" as="geometry" />
        </mxCell>
        <mxCell id="FXeQf5swQIMRkxGQJUu0-10" value="" style="image;sketch=0;aspect=fixed;html=1;points=[];align=center;fontSize=12;image=img/lib/mscae/Docker.svg;" parent="1" vertex="1">
          <mxGeometry x="1190" y="-145.75" width="75" height="61.5" as="geometry" />
        </mxCell>
        <mxCell id="FXeQf5swQIMRkxGQJUu0-12" style="edgeStyle=orthogonalEdgeStyle;rounded=0;orthogonalLoop=1;jettySize=auto;html=1;entryX=-0.007;entryY=0.431;entryDx=0;entryDy=0;entryPerimeter=0;" parent="1" source="FXeQf5swQIMRkxGQJUu0-7" target="FXeQf5swQIMRkxGQJUu0-10" edge="1">
          <mxGeometry relative="1" as="geometry">
            <mxPoint x="1141.1999999999998" y="-115" as="targetPoint" />
          </mxGeometry>
        </mxCell>
        <mxCell id="FXeQf5swQIMRkxGQJUu0-13" value="stage 2:&lt;div&gt;push image&lt;/div&gt;&lt;div&gt;to docker hub&lt;/div&gt;" style="edgeLabel;html=1;align=center;verticalAlign=middle;resizable=0;points=[];" parent="FXeQf5swQIMRkxGQJUu0-12" vertex="1" connectable="0">
          <mxGeometry x="-0.0909" y="-2" relative="1" as="geometry">
            <mxPoint as="offset" />
          </mxGeometry>
        </mxCell>
        <mxCell id="FXeQf5swQIMRkxGQJUu0-17" style="edgeStyle=orthogonalEdgeStyle;rounded=0;orthogonalLoop=1;jettySize=auto;html=1;entryX=0.5;entryY=0;entryDx=0;entryDy=0;" parent="1" source="FXeQf5swQIMRkxGQJUu0-14" target="N1ZtOeC66JJnGNIzaDqu-3" edge="1">
          <mxGeometry relative="1" as="geometry">
            <mxPoint x="480" y="-99" as="targetPoint" />
          </mxGeometry>
        </mxCell>
        <mxCell id="FXeQf5swQIMRkxGQJUu0-20" style="edgeStyle=orthogonalEdgeStyle;rounded=0;orthogonalLoop=1;jettySize=auto;html=1;entryX=0.5;entryY=0;entryDx=0;entryDy=0;" parent="1" source="FXeQf5swQIMRkxGQJUu0-14" target="FXeQf5swQIMRkxGQJUu0-18" edge="1">
          <mxGeometry relative="1" as="geometry" />
        </mxCell>
        <mxCell id="FXeQf5swQIMRkxGQJUu0-21" value="stage 4:&lt;div&gt;run playbook&lt;/div&gt;" style="edgeLabel;html=1;align=center;verticalAlign=middle;resizable=0;points=[];" parent="FXeQf5swQIMRkxGQJUu0-20" vertex="1" connectable="0">
          <mxGeometry x="-0.1765" y="1" relative="1" as="geometry">
            <mxPoint as="offset" />
          </mxGeometry>
        </mxCell>
        <mxCell id="FXeQf5swQIMRkxGQJUu0-14" value="" style="shape=image;verticalLabelPosition=bottom;labelBackgroundColor=default;verticalAlign=top;aspect=fixed;imageAspect=0;image=data:image/png,iVBORw0KGgoAAAANSUhEUgAAAgAAAAIACAYAAAD0eNT6AAAAAXNSR0IArs4c6QAAIABJREFUeAHt3U+IJNed4PGmaYxoxByEET6IwQijwzA0iwUaJFSZoRZIyBUZ7V62F1VWpCi8i1iaZTCDMMMgllqGQZhhMGIPizDDYMQwIGOJqpQl78EY4ZMOPvRh0EEIHzpf9p+lMY0QQjSidrO6sruUXX8ysjIjI+J9+pIVmZER733f773ftyPzl3HqlH8IIIAAAggggAACCCCAAAIIIIAAAggggAACCCCAAAIIIIAAAggggAACCCCAAAIIIIAAAggggAACCCCAAAIIIIAAAggggAACCCCAAAIIIIAAAggggAACCCCAAAIIIIAAAggggAACCCCAAAIIIIAAAggggAACCCCAAAIIIIAAAggggAACCCCAAAIIIIAAAggggAACCCCAAAIIIIAAAggggAACCCCAAAIIIIAAAggggAACCCCAAAIIIIAAAggggAACCCCAAAIIIIAAAggggAACCCCAAAIIIIAAAgggUBKBjY0/PpSn4b1eOvzzkk7pNAgggAACCCCwbAK7ApCFnTwNX+adwT90OsOzy26T8yOAAAIIIIDAggncE4CRBNwVgbCeXu8u+LQOjwACCCCAAALLJPCAAOyJQK8z/Hgtu3FumW1zbgQQQAABBBBYEIHDBGD3akAWvs7T8PO1zvDbCzq9wyKAAAIIIIDAMggcIwB3PxbIwp/WV4c/TpKdM8too3MigAACCCCAwJwJTCkAYxH4tJsNW3NugsMhgAACCCCAQNkECgrA+IuCygbLHijnQwABBBBAYJ4EZhKAvbLBrrLBeQ6FYyGAAAIIIFAegZkFYH/Z4AVlg+WNmDMhgAACCCAwBwInFgBlg3MYBYdAAAEEEECgZALzEgBlgyUPnNMhgAACCCBwEgJzFoBxtYCywZMMivcigAACCCCwaAILEoCxCHza6wzOL7oPjo8AAggggAACBQksWAB2RWAtC1vuNlhwYOyOAAIIIIDAIgmUIQB7Nxn6UtngIkfSsRFAAAEEEChAoDQB2KsW6GYhrGXDvEAT7YoAAggggAAC8yZQtgDsVQvsuNvgvEfS8RBAAAEEEChAYFkCoGywwCDZFQEEEEAAgXkTWLIAjKsFlA3Oe2AdDwEEEEAAgaMIVEQAxiKgbPCowfIaAggggAAC8yJQMQG4VzbYXb3++Lz66DgIIIAAAgggMEGgigIwLhtcT8Mbnc7w7ESTbSKAAAIIIIDASQlUVgCUDZ50aL0fAQQQQACBwwlUXQCUDR4+dl5BAAEEEEBgZgJ1EQBlgzMPsTcigAACCCDwIIGaCcC4WuBPeTb4myTZOfNgjzyDAAIIIIAAAscSqKkAjEVA2eCxI2wHBBBAAAEEDiBQcwHYFYFeGvrKBg8YXE8hgAACCCBwGIEmCMDo+wHdLHw1Kht8VdngYUPteQQQQAABBO4TaIoAjKsFdu82uOpug/dH2F8IIIAAAggcQKBpAjAWAXcbPGCwPYUAAggggMCYQFMFYCwCa1n457XO8Nvj/npEAAEEEEAAgVOnTjVdAHa/H5CG28oGhTsCCCCAAAL7CMQgAOOrAXkWlA3uG3t/IoAAAghETCAyAVA2GHGs6zoCCCCAwD4CMQrA7scCd8sGf6pscF8w+BMBBBBAIB4CsQrAvo8Frq39/7LBzc2d0/GMup4igAACCERPgACE3Y8Fumn4w1p241z0AQEAAggggEAcBAjAXQEYXxFQNhhH3OslAgggED0BAvBNAdj9fkAabq+522D0cwMABBBAoNEECMCDAjC+GqBssNGhr3MIIIBA3AQIwJECMP5+gLsNxj1N9B4BBBBoHgECcLwA7H4soGywecGvRwgggEDMBAjAdAKw72OBa3k6eEXZYMyzRt8RQACBBhAgAIUFYPyxwB/yNHy/ASGgCwgggAACMRIgALMJwPiKQC91t8EY540+I4AAArUnQABOJgC73w9QNlj7eaADCCCAQHQECMDJBWB8NUDZYHTTR4cRQACB+hIgAHMVAHcbrO9U0HIEEEAgLgIEYP4CsPuxQBa+WsuCuw3GNZ30FgEEEKgPAQKwGAHY97GAssH6TActRQABBOIhQAAWLgDKBuOZTnqKAAII1IcAAShHAMZXBLqr4V96F68/Wp8I0VIEEEAAgUYSIADlCsDu9wPScDvvhNeSZOdMI4NKpxBAAAEEqk+AAJQvAOOrAcoGqz8/tBABBBBoLAECsFQBUDbY2JmlYwgggEDFCRCA5QvA7scCygYrPlM0DwEEEGgYAQJQDQG497FAGq51L7jbYMOmme4ggAAC1SNAAComANnd9nTT4G6D1ZsuWoQAAgg0hwABqKYAjK8IKBtszlzTEwQQQKBSBAhAtQVgTwQ+76XhJ5vKBis1dzQGAQQQqDUBAlALAdj7NcHBZ73O4HytA07jEUAAAQSqQYAA1EcAxh8L5Onw193V649XI4K0AgEEEECglgQIQA0FIAs7XWWDtZxvGo0AAghUhgABqKcA3L8aEK51O4ONzc2d05UJKg1BAAEEEKg+AQJQcwFQNlj9SaaFCCCAQBUJEIBmCMC9KwLZ8BfuNljFmaZNCCCAQMUIEICmCcBuf5QNVmyeaQ4CCCBQOQIEoJECsFs2uHu3wQtXf1C5oNMgBBBAAIHlEyAAjRaAvd8PCL/d+OG17y4/2rQAAQQQQKAyBAhA8wVg7/sBd/LV8I+vdoZnKxN8GoIAAgggsDwCBCAaAbj7scDoboPKBpc34ZwZAQQQqAqBjWTnofvfII8sGe6V0MXY/9HdBl+5OHiiKnGoHQgggAACJRNwBSBe6VlfHf645HBzOgQQQACBqhAgAASgKrGoHQgggAACJRIgAASgxHBzKgQQQACBqhAgAASgKrGoHQgggAACJRIgAASgxHBzKgQQQACBqhAgAASgKrGoHQgggAACJRIgAASgxHBzKgQQQACBqhAgAASgKrGoHQgggAACJRIgAASgaLitZ+FHbjlclJr9EYiLwMrK+y8/++z7j8fV65r1lgAQgKIhm6fhvW4abued8Noofoq+3/4IINBcAisrW+fa7e2Pk6S/kyS//g/N7WkDekYACEDRMB4JwPjnk7vp4LP1l4YvFD2G/RFAoFkEnnnm3Udbre23Wq2tr+8mfwJQ+REmAASgaJDuF4CxCORZ+NC9BYqStD8C9SeQJL87kyTbr7Va/dv3E/8o+ROAyo8uASAARYP0EAHY6abhTq8z+NnlSzcfLnpM+yOAQP0InD//wQtJ0v/kwcRPAGoxmgSAABQN1MMEYN/VgBs9txwuitX+CNSGQJK8990k2frw8MRPAGoxmASAABQN1CkEYGckA73O8ONueu2pose3PwIIVJNAkrzzcKu1/Ua73f/q+OTvI4BqjuK+VhEAArAvHKb6c1oBuH9FYPgLZYNTobUTApUksLm5c3plZXuj3e7fmC7xuwJQyYGcbBQBIACTMXHcdnEBCKPvBygbPA6s1xGoIIFvlvWNE/u0j8oAKzik95tEAAjA/WiY7q9ZBGB8NUDZ4HSM7YXAsgkcXNY3beIf70cAlj2OR56fABCAIwPkgBdPIgBjEVA2eABYTyFQAQJHl/WNE/u0jwSgAkN6eBMIAAE4PDoOfmVOAqBs8GC8nkVgaQSOL+ubNvGP9yMASxvMaU5MAAjANHGyf595CcC+qwF3ywZP7Zzefx5/I4BAOQSmL+sbJ/ZpHwlAOSM441kIAAEoGjoLEIDdssE8DVeUDRYdDfsjMDuB4mV90yb+8X4EYPbRKeGdBIAAFA2zhQlANh4LZYNFx8T+CBQhMHtZ3zixT/tIAIqMS+n7EoBx0onvcX11+ONZAm7xAqBscJZx8R4EpiGwstJ/6v7d+qZN5LPuRwCmGZOl7UMA4kv848/eqywA4zYqG1za0uDEDSMwKutLku23v3m3vlkT+7TvIwCVDiMCQACKBmgZVwDGArDv0d0Giw6U/RE4derUpUvvfOvwu/VNm8hn3Y8AVDoICQABKBqgSxIAZYNFB8r+0RMYlfW1Wv3Piv1876zJ/qD3EYBKByEBIABFA3RZArDvaoCywaKDZv+oCCyurO+gJH/UcwSg0oFHAAhA0QCtgAAoGyw6aPaPgsDiy/qOSvYHvUYAKh14BIAAFA3QygiAssGiQ2f/hhIor6zvoCR/1HMEoNIhRwAIQNEArZ4AKBssOob2bw6Bcsv6jkr2B71GACodaQSAABQN0CoKwPj7AcoGi46m/etKYDllfQcl+aOeIwCVji8CQACKBmiVBWAsAu42WHRU7V8XAsst6zsq2R/0GgGodFwRAAJQNEBrIgDKBosOrP0rT2D5ZX0HJfmjniMAlQ4qAkAAigZoXQRg39UAZYNFB9n+lSLw/PPvPpEkWx8ur57/qCR/1GsEoFKBNNkYAkAAJmPiuO0aCoCyweMG1euVJDAq62u3t99Mkv6d+iX/kRgQgEoG1rhRBIAAjGNh2sfaCsC+ssH1lwaPTdtf+yFQPoGd0ysr2xvtdv9GPRP/+KoAASg/dgqckQAQgALhsrtr/QUg7ORp+KKXDV4fxX/R/tsfgUUSuFvW179S78RPABYZI3M7NgEgAEWDqRECsHc1QNlg0dG3/6II1KOsb5zYp310BWBR8TKX4xIAAlA0kJokAPu+KOhug0UDwf5zIVCvsr5pE/94PwIwlyBZ1EEIAAEoGlsNFQBlg0UDwf4nJlC/sr5xYp/2kQCcOEgWeQACQACKxldTBWDf1QBlg0WDwv6FCNS3rG/axD/ejwAUCoyydyYABKBozEUgAMoGiwaF/aciUP+yvnFin/aRAEwVGMvaiQAQgKKxF40AKBssGhr2P5RAU8r6pk384/0IwKEhUYUXCAABKBqH8QmAssGiMWL/+wSaVdY3TuzTPhKA+5FQwb8IAAEoGpZRCoCywaJhEv3+SfLBY0my/XartfV1M2r6p036+/cjAJWeCASAABQN0JgFYN8XBZUNFg2cSPYflfW1Wluvt1r9L+JN/GMJIACVDnsCQACKBigBuBsz3TTc6XUGP7t86ebDRRnav5kEWq2trN3e+kziJwC1iHACQACKBioBeCBmlA0WDaKG7T8q62u3tz+S+MeJf/zoCkClQ50APLCY3y0Bu/cN8Oa+vr46/PEswUkADomJNFzppteemoWp99STQHxlfePEPu0jAah0ZBOAQxZzAnBo3BKA42Jm+At3Gzw0fBryQqxlfdMm/vF+BKDSAU8AjlvMm/u6KwALHFt3G6z0uneSxsVd1jdO7NM+EoCTxNrC30sAFpgEKn4VgQCUMvaf5lnIFj6RnWDhBJT1TZv09+9HABYemCc5AQEoJQlU8nsFBKDEse+Ej165OHjiJHPVe5dDQFnf/oRe9G8CsJyonfKsBKDEJFCxKwIEoNyxVzY45aJUod2U9RVN+JP7E4AKhfODTSEA5SaBfT8ks/SrAgRgaWOvbPDBpahSzyjrm0zks24TgEoF9mRjCMDSkgABqNgVkdLlTNng5HK09O2nn/7NI+329ptJ0r+jpn/WpL//fQRg6UF9VAMIAAE4Kj4Oek0Z4LxjRtngQXFW7nM7p9vt7cutVv+WxL8/gZ/0bwJQbhwXPBsBmPdiXp/j+QigQmOlbLDgyjW/3VutrVa73b8i8Z802R/0fgIwv0hdwJEIQIWSQMmXxAlAJcde2eAC1rmDDjkq62u3t38l8R+UuOf1HAE4KPYq8xwBqGQSKOX7AQSgwmOvbHBha6Syvnkl92mOQwAWFsjzODABqHASWPAVAQJQ7bFXNjiPFe6bx1DWN03Snuc+BOCbEVixLQJQ7SSwyG+mE4DajL2ywROum8r65pnUixyLAJwwdBf7dgJQmyQw948FCEDNxl7ZYOHFUFlfkWS9iH0JQOGgLfMNBKBmSWCOHwsQgLqOvbLB49dIZX3V+HIjATg+Vpe4BwGoaxI4ebsJwMkZLvIjmiOPrWzw0FVTWd8i/ic/6zEJwKGBWoUXCECNk8AJrwYQgEaMvbLBvYVUWd+sSXqR7yMAVcjzh7aBADQiCcz0/QAC0KCxj7hs8Mkn+2dbra3XW63+F9W47L3IhFq3YxOAQ5NvFV4gAA1KAgWvCBCAZo39uGzw0otXH6nC2lJGG5Jk6+VWa+uqxF9VMSAAZcyDmc9BAJqVBI783HhCEAhAM8e+m4Zba51wefPUzumZF4aKv3FlZetcu739kcRf1cQ/bhcBqPRUIgDNTALTiAABaPjYN7BscFTW12ptv9VqbX0t+Y+TbJUfCQABmPif5zTJyT6LT04EYPGMqxHHTSgbVNZXT+EhAASAAMz0Jb1FJw8CEIsAhJ28xmWDyvqq/D/849pGACotAKPG5Wm4suhk4/jVSzYEoHpjUsI8qU3ZoLK+45JrHV4nAJUXgM3NndN5Gv5rnoUbJSxAlfzfcIz9JgBRCsDd+VfhskFlfXVI7NO2kQBUXgDGDbx86ebDeXbtn/Is3IkxIcbWZwIQsQBkYaeKZYPK+qZNrHXZjwCM82ttHvPs5ve6afhtbAkxtv4SgLgFYBzvVSgbVNZXl4RetJ0EoDaJf7Kh651Bmmdh9Jmhy/YNZEAAxPU35vYSygaV9RVNqHXbnwBM5tVabW8mO2d6afhJnoXPv7FYNDAhxtY/AkAADo75xZcNJsnvzrTb25dbrf6tepa31S0RL6u9BKBWCf+wxvYuXn+0uxr+5eAFw0JaRy4EQNweGrcLLBsclfUlSf8TiX9ZSbnM8xKAw3JqLZ/P0/D9bhr+cOjC4cpAbT4uIQAEYIp5PLeywWefff/xdnv7VxJ/mQl42eciALVM9Ec1elQ2uLY6zPMsXJtiAalNQoytLwSAAEwd8ycoG7xb1rf9Rrvd/0ryX3ZCLvv8BOCoXFrr117tDM+up+GNPA1fTr2QuEJQGSGaVQB6aegb7yjl4fezLFgrK+/nEn/Zibcq53v/L2eJGe+pEYHu6vXH8zS8JynUKykQgHqNVwXmFwFIqpJY69IOAlCjVH6ypnazYaubhk8qsFBV5n/ZVWZBAAhAwfgkAARgp9jVHAJwsqxas3ePvh/Qu3D9r/Ms/Kng4iJpl/zxCAEgAAXnKAEgAASgZjl5Kc299OLVR/LO4K08C18XXGSIQEkiQAAIQMG5SQAIAAFYSkat6UnXL1z7izwLvy+40JCAEiSAABCAgvOSABAAAlDTXLzUZq91Bv+5m4WrBRccIrBAESAABKDgfCQABIAALDWT1vjkG8nOQ71O+J/dTNlgwYV3ISJEAAhAwTgkAASAANQ4B1ei6esvDR7Ls+EvCy4+C0mCMbeBABCAgvFPAAgAAahEFm1AI/LV8Ex3Nfx7wUWICMzpYwECQAAKzj0CQAAIQANyb2W6sHlq5/R6OvhvvU64VXAxIgInFAECQAAKzjkCQAAIQGWyZ4Masv7SrT/rpuHNbhruFFyUiMCMIkAACEDBuUYACAABaFDerVxXXrk4eCLvhI8KLkwkYAYJIAAEoOA8IwAEgABULms2sEF5Z/jDbjr4rOACRQQKiAABIAAF5xcBIAAEoIH5tpJd2tj440P56vW/y7PwecGFighMIQIEgAAUnFcEgAAQgEpmywY3auMHN7+z3hm8XXCxIgHHSAABIAAF5xQBIAAEoMG5ttJd66bXnsrTcKXgokUEDhEBAkAACs4lAkAACECls2TDG7d7t8HOYCPPwo2CixcRmBABAkAACs4hAkAACEDDc2wtunf50s2H89Xwj3mmbLDgIn5PhAgAASgYOwSAABCAWmTISBrZXb3+eJ4Of11wIbuXBGN+HwEgAAXjnwAQAAIQSW6tVTd7ncH5PAufFlzQohYBAkAACs4XAkAACECtMmNEjU2SnTNr2eBvumm4XXBhi1IECAABKDhPCAABIAAR5dRadnWtM/x2noaf51n4uuACF5UIEAACUHB+EAACQABqmRUjbPRaduNcrzP8uOAiF40EEAACUHBuEAACQAAizKW17vL6hevdPA2h4GLXeBEgAASg4JwgAASAANQ6G0ba+E5neDbvDP4hT8OXBRe9xooAASAABecCASAABCDSHNqIbvfS4Z93L4T3Ci58jZQAAkAACs4DAkAACEAjMmHknehmw1Y3DZ8UXAAbJQIEgAAUjH8CQAAIQOS5szHdH/2scJ6F/95Nw62CC2EjRIAAEICCcU8ACAABaEwG1JFdApdevPrIenbtf8dWNkgACAAB6BdMaPZPCknQ+38pzSBQCwLrF679RZ6F3xdcFGt7NYAAEICCse4KQKHkRxaShADUIvlp5H0C6+m1/7S+Gv5YcHGsnQgQAAJQMMYJAAEoeMWEANzPLP6qDYGNZOehtU74H3kavii4SNZGBAgAASgY2wSAABCA2mQxDT0xgfWXBo/lWfi3ggtlLSSAABCAgnFNAAgAAThxVnGA2hHIV8MzeRquFFwwKy0CBIAAFIxnAkAACEDtspcGz4XAbtng6vDVPAs3Ci6clRQBAkAACsYxASAABGAu2cRBakvg8qWbD691Bj/rpuFOwQW0UiJAAAhAwfglAASAANQ2c2n4XAnk2c3vddPw24KLaGUkgAAQgIKxSwAIAAGYaxZxsNoTyLOQ5Vn4tOBiunQRIAAEoGDMEgACQABqn7F0YO4ENpOdM700/KSbhc8LLqpLEwECQAAKxioBIAAEYO7ZwwEbQ6B38fqjeTb8RcGFdSkSQAAIQME4JQAEgAA0JlvpyMII5Gn4fjcNfyi4wJYqAgSAABSMTwJAAAjAwrKGAzeKwKhssHth8EqehmsFF9pSRIAAEICCcUkACAABaFSW0pmFE3i1Mzy7loWfdrPwVcEFd6EiQAAIQMF4JAAEgAAsPGM4QSMJdFevP95LQ7/gorswCSAABKBgLBIAAkAAGpmddKo0Ar3O4HwVygYJAAEgAG7ZmyxUatwNsLTE4kT1IZAkO2dGCTjPwp8KLsJzuyJAAAhAwdhzBWChybKJMkIA6pOVtLR0Amud4be7nfDzPAtfF1yMTywCBIAAFIw5AkAAfARQepZwwsYTWMtunOt1hh8XXJBPJAEEgAAUjDcCQAAIQOOzkQ4ujUA3Cy93s3C14MI8kwgQAAJQMM4IAAEgAEvLDk4cBYFOZ3h2Pb3+93kaviy4QBcSAQJAAArGFwEgAAQgiiykk0snsP7S4LE8G/6y4CI9tQQQAAJQMLYIAAEgAEvPDBoQFYF8NTzTXQ3/XnCxPlYECAABKBhTBIAAEICoso/OVoLA5qmd02udcLnXCbcKLtqHigABIAAFY4kAEAACUImMoBFRElh/6daf5Vn4X/MoGyQABIAANLH2vkp98jsAUSYqnV4sgVcuDp7IO+Gjggv4N64GEAACUDB+XAFwBcAVgMUu7Y6OwPQEutnwP+bZ4LOCC/muCBAAAlAwbggAASAA0y/P9kRg8QQ2Nv74UHd1+Hd5Fj4vsqATAAJQJF7yLBAAAkAAFr+kOwMCxQls/ODmd7pp+NdpF3UCQACmjZW9/QgAASAAxZdm70CgPALd9NpTeRquHLe4EwACcFyMTLxOAAgAAShvKXcmBGYjsLm5c3p9Nfwoz8KNiUX83hcBCQABOCw2DnmeABAAAjDbkuxdCJRP4PKlmw/n2bV/yrNwZ3JRJwAEYDImjtkmAASAAJS/jDsjAicjkGc3v9dNw2/3L/AEgADsj4cp/iYABIAAnGwp9m4Elkegd+HqD/IsfDpa7AkAAZgi6d/7yEgVQJV+YKcubfFDQMtb7Z0ZgQMIbCY7Z3pp+MnoOwIHvHzsU7009Asmjv1JxN9ZbcXDFQBXAFwBOHaFtAMCDSZAAGqbwE8qXwSAABCABq/tuobAsQQIAAE4Nkj27bCy8n6eSJwFE2ddLvEf104fAeybCv5EoP4ECAABKBLFBOC4JNnk1wlAkbliXwQqT4AAEIAiQUoAmpzgj+sbASgyV+yLQOUJEAACUCRICcBxSbLJrxOAInPFvghUngABIABFgpQANDnBH9c3AlBkrtgXgcoTIAAEoEiQEoDjkmSTXycAReaKfRGoPAECQACKBCkBaHKCP65vBKDIXLEvApUnUOSWw34wqFGy4HcAlDMWKmd8/vn3H6/8gqaBCCAwPYEk2TmTd8Jr3TTcluAbleCP/qGgTvho+ii5v2eSbG/4HYDj/qfctNe3Pnz++XefuB8F/kIAgUYR6F28/mjeGbyVZ+FrIhCBCBCAQv/7jVF6Wq3+Z+fPf/BCoxY6nUEAgcMJrGU3zvU6w49JQMMlgAAQgEM+Amm1+reTZPu1S5fe+dbhK4VXEECgkQQ2N3dOd7PwcjcLV4lAQ0WAABCACQFotba+TpLtt5955t1HG7mw6RQCCExPoNMZnl1Pwxt5Gr4kAg0TAQJAAPYJQLu9/fHKSv+p6VcHeyKAQBQEuqvXH8+z4S9JQIMkgAAQgKS/0273b7RaWz8aXfWLYjHTSQQQmI1ANxu2umn4hAg0QAQIQNQC0G73v0qS/htJ8s7Ds60G3oUAAtERGJUNrnXC5W4abhGBGosAAYhWANrt7V89+6ya/ugWbx1GYF4ELr149RFlgwQgxvK4Gvf5k1ZrqzWvNcBxEEAgcgKjssG8Ez5yNaBmMuAKQDRXAFqt/q3nntu+nCS/OxP5cqX7CCCwCALKBglAjf9n3EgZGJX1tVrbbz399G8eWcScd0wEEEDgHoFR2WAvG7yep+ELVwQqLgSuADQy6Y8lrN3e/mhlZevcvcnpDwQQQKAMAusvDR5TNkgAxsnIY3n3Bmi1tq4mydbLZcxz50AAAQQOJTAqG8zTcMXVgArKgCsAjboC0Gr1v2i1tl5/8sn+2UMnpBcQQACBMglsnto53esMNvIs3CACFRIBAtAYARiV9SXJB4+VOa+dCwEEGkDg8qWbpfwQyOg8vc7gZ9003CECFRABAlB7AWi3+1eU9TVgEdYFBJZFIE/De/lq+MdXO8NSLh2+cnHwRJ5071H7AAAXM0lEQVSFD0nAkiWAANRWAMZlfadO+fneZa2bzotAIwjk6fDXe8n4xuhSfVm/Cb7+0vCFbjr4jAgsSQQIQB0F4E67vf2msr5GLL06gcDyCewTgJ1RMu6m4Q95Gr5fRss2Nv74UN4Jr3XTcJsIlCwCBKBmArD14fPPv/tEGfPSORBAIBICkwJwPxEPf9G7eL2U+4KPzrPeGbx9/9wlJ8MswvMRgFoIQKvV/+z8+Q9eiGQ50k0EECiTwOECsJsUP1/Pwk82k51SfkK0m157qtcZfkwEShASAlBpAWi1+reTZPu1S5fe+VaZ64FzIYBARASOEYDdjwXyLHy63hmkZWAZfQdB2SABiPXHg0Y/35sk228/88y7pVx9K2NOOwcCCFSUwJQCMP5+wG/z7Ob3yujKqGxwPQ1v5Gn40hWBBQiBKwCVuwLQbm9/vLLSf6qM+eUcCCCAwKkiArCXiO/k2bV/Kuv3AzZ+eO27ygYJQJOvCLTb/Rut1taPyqrAsewhgAACuwRmEIDxxwJLKBsMn7gaMCcZcAVg6VcA2u3+V0nSfyNJ3inlx7gseQgggMA3CJxAAMYfC5RWNpgkO2eUDRKAZlwN2PowSd777jcmow0EEECgTAInFYD7/yMvt2ww7wzeyrPw9f3zzykxxlIS6ArAsq4AfKKsr8wVzrkQQOBQAvMTgLDTzcLnvbS8ssG17MY5ZYMzig8BKFUAxmV9SfK7UkpqD53wXkAAAQTGBOYpAPv+N15q2WA3Cy93s3B13/nH31PweNgVDQJQigCMyvpare23lPWNVxyPCCBQGQILEoDx9wNKKxvsdIZnlQ0WuBpAABYuAO329kcrK1vnKjPZNQQBBBDYT2CRArD3P/JSywa7q9cfz7PhL10NOEYGCMDCBKDV2rqaJFsv759n/kYAAQQqR6AEARhfhr+xnoXSap272bCVp+EKEThEBAjA3AWg1ep/0Wptvf7kk/1Sbq1ducVEgxBAoF4EShSAuyIwSsol3W1w89TO6bVOuNxNwy0iMCECBGCuAtBub/8qST54rF6zX2sRQCBqAqULwL0vpZVXNnjpxauP9DqDn3XTcIcI7IkAAZiLALTb/Sut1lYr6kVE5xFAoJ4ElicA5ZcNvnJx8ETeCR+RgLAz4jBLxCbJ9kYzfoinfyIBaLX6t557bvvyqVM7p2fh6D0IIIDA0gksUwD2JeLSygZHwPPVkI3ucLjv/OPvKcTzSABmFYA77fb2m08//ZtHlj55NQABBBA4CYGKCMBu4u2mobSywY2NPz7Uywav52n4IkoRIACFBWBU1vf88+8+cZL55r0IIIBAZQhUSQD2EnGpZYPrLw0eW+8M3o5OAgjA1ALQbm999txz72eVmbQaggACCMyDQAUFYHwZvtyywfTaU1GVDRKAYwVgXNZ36dI735rHXHMMBBBAoFIEKiwAd0UgDVe66bWnyoA2KhvsdQYbeRZuNP6KAAE4VABGP9+bJNtvK+srY9Y5BwIILI1A5QVgr2xwdJm+d/H6o2WAunzp5sONLxskAAcKQLu9/fHKSr8U4Swjlp0DAQQQOJRAXQRg9D/y0d0G19Lrf7uZ7JRyR7XdssEsfNjIqwEE4BsC0G73b7RaW6X9UuWhE9ILCCCAQFkE6iQA+xJxqWWD6y8NX+img8/2nX/8PYX6PhKAXQFot/tfJUn/jSR55+Gy5pzzIIAAApUgUFMB2E28ZZcN5p3wWjcNtxshAgRgJ0m2PkyS975biYmoEQgggEDZBOosAHuJ+M7o8/rR5/ZlsBt9D6ERZYNxC8An589/8EIZ8eIcCCCAQGUJNEAAxpfhb6yvlni3wfTaU73O8OPaXg2IUABarf7tJNl+LUl+V8p3SCo76TUMAQQQGBFokADcFYEyywY3d053s/ByNwtXaycCEQnAqKyv1dp+65ln3i2lisTKggACCNSCQOMEYF/Z4MYPbn6njEHodIZn19PwRp6GL2sjApEIwN2yvq1zZcSBcyCAAAK1ItBUARgl4t2ywQvllQ12V68/nmfDX9ZCAhouAK3W1tUk2Xp5c9Pd+mq1IGksAgiUR6DJArAvEY/u/Ffab7l3s2Grm4ZP9p1//D2F6jw2VADGP9/75JP9s+XNImdCAAEEakggEgHYTbxllg0myc6ZtU643E3DrUqKQAMFoN3e/pWf763hIqTJCCCwHAIxCcBeIi61bPDSi1cfyTuDt/IsfF0pEWiQALTb/Sut1lZrOTPIWRFAAIGaEohQAMaX4W/kafivZX1GvJbdOJd3wkeVkYAGCECr1b/13HPbl0+d8jl/TZcfzUYAgWUSiFgA7opAiWWDo3GuTNlgvQXgTru9/ebTT//mkWXOHedGAAEEak0gegHYKxvsdcK/llk22MsGr+dp+GJpVwRqKgDt9vZHzz//7hO1nnQajwACCFSBAAEI448ERo+fr124/rcbG398qIyxWX9p8NjSygZrJgDt9tZnzz33fmmVHGWMv3MggAACSyVAAL4hAGMZ+DRfLbdsME/DlVKvBtREAMZlfZcuvfOtpU4UJ0cAAQSaRoAAHCgAuyJQZtng5qmd06WWDVZcAEY/35sk228r62vaiqM/CCBQGQIE4HABGP2PvJuGO2sl3m1wVDY4urvh6LwLvSJQYQEYlfWtrPSfqswk0RAEEECgiQQIwNECsC8Jl1o2+MrFwRMLLRusoAC02/0brdbWj5T1NXGl0ScEEKgcAQIwtQDc/X5AyWWDo+8i5FkY/ZTx+PsJ83mskAC02/2vkqT/RpK883DlJogGIYAAAk0lQABmS6xllg2OqhLmXjZYGQHY+jBJ3vtuU+eXfiGAAAKVJUAAZhOAvf+Rf56vXv+7MssG1zuDt+dyNWD5AvDJ+fMfvFDZiaFhCCCAQNMJEIATCcBetcDgs1LLBtNrT/U6w49PJAJLEoBWq387SbZfS5LfnWn63NI/BBBAoNIECMDJBeBeIt79rf+b3ytjwEf3MOh1Bht5Fm7cO3+R7wmULACjsr5Wa/utZ55599Ey+DgHAggggMAxBAjAHAVgCWWDly/dfHg9DW/kafiykAiUKADt9vbHKytb544JRS8jgAACCJRJgADMVwD2JeEbaxeul3a3wY0fXvtunoUP953/6GqBEgSg1dq6miRbL5d1x8Uy541zIYAAArUnQAAWJgB3E3DJZYPrLw1f6Kbhk2NFYIECMC7re/LJ/tnaTxAdQAABBJpKgAAsWAD2PpfvpuXdbTBJds7knfBaNw23DxWBBQlAu739q2efff/xps4X/UIAAQQaQ4AAlCMAe4m41LLB3sXrj+adwVt5Fr5+QATmLwCftFpbrcZMDB1BAAEEmk6AAJQqAPfLBjvDH5YVW2vZjXMPlA3OSQBarf6t557bvqysr6zRdB4EEEBgTgQIQPkCcO9/453w0eg3/+c0lEceZvRFvG4WXu5m4eru+U8uAHfa7e03n376N48ceWIvIoAAAghUkwABWKIA7JUNju7+NyrnKyNCOp3h2VHZYDcN/2eW8yXJ9ka7vf3R88+/W4q4zNJG70EAAQQQmIIAAViuANy7GpCFUssG11+69WdThMcDu/zVX30w0/seOJAnEEAAAQSWS4AAVEYAllI2uNzoc3YEEEAAgaURIAAVE4AllA0uLficGAEEEEBgeQQIQDUFYO+jgc+7q8PS7ja4vCh0ZgQQQACB0gkQgEoLwN7P+Q4+y0ssGyw9CJ0QAQQQQKB8AgSgDgKw18YSywbLj0RnRAABBBAolQABqJEA7CsbnPVb/KUGl5MhgAACCFSXAAGolwCMywa7afi/+erwVXfaq+7c0jIEEECg0gQIQD0FYCwCecl3G6x0MGscAggggMD0BAhAzQVgr2wwz8K/bfzg5nemH3l7IoAAAghETYAANEYARhUDygajns06jwACCBQgQAAaJQD3ygbXlA0WmAV2RQABBCIkQACaKAB7fVI2GOGM1mUEEEBgSgIEoMECsFc22E3Dm8oGp5wQdkMAAQRiIUAAmi0A42qBe2WDp3ZOxxLb+okAAgggcAQBAhCHANwTgdXw79302lNHhISXEEAAAQRiINBLQ3+cHDzGIwNrWfhpDPGtjwgggAAChxBwBSCepP8NwUvD7w8JCU8jgAACCMRAgAAQgBjiXB8RQAABBCYIEAACMBESNhFAAAEEYiBAAAhADHGujwgggAACEwQIAAGYCAmbCCCAAAIxECAABCCGONdHBBBAAIEJAgSAAEyEhE0EEEAAgRgIEAACEEOc6yMCCCCAwAQBAkAAJkLCJgIIIIBADAQIAAGIIc71EQEEEEBgggABIAATIWETAQQQQCAGAgSAAMQQ5/qIAAIIIDBBgAAQgImQsIkAAgggEAMBAkAAYohzfUQAAQQQmCBAAAjAREjYRAABBBCIgQABIAAxxLk+IoAAAghMECAABGAiJGwigAACCMRAgAAQgBjiXB8RQAABBCYIEAACMBESNhFAAAEEYiBAAAhADHGujwgggAACEwQIAAGYCAmbCCCAAAIxECAABCCGONdHBBBAAIEJAgSAAEyEhE0EEEAAgRgIEAACEEOc6yMCCCCAwAQBAkAAJkLCJgIIIIBADAQIAAGIIc71EQEEEEBgggABIAATIWETAQQQQCAGAgSAAMQQ5/qIAAIIIDBBgAAQgImQsIkAAgggEAMBAkAAYohzfUQAAQQQmCBAAAjAREjYRAABBBCIgQABIAAxxLk+IoAAAghMECAABGAiJGwigAACCMRAgAAQgBjiXB8RQAABBCYIEAACMBESNhFAAAEEYiBAAAhADHGujwgggAACEwQIAAGYCAmbCCCAAAIxECAABCCGONdHBBBAAIEJAgSAAEyEhE0EEEAAgRgIEAACEEOc6yMCCCCAwAQBAkAAJkLCJgIIIIBADAQIAAGIIc71EQEEEEBgggABIAATIWETAQQQQCAGAgSAAMQQ5/qIAAIIIDBBgAAQgImQsIkAAgggEAMBAkAAYohzfUQAAQQQmCBAAAjAREjYRAABBBCIgQABIAAxxLk+IoAAAghMECAABGAiJGwigAACCMRAgAAQgBjiXB8RQAABBCYIEAACMBESNhFAAAEEYiBAAAhADHGujwgggAACEwQIAAGYCAmbCCCAAAIxECAABCCGONdHBBBAAIEJAgSAAEyEhE0EEEAAgRgIEAACEEOc6yMCCCCAwAQBAkAAJkLCJgIIIIBADAQIAAGIIc71EQEEEEBgggABIAATIWETAQQQQCAGAgSAAMQQ5/qIAAIIIDBBgAAQgImQsIkAAgggEAMBAkAAYohzfUQAAQQQmCBAAAjAREjYRAABBBCIgQABIAAxxLk+IoAAAghMECAABGAiJGwigAACCMRAgAAQgBjiXB8RQAABBCYIEAACMBESNhFAAAEEYiBAAAhADHGujwgggAACEwQIAAGYCAmbCCCAAAIxECAABCCGONdHBBBAAIEJAgSAAEyEhE0EEEAAgRgIEAACEEOc6yMCCCCAwAQBAkAAJkLCJgIIIIBADAS6q9cf76Whn2eRJsJY+52G38cQ3/qIAAIIIHAMgV5ncD7PwqdEIBIRIgDHzAgvI4AAAhERSJKdM3knvNZNw20i0HARIAARzWxdRQABBKYk0Lt4/dFeGv6ZBDRYAgjAlLPBbggggECEBPI0fL+bhj8QgQaKAAGIcEbrMgIIIFCAwObmzuk8HbySZ+EaEWiQCBCAArPArggggEDEBF7tDM+uZeGn3Sx8RQQaIAIEIOLZrOsIIIDADARGZYNdZYM7tZcgAjBD9HsLAggggMApZYM1vwpAAMxiBBBAAIFZCYzKBteywd8oG6yhDBCAWcPe+xBAAAEExgTWOsNvKxusmQQQgHH4ekQAAQQQOCkBZYM1kgACcNJw934EEEAAgf0ERmWDa6vDXNlgxWWAAOwPW38jgAACCMyLwKhscD1VNljZagECMK9QdxwEEEAAgYMIKBus6JUAAnBQuHoOAQQQQGDeBJQNVkwECMC8Q9zxEEAAAQQOI7B7t0Flg9X4ESECcFiYeh4BBBBAYFEERmWDa5m7DS71+wEEYFHh7bgIIIAAAscRWMtunHO3wSV9NEAAjgtPryOAAAIILJKAskECsMj4cmwEEEAAgYoT2CsbfMPdBksSAlcAKj4jNA8BBBCIjMCobLDnboOL/6IgAYhsZukuAgggUBMCygYXfCWAANRkJmgmAgggECGBcdlgnoU/LfUb89mCk/Eyjk8AIpxRuowAAgjUjMCobDBPw89JwBxFhADUbBZoLgIIIBAxgVHZYK8z/JgIzEEECEDEM0nXEUAAgZoSWMuGeTcLgQicQAQIQE2jX7MRQACByAmMywbzNHxJBGYQAQIQ+QzSfQQQQKDmBEZlg2tZ2CIBBSWAANQ88jUfAQQQQGCXgLJBAmAqIIAAAghESmBUNri+OvyxssEpZMAVgEhniW4jgAACDSawr2zwax8NHCIDBKDBM0DXEEAAgcgJKBs8JPmPfniIAEQ+O3QfAQQQiICAssEDRIAARBD5uogAAgggcKrTGZ7tdgb/oGxwTwYIgFmBAAIIIBATAWWDBCCmeNdXBBBAAIEJAtGXDboCMBERNhFAAAEEoiEQddkgAYgmznUUAQQQQOAQAlGWDRKAQ6LB0wgggAAC0RGIqmyQAEQX3zqMAAIIIHAMgfUL17uNv9sgATgmCryMAAIIIBAlgcaXDRKAKONapxFAAAEEpiTQS4d/nqfhvcb9pDABmDIC7IYAAgggEDWBxpUNEoCo41nnEUAAAQQKEGhU2SABKDDydkUAAQQQQODUqVONKBskAGIZAQQQQACB2QjUumyQAMw26N6FAAIIIIDAmMCobDBPQ6jVFwUJwHj4PCKAAAIIIDA7gVHZYF6nuw0SgNkH2zsRQAABBBCYJFCbskECMDl0thFAAAEEEDg5gW42bOVZ+LSyHwsQgJMPsiMggAACCCBwEIFKlw0SgIOGzHMIIIAAAgjMj8CobLDbCT/Ps/B1Za4IEID5DbAjIYAAAgggcBSBSpUNEoCjhsprCCCAAAIIzJ/AelqBskECMP+BdUQEEEAAAQSOI7D0skECcNwQeR0BBBBAAIHFEVha2SABWNygOjICCCCAAALTEhiVDXbT8ElpXxIkANMOjf0QQAABBBBYLIHNzZ3TvQvX/zrPwp8WLgIEYLGD6egIIIAAAggUJVBK2SABKDos9kcAAQQQQKAcAgstGyQA5QyisyCAAAIIIDArgd5qeHnudxskALMOh/chgAACCCBQHoG5lw0SgPIGz5kQQAABBBA4KYG5lQ0SgJMOhfcjgAACCCBQPoETlw0SgPIHzRkRQAABBBCYB4FR2WA3nbFskADMYwgcAwEEEEAAgeURuPTi1UfyzuCtQncbJADLGzBnRgABBBBAYJ4ECpUNEoB5oncsBBBAAAEElk9gVDbYzcLVI39NkAAsf6C0AAEEEEAAgXkTGJUNdrPrf5+n4csDRYAAzBu54yGAAAIIIFAdAqOywe6F8N4DEkAAqjNIWoIAAggggMCiCDxQNkgAFoXacRFAAAEEEKgWgW+UDRKAag2O1iCAAAIIILBoAv/l0tVH8tXhq4s+j+MjgAACCCCAAAIIIIAAAggggAACCCCAAAIIIIAAAggggAACCCCAAAIIIIAAAggggAACCCCAAAIIIIAAAggggAACCCCAAAIIIIAAAggggAACCCCAAAIIIIAAAggggAACCCCAAAIIIIAAAggggAACCCCAAAIIIIAAAggggAACCCCAAAIIIIAAAggggAACCCCAAAIIIIAAAggggAACCCCAAAIIIIAAAggggAACCCCAAAIIIIAAAggggAACCCCAAAIIIIAAAggggAACCCCAAAIIIIAAAggggAACCCCAAAIIIIAAAggggAACCJRC4P8BI2+OscLViMAAAAAASUVORK5CYII=;" parent="1" vertex="1">
          <mxGeometry x="670" y="23.5" width="75" height="75" as="geometry" />
        </mxCell>
        <mxCell id="FXeQf5swQIMRkxGQJUu0-18" value="" style="shape=image;verticalLabelPosition=bottom;labelBackgroundColor=default;verticalAlign=top;aspect=fixed;imageAspect=0;image=data:image/png,iVBORw0KGgoAAAANSUhEUgAAAgAAAAIACAYAAAD0eNT6AAAAAXNSR0IArs4c6QAAIABJREFUeAHtnQ+IVueZ9l9EgoQiZuJ5zn3O2mEIQYsbRAZLTbOIhKZt0mywkt1Kdqht2ny1WdsmqU2tWCFJK5FUmpDIJkiyRckXjEg6WOmKpMGGMNuVbDA0HSSKBJFBxE/SJgxR0vPlnnESM87M++/8uZ/z/A7IOPO+7znPc93XfV33Oe/zp9HgAAEQAAEQAAEQAAEQAAEQAAEQAAEQAAEQAAEQAAEQAAEQAAEQAAEQAAEQAAEQAAEQAAEQAAEQAAEQAAEQAAEQAAEQAAEQAAEQAAEQAAEQAAEQAAEQAAEQAAEQAAEQAAEQAAEQaBmBnp6euSLSJyKfF5GvichaEffjVNy2JIl2irjBVKI/JIl77aPXj6Tijoq4P6cix0TcyVTklIg7k8bxeRH3XiqSXf5v7G/jr5259F79jH72z+PnkiN6br2GXkuvqdfWNoy3ZaxN2ra+KIo+03LHeCMIgAAIgAAIhIpAml7TmyTRiiRxAyLu52qucRwfVONVM77cqD37/yntg/blUpHyc+2j9lX7HGq86TcIgAAIgEAACPQ1GnPSdP6iJHFfSRL3f5Ik3pok7vnxu2k5laafvhP3zOA/9RSh3baLuIv6dELEHU5EdsVR9Egcx99NnfuSYqbYBUARuggCIAACIFADBGY755ZceiS+PUncIRE5264x8v7xokixu4ShYjmg2DYajdk14AldAAEQAAEQ8BWBBXPn9uidqn4Hrnev44/r4wuYd9FPNBRjd1QxHxsD4dyXNBa+8oh2gwAIgAAI2EZg1qU7+3/Xx/eXBtV19fibQiHfQkFjokVBkrh1l54UzLJNKVoHAiAAAiBgDgEdxT72PbTIQ5cG472LYedr2MXj6d7V2OmgyvExBenV5ohGg0AABEAABKpF4Nprr/0H/Y45FffU2KP8gAfmFW/M1RQS4wMOdSpj/EQax2s05tWyjquDAAiAAAhUgoA+Jo7jeFMqbijkkfh1Nfym/Uol05kYyoFLXxlUwkMuCgIgAAIgUDACaZperQvoxLF7RkTeaWoQkxbK4f3V3LmXhfs4J9xTyhHlSsF05PQgAAIgAAJFInDp0f66VKL9U61+V5a5cB2/iodxrkT7dd2GOI5dkRzl3CAAAiAAAjkhEMfxcl1QZnxanl/GQ6FgL14i7u+6tLIOJoyiaGlONOU0IAACIAACeSCgwqymLyLDmKg9E61TTC5x7CHGDeSRuZwDBEAABDpAQDfF0c1oUnHH62Qw9MWnAsYd16WdlYsdUJiPgAAIgAAItIqAc+6LIrKdhXh8Mskw2jq+p4FsV462ymfeBwIgAAIgMAMCOghLp2ph+mEYaR2egChX4yjayADCGRKbl0AABEBgOgR09zwR2acLuNTBFOhDeAXMpcWH9imXp+M5fwcBEAABEGg0Gtzth2eSoRRGPBVA4kAABEBgCgS428f4AyoELuqTLZ4KTCEE/AkEQCAMBHSRHr7bx/hDMf6p+slTgTC0jl6CAAhcQiBNr+nVTXdYmQ/zn8oUQ/yb5sLYJkXpNb0IBQiAAAjUDgFdrCeVeA+D+jD+EE2+lT6P50a8hxUHayd/dAgEwkRgbHMVif7QigDyHooDODDBgegPjBMIUzPpNQh4jUBfozFHRNaKuD8j6BOCzk+40D4HNIc0lxqNxmyvRYHGgwAI1BuBBXPn9uimKSLuDGLfvtiDGZjNwIFTIu7HPT09c+utIvQOBEDAKwR0/3QVJxE5O4OAZbyGwcGB7jigOaa5pjnnlUjQWBAAgdohcNVHgvTvqbgRhL07YQc/8GuPA25Ec6/RaFxVO1WhQyAAAqYRmB3H8XdF5J32RAuRBy84kCcHxvbIiKK7GSNgWi9pHAjUAoFZSeIG2IIXE8vTxDhXLnw6lsbxmkajMasWSkMnQAAE7CCQJG41o/pzEWrGQgg4FlX0aI5qrtpRDloCAiDgLQIi8vlU3FBRgsV5MUM4UAQH3JDmrrfCQ8NBAASqQ0DX6k9Edom4vyPQRQg054RXxXJAc1dzWHO5OiXhyiAAAt4gML6Iz9hc/vcQ6GIFGnzBtwwO6F4Duj6H5rY3QkRDQQAEykUgdW4VA/wwpTJMiWtUwTN3XHO8XFXhaiAAAqYRcM4tEXGHEeUqRJlrwrtyOaC5rjlvWpRoHAiAQLEI6NK9ceyeSdNyBQjBB284UDEHUsk091UDilUZzg4CIGAOAZ3Pz9K9FYsw0+GYElkxB8Y0YHz9AHMaRYNAAARyRiBNr+mN4/ggd2CYPxyAAxMcGNOE9JrenOWG04EACBhBYFaSxPfpiOCJpOcnBgAH4MAEB1QbVCNYTdCIYtMMEMgDARH5RxE5MpHo/ET04QAcmI4DqhVRFF2fh/ZwDhAAgeoQmJ0k8dZU4gvTJTt/xwjgAByYzIFEZDSOoo1sMlSdeHNlEOgYgUtL+B6dnNj8jtjDATjQOgfcUZYU7liG+SAIlItAmqZXi8h2pvYh8q2LPFiB1QwcSCUb15T06nLVjKuBAAi0jEAURUtFZBgxm0HMKp52RWyIja8cUG1RjWlZkHgjCIBAKQjMiuN4E9/1Yy6+mgvt9oW78QXVGmYKlKLrXAQEZkZARPqSxL2GgPoioLQTrvrPAdUc1Z6Z1YlXQQAECkMgjuPvMq/ffzHFEImhjxxQ7VENKkzgODEIgMCVCMRx7ETcoI+iQZsxOzhQLw6oFqkmXalU/AUEQCBXBD5apONrIu4MIlovESWexNNnDqgmqTblKnacDARAYByBKIo+kyTRTp9FgrZjcnCg3hxQjVKtQrdBAARyQiCKIknFDSGe9RZP4kt868EBN6SalZP8cRoQCBeBOI6Xp+JG6iEMCDxxhANhcMCNqHaFq9z0HAS6RCCNoruZ249hhGEYxLl+cY4vqIZ1KYN8HASCQ2A23/djCPUzBGIaYkxVy9hUKDgPo8OdIMD3/ZhEiCZBn+vOe8YFdOIHfCYgBPi+v+4iSP8w+pA5wLiAgOyMrraDAN/3hyyM9J3CIBQOMC6gHV/gvQEgkIp7CgEMRQDpJ1yHA6p5AUg7XQSB6RFI0/RqEdmHICKIcAAOhMaBMe1L06unV0heAYGaIrBg7tyej5bOPBJa0tNfjA4OwIEJDqgGqhbWVObpFghciUCazl+Uijs+kQT8RBDhABwIlwPuuGrilUrJX0CgZggkiftKGsfnw012hJ7YwwE4MIkDcXzeOffFmsk93QGBTxBIEjcg4i6S/JOSX/gdTsABOBBfUI38RDH5HwjUBIEkibeS4Ig8HIADcGBmDsRR9EhNZJ9ugEBjNiP9Z054BBF84AAcuJwDqpksH4x7+o7AVSJu8HJi83+EDg7AATjQnAOXioCrfDcB2h8gAjrHP0ncIRK9eaKDERjBATgwFQfiOD6oWhqghdBlXxFQwqbihqYiNH9D6OAAHIADrXMgSdxrFAG+umFg7e7p6ZmL+bee3AghWMEBONCMA1oEzJs3b15gdkJ3fUIgjmOXijvajMy8juDBATgAB9rjgIj8r2qsT55AWwNBIE3T3lTkGEndXlKDF3jBATjQKgdEZJgiIBBT9aWbav4i8k6rJOZ9CB4cgANwoDMOaBGQptf0+uIPtLPGCERRdD3m31kiI4DgBgfgQCccEHEn2T+gxsbqQ9dEpC8VN9IJgfkMwgcH4AAc6IYDbkQ12AevoI01Q0CJN1aFso59hoh1I2J8Fv7AgU45oBpMEVAzc7XenSiKBPNHtDoVLT4Hd+BAfhxQLVZNtu4btK8GCIybvwyTwPklMFiCJRyAA91wQAcGLpg7t6cGFkMXrCKgBBsbgcpjfx77wwE4AAdMcUBEjlAEWHVPz9t1yfyPdFOl8lnucuAAHIADxXFAiwCWDfbcbK01Xwk1RiwqflMVP0JanJCCLdj6ygERd5giwJqLetqevkZjzhihMH/MHw7AATjgBQdUs1W7PbUdmm0BgXHzlwO+VsK0m7s4OAAHQuWAiBygCLDgpJ62IRHZFWry0G+MAw7AAd85EMfuGU/th2ZXiUAaRRt9Jz/tR8DhABwInQNJEt9XpZdwbc8QSJ1blaYIR+jCQf/JAThQAw6kkiWJW+2ZDdHcKhCI43i5iHuPxK9B4jNgy4sBW+QauVY0B1TTVdur8BSu6QkCl3b2O1s0GTk/ggcH4AAcKJcDInJWNd4TO6KZZSKgC/2k4o6TlOUmJXiDNxyAAyVy4BirBZbprH5ca04qbqhEEvJolsfzcAAOwIEKOJAk7rUGawT44cxltFJE9mH+3IXAATgAB8LggGp+Gd7CNYwjkCTxEyR9GElPnIkzHIADn3DAbTNuTzSvSAQ+Wt//a0z3QxA+EQSwAAs4EAwHUsnUA4r0GM5tFIE0TXvTOD4fDNkr+K4NbDETOAAHTHNAPSC9pteoTdGsIhBgdz9EybQoUawxOA4OlMYB3em10WjMLsJrOKdBBFjjnwKAAgAOwAE4MMEB9gwwaNRFNElE1k4EnZ8IAByAA3AADigH1BuK8BzOaQSBKIqWsswvyY7gwwE4AAcmc0C9QT3CiF3RjDwR6OnpmSsi70wOOr8jBHAADsABOKAzwkTcSfWKPL2HcxlAIJVoP0lOksOBKznwpZtvzu7+1reyn238abbt0UezDRseyAYG7sqWLesvbSAWcbkyLmBSDSYibtCAZdGEvBBIRR4imapJJnC3h/vSJUuyh7ZsyV577bVsdHQ0m+k4d+5c9tuXXsq+c/e3KQYYmR8OB6JoY17+w3kqREBEPs9iP/ZMiMKg/JgsXvy5bPfuXdmHH344k+dP+9qZM2eydeu+F44JYPjhxjqVjO2DKzTuPC49Pt/fncRsyjcbMLeF+U82bMjO/7//N625t/PCyy+/nPX3Lw3XHCgMAom9O64ekocXcY4KEGC+vy0ToigoPx7XXdeX/fHw4Xb8vaX3/u1vf8vWrPlGIEZQftzIFRuYq4dUYF1cslsE0jheQxLZSCLiUFEcUinE/CcqBC0CVq5cQRHAE4F6cyCO13TrR3y+RAREpI91/isyHcTQjBju3LlzwqsL+/nOO+9kixYuNNNnik3yPncOxPH5KIqkRAvjUt0gkIobyp0EGBsi7xEHdBpfWce+ffvghkfcQBvbL5LiOD7YjSfx2ZIQSKNoIwRvn+BgVh/Mliy5Ifvru++W5f9j17nnnnsoAigC6s0BpgaW5OIdXmZsyp/EFzCz+pgZsWw/lmU8+p9cXZw+fTrr/eyCehsABh94fOMLIvKPHdoTHysSAab8tW8UmGv9MNNFfqo6dHEhOFU/ThHTy2PqjjI1sEgn7/Dcup0jRL2cqPw/RD48/vivq/L/TBcKYtEt8q7uecfWwR2adFEfc859se6ko38IazMOLFiQZrp0b5UHSwbD02Y8rcPrSRKtKMrPOG8bCOjjmFTc8TqQij4gnt1w4N57v1+l949dWxcd6qYPfJYc8IQDxxqNxuw2rIq3FoFAksRPeEIYhJFBVIVy4H/+9N+VFwDagBuXf6HQfpLvFAk2OOC2FeFpnLNFBJxzS0TcRRtkICmJQ3UcWLHin0yYvzZCZyHAheq4APblYK/eE0XR0hbtirfljMBsEflfyF4O2cHZNs7P795tpgDQNQj6enspAnjiVXsOqAc1Go1ZOXsbp2uGQCryEKZk25SITznxWXj99dno6KiZAkAbsmHDA7UXf/hdDr/N48wCQc3sOt/Xoyi6PmXBHwSWO6wxDmzZstmU+WtjhoeH4Sf8DIQD8QX1pHxdjrNNh8AsEXfYfFVI8geS/NXfBZ08edJcAaANuv222+AAOhAEB9STpjMs/p4jAkkS34f5V286xMBGDNas+YZJ89dGvfjiniDEn1ywkQtVxyFJ3LocrY5TTUZg/vz5qYh7r+pAc30S3goHDh48aLYA0HEJixd/jiKApwBBcEC9ST1qsm/xe04IpBLvsSK8tIMioGoO9Pf3Zx9++KHZAkAb9vDDDwch/lVzgetb0aN4T052x2kuR2B8pz8rQaYdCE71HHjqySdNm7827tSpUxQAPAEIigPqVZd7F//vHgEd+PcnTKd60yEGNmJgYd3/VquPf7vrrqAMgByxkSPVxcENsTZA96b/8Rl0cEV1wQydzPTfIvfWr7+3Vf+t/H06TsEihrSJ3C6KAwwI/Ni+u/tPFEWfEZGzRQWK8yICPnLgyJEjlRt7qw3QcQrL+vspAvgqIBgOiLgz6l3duR+fbrDZDwbto0EX2eYv33JLq95r5n06XqFITDg3OmGPA2wW1FUJk6bzF7HZD4ltL7GrjckLL7xgxthbbci5c+cyHbdALKvlDviXh38iMqoe1pUJhvzhOI4PQtjyCAvW9rG2uO5/q0WAjluAY/Y5Rozyi5F6WMge3nHfU+dWQcT8iAiW9cDyoS1bWvVbc+/TcQvwsB48JI6txzFJ3Fc6NsJAP3iViLwDyVonGViFgdXp06fMGXs7DVq5YgVFAIMBg+KAiPtzo9G4KlAvb7/brPcfhplRtLQXZ51P7/uxe/euoMQfjrfH8bripZ7WvhMG+Im+RmOOiBupKxHoF4LQKQcOHTrku/9n77//fqbjGDrFgM+RP35ywI00Go05AVp6e13m7p8E9zPBi42bD+v+t1qdbNq0iQKArwGC4wBPAZrUAtz9F2siGKu/+O7YsaNVfzX/vhMnTgQn/uSev7mXX+x4CjBjCcDdP0mSX7LVB8u+3t5M59HX6bhz9WqKAJ4CBMcBngJMUwL09PTM5bv/+pgWRp5fLH/0wx/UyfvH+jI4OBic+JMT+eWEv1jyFGDKEiAVecjfoEJsYlccB95882jtCoCLFy9mS5bcQBHAU4DwOBBFG6c0wVD/qHf/aRyfx0SKMxGw9RPbW2/9au3Mf6JDv3rssfDEH8Mn5nF8Xj0vVL+/ot/c/ftpThQVxcftxRf3TPhl7X6eOXMmS9PiMYSnYGyQAw9dYYQh/oG7f5LTYHKauEtZvPhz2ejoaO2M//IOfefub5vAGg6iQ6VygKcA4+UOd/8kXqmJ59Ej2F/+4pHLvbKW///j4cMUAB5xklzNVa+Dfwowh+/+cyUUYlojMfV93f9WK5Ybl38B3taItxQJrWm6iJxN0/TqEJ/8j/U5Sdw6yNIaWcApLJwGBgZa9U/v37dz504KAAqAIDmgHhhqATBLRIYxtrCMjXi3Fu+XX37Ze2NvtQN/fffdTBc7ghutcQOc6oOTemCj0ZgVXBGQxvEaiFwfIhPL/GJZp3X/Wy0CNmx4gAKApwBhciCO14RXAIgbwjTyMw2wrA+WTz/9dKu+WZv3DQ8Phyn+mD5xFzcUVAEQx/FyDKs+hkUs84ulPgrXR+IhHrffdhtmQEEQJAfUE4MpAkTcIKaRn2mAZX2wfOD++0P0/rE+7927N0jxJ3/rk7+dxzLeE0QBkKbzF4m4v3cOFGQBu/py4NixY8EWALrokS5+BL/ry29iO3VsRdxF9cbaFwFx7J6BBFOTAFzCxkUfgYd+6OJH5EHYeRBq/NUba10AzJs3b56Iey/UANNvhG0mDugj8NCPU6dOUQAwDiBIDqg3Lpg7t6e2RQDL/mKAMxlgyK/dsHhx5d7/t7/9LdN/VR8DA3cFaQAh85++X/KGOm8VLCLvEGiKADhwJQe2bt1ate9mu3fvGvtXdUMOHjxIAcBTgCA5IOJO1vIJQJK4ryD8Vwo/mICJbolrYd3/W2/9arZy5Yqq/T/78MMPs2X9/UEaAHqAHqhX1q4IYOofxEbcpubA2rXfrNx0//LWWx8b7uuvv155e5568smP2wNvpuYNuNQTF/XKWhUAOrBhbJoDj7UQNThwBQd0S9yqj59t/OnH7bKwFsG5c+eyBQvSj9uE2dXT7IjrVHGNL9RqMGAaRRsJ9FSB5m+h80K3wtVH3lUeOv9+0cKFH5utldUI16+/9+M2hc4T+h+WViZJfF9tngIw+C8s8iJWrcdbt8Kt+njxxT1XGO1zzz1bdbOyI0eOXNEuuNU6t8DKZ6zc0VoUACKyEiL6TETaXhR/r+vrM7Hu/x13/PMVRmthMKBWICtXrLiibUXFg/OS65Y4oN7pfRGQSrzHEqi0hSS3wgHdArfq48SJE9MarN6BV33o1EQr8aIdaEeZHEhEdnldADD4j4QpM2F8u5aFdf+3bNkyrcGuX7++av/P3n///Wzh9ddP20bfYk570cRWOeD9yoA6kKHVzvI+EiMkDuhj96qPDz744FOD/ybjb2Uw4KZNmygAmD0TJAe8Hgwo4v48WVT4HaOHA5L99qWXqvb/sTY0i8XTTz9deTtn+pqiWft5Hb3xmwOeDgaMomip38CTOMSvGA7olrcXL16s3FjvXL266V3VTTfdWHk7tQGttBW+FsNXcK0WV/VS78YCpOK2QZxqiQP+NvHf9uijlZtqO7vuvfbaa5W393f79zctVuC7Tb4Tl27j4rb5WAAcJ/DdBp7P145DqWRnzpyp3FB/+YtHWjbUdeu+V3l7dbGkJUtuaLnNteMNYwCCjb2IDHtVAMRxvJwExLzhwJUc+M7d367cTHXw3+LFi1sWVF2SV5fmrfr41WOPtdxmuHcl98DEX0y8+hqAx//+Eg2RKDZ2r776atU+mh040P7j9B07dlTebn1yojsnwlEwCI8DHn0NkIrj8T+P7BDqSRzQdf8tHP92111tx0a35616zwLFTp+ghCf+GD4xl2NefA3A43+SlWSdmgMW1tcfGRnp2EAt7FqobYBfU/MLXOqNi3qr+SIgSeInIGK9iUh824+vrvuvq9pVfegMhE7jd88991Td/LHr65OUTvvA59rnLpjZwEy91XwBIOJGIIwNwhAHO3F48MEHKzdPfYS/dMmSjs3TymBA3UERbtvhNrEoJxbqraYLAHb+K4cIJJx/OFtY9//gwYNdG+fjj/+68kLmr+++m+kyxeSBf3lAzLqLmemvAeLYPUOAuwsw+NUPv6+vWlW5aWoD1q79ZtemaWUwoO6kSK7UL1eI6cwxtfw1wGwe/88cPMgdJj6Dg4OVFwBjg/9ymkL38ssvV96f4eFhCoBJs0zQl/rri9mvAVj7v/7kQ2Daj7GuXmdh3X99dJ9X/PRJgoXj9ttuy61PeWHDedrPETBrDzOTiwKlUbSRQLYXSPCqP166el3Vhw7+W7asPz+zNLKc8d69e/PrE3fTYOkLB6Joo7nBgKm4IQyt/oZGjNuIsRGjfOWVV3IX9+3bt1dd12Sjo6OZ7qwIJ9vgpC8mRzun5bWIO2yqAOjp6Zkr4v5OIpKIcOATDliZN6/tyDsu+tWGhZUB29nUKG8MON8nXAeL8rBIREbVc80UAWkcr4EA5REArP3A2sI2urqJT+9nF+ReACgHdVph1Uc72xqTN37kDXFqIU5xvMZMAZCI7CJoLQSNx1qFGJFF7q1Y8U9Ve+PY9XUTn6LwGRi4y0QftR1F9ZHzomsWOaCea6YASEVOWQSJNpG8VXHgN7/5TxPmmOvgvykKWL0Dr/o4dOgQBcAUsamK+1y3FN09ZaIAYPpfKcFG4DwSOCvr/utXEEWLse4tUPUxNsuhP8dZDh5xrej4cn67+m5iOiDT/+wShOStJjY/2/jTqj1x7Pr33vv9wgsAHYVvYTDgU08+WXhfyadq8gncp8HdwnRApv9NExzuIoIV5JMnT1ZeAJS5Xv7v9u+vvL862FE3K8Is0KNQOFD5dECm/5FsoSRbq/28c/Xqys1QG1Dmjnlr1nzDRJ/Xr7+XAoAbj2A4UPl0wNS5Va0KI++jWAiBAxbuhtWNb7rpxlKF0MJgwCNHjpTa5xD4TB+N67ZzqyobDJiK2wZBjBOEO4LSTMHK4jhVGKEuyGPhWLliRWnxRvvQvuo54LZVVgDodxDVAwAJiYENDlhYHldN+Ec//EHpJqiDAS1serR7967S+07+2ci/EONQ2TiAvkZjjn4HESLo9JmEn8wBHYB25syZym+C33///ayvt7cSE/ztSy+Z6P/C66+vpP+TOcHv6ETRHBBx7zUajTmlPwWI43h50Z3j/CSQLxxYt+57lZufNkAXIKoKMysDIDdt2lQZBlVhz3XD1Ur14tILgCSJ74N04ZKO2H869v/zp/82UQCsXFntd+AnTpyoHAdtA/z8ND/Bo754qBeXXgCIuEFIVV9SEdvWY2tl3f833zxaufFt2bKl8gJAG6BPI+Bw6xwGK3+xUi+uoACQs5DGX9IQu/xipwPPLBw/2bChctNbtHBhNjo6WjkcOh0TjufHcbC0i6WIGym1AEjT+YsghF1CEJvyYqMDznTgXdWHtuG66/pMmN7evXurhmNseWKdlkkulJcLYF0d1iLSV1oRICJrCXZ1wQZ7O9hv3rypcrPTBvzf5583Y3Z33PHPJjD51WOPmcGEnLWTs3WMhXpyaQWA7kVcRxDpE0naLgcsrPuvbnv7bbeZMjsLgwF1Wmaawul2Oc37/eNMHLtnSisARGQYkvhHEmKWb8z+9V/uNHGn+5e33jJl/soznYpn4fjO3d82hw15mG8egqfi6Y6WUgCkaXo1VTUEJukk+6/f/96Cx42ZrbV4WBkM+Oqrr1IAsBx4/TmgT7rS9OrCiwAWAML8rZlNFe2xsu6/jrhXs60Cg2bXfOGFF0wUSDcu/4JJfJrhx+tobTscKGVBoCRx69ppFO+FxHXkwOOP/9qEuemIe6v46rgEC0eZWyNbjQXtqr8OqzeX8ATAPQOZ6k8mYjx9jHXd/3Pnzlnwtuzrq1aZLQCUQ8PDw5Xj9Nd3382u67MxRZK8mj6vwKY7bEoZCJiKGyJQ3QUK/PzGb/36eys3NW2AD0vePvjggyaw2rDhAdOFEprgtyZYiF8pOwOmcXzeQmdpAwlTFQeOHDliwtQe2rLFvKnp4kQWFkrSJxFV8YXrolVlcKDwFQGjKJIyOsI1SBirHLCy7v8HH3yQ3bB4sRemZmWpZGtrJVjlOO2U8JFwAAAgAElEQVTyV3/VowsbB5Ak7iuQw19yELvuY/f87t0m7v5/+9JLXpi/ck53KLRwWB4wSW52n5tgKJl6dGEFQBpFGwEZoobKAV3338JGN2qmugiRT3F44403Kq8BNHaLF3/OK9x8ijFtNeANUbSxuAJA4j0E2UCQWdijEhG3stXtqVOnKul/N7n/wP33V14AaAN++YtHvMOuG9z5bGh6He8prABgCeDQyER/LxdQK+v+b9261TsT6+vtNTEY0Mfi6XIO8n80aWYOFLQkMEsAQ7yZiVdvfNas+YaJO9gPP/wwW+zJ4L/JfHnuuWdNYDgwcJd3BdRkLPm93nrTaXxF3HuFPAGIomhpp43ic5DVdw4cPHjQhHnp/gO+YmllMOChQ4e8xdDX2NPuEj0gnb8o9yIgdW4VQSwxiHzPb0ak+/v7M73ztnD8211+371aWENBY7msv98Mv9BVdDVXDji3KvcCIEni+3JtJAaHAHnCgaeefNKC92cjIyPec+ZHP/yBCSw1pugZxltHDqhXF1EAPFFHsOgTIjATB3TwmpV1/3/12GPem5biqWvzV31oTHVPh5liz2tog48cSJL4idwLABE36CMYtJkk7oYDVu5Y9bH10iVLamFYujufhUP3dOiGG3wWbbHIAfXq3AuAVNxRi52lTSRhkRx4/fXXLXhVVqeBazfddKMJTHU8QpHc4dxoUzUcKGAqIJsAQeZqyFwd7l++5RYTRqWNuPtb36qVWQ0NDZnAduWKFbXCNbQcpb9T6GMcn8/1CcC8efPmAfQUQHsyiI3YdRa7F154wYRJ6ffVadpZH6zGft2675nAVvd2sIoR7aoX58uMp3p2bkUAawBAxDLJa+Faltb9f/zxX9fOpHQAnoXBlbpVscbaAudoAzqbFwfUs3MrAFgDAGLmRUxfzvPwww+buEMdm7O+rJ5z1nfs2GEC482bN1EA8DSzXhzIcy0A1gCgAPDFuPNq5+nTp0yY0x8PH66XMF1mNLoYj4UFlk6cOFFbjPPKB87jlwfkuhaAziuEAH4RgHh1Hi9dK97Kcc8999TanLTAsXDcuXp1rXFGDzrXAx+xy3UtgFSi/T6CQJvDIn1e8dYpdxYO/Y6897MLam1MWuBYOH63f3+tcc4rNziPL5qa47bAqbghAu9L4GlnN1y1tO6/fkfeTV98+KyVwYD6VcSSJTfUHm8fOEEb89BwN5TbIEARGSYoeQSFc1jnkZWBaXpXrAvmWMcrj/bpLAcLRx2WWs4jHpzDf51Wz86tAGARIP8JQVI3j6GVderVDHWhnFBitmyZjcGAZ86cqd16C6FwiH5+Wt9E3EheBcAcwP00uOBRTzweuP9+CzeiY20IbZ36l19+2QT237n728EUXuhYPXVM45qIjPY1GnO6LgKiKBKIUl+iENtPYvvmm0dNmJDulqdPI0KKjS51bOF49dVXg8I9JI6F1lf17q4LgDSdvyg04OjvJ6YYCha33vpVC/4z1oZnd+4Mz4RSyfQRvIXjxuVfCA//y9ZnCCXna9/PdP6irgsAEVlZe6Agf/CC9+KLeyx4z1gbQhn8N1lXtm/fbiIGul3x5Lbxe3g3Bb7HPI7j5V0XAGkcr/EdCNpP8s7EgcWLP5eNjo6aMJ+Qt6jVaXgWVgbUr2Cu6+ujCODGyG8O5LEccJK4dTOJJ69hrr5z4Je/eMSE+WsjdCCi73h20/6DBw+aiMWGDQ8EHYduYshnbXiCenf3TwCiaCMBtRFQ4lBAHFLJrKz7rzvThTb4bzKnrSzDPDw8TAHAEwC/ORBFG7svAMRtm5yk/F6AEZFslSTb2rXfNHHHqY144403KsHAWj6fPn3aRExuv/024oEuecwBt63rAiAR2WVNIGgPBUheHHjllVdMmM1EI3QMwA2LF3ssOt1zc9ujj07AUenPvXv3Bh2HvHKM83SfE51gGMfuma4LABHZ18nF+Uw1QQf31nHX6V4WBp1NdrmRkZHsy7fcEqz5WBkMePHixUwHiJJTrecUWNnBSr276wIgjuODBNVOUIlFfrF4+umnJ3uvmd8/+OCD7MEHHwzWfA4c2G8iFjpAlJzLL+fAsjwsRdxg1wWAiDtM0MoLGliXg7Wldf9ncjp9DB3iwMA1a74xEyylvXbq1CkKAMYBeMkBvXmnAIC8XpK36EJIp3n5cugSxUuXLAkujmq+Fg6dmVA0Hzl/OYV/SDjrzXvXBUAqbigk0OhrGIl47NgxC97SchvOnj2brbrjjqCMyMr6DIcOHQoKdzSwLhrohvIoAI5CiLoQgn4ol3V6l4+HDkrbsmVzMGakA/C0z1UfOlB0WX9/MLij93XRSXe06wJARIYhRF0IQT+Uy/v27a3aU7q6/uDgYDDjAn770ktdYZXXh5968kkKAL5O9YwDuRQA7iQFAMZZFw5Yuavs1pj+8tZb2bJl9b8rvXP16m6hyuXz586dyxYsSD0zAHSrLrrVST/05j2HJwAUAJ2Az2dsis/WrVtzMQQLJ9FNa+68c3XtTenEiRMW4M7Wr7+39lijWzZ1q5O4iLiTeRQAI51cnM/Uh0i1iaWhPefzcjT9jrzuc9Uf2rIlL7i6Ok/IOzXWRgMC+hpDxI10XQCkcXye4GPmdeDA3d/6VlcGYPnDBw4cyK67rp5b2C5auNDMds0rV6zgKUBAJuq17sXx+a4LgERk1GsQICuCdYkDfzx82LKHd922E2+/nenyxnXMVysDN5/fvbuW+NaRM8H3KY8CIHgQKSBqIXhqjCEcOi5AV9GrW97qGggWDt2yeeH119cO37rxhf5IpjfvXT8BAEge/9eBAzt37rTgH6W0Qeet/+qxx7I0rRd3rQwG3Lx5EwUAN0ZecKDrAoCvAOolonUw83b7cF1fX6Z3xqEdutVxne5W1XgtHFqItMtB3o+Ols2BfJ4AMAiQZPe82tdd9UI9Tp48md1004214LClwYAhTL8s27C4Xs5FUh5jAHQqAYHJOTCeG6pvfPBt3f+8ixX93vo7d3+7FkXACy+8kDc8HZ3vd/v31wJP33KZ9rbuRblMA9TFBAC9ddDByhZWVgaPdeQyOX9Il7NdkPq9mt3tt9nYx0HHWSxZcgNFADczZjmQ10JAFACQ3CzJmxVcVtaSz9nLOz7dq6++mumj9Ga4WX59eHi44/7n+cHt27d7jaPlGNO27m+kcioA2AwIMnZPxiow1Ds0C7vJ5Wk6eZzr1KlT2Zduvtlb8/rZxp/mAUPX5zhz5kztZlpUkadcsxh9zWUvgFQc2wHzBMBLs9j26KNdi3xdTzA6OpqtW/c9L+OqKx7quAYLR13GVmDCxZhwtbjmsBtgKm6o2k7UMTD0qXBO1XDd/yIMT9dH8HGXO12Rz8KhX6kUzmVuQMC4Iw64oa7XARBxhyE4hu0bB/TOjKM1BIaGhjLdJtmnGK9cuaK1zpXwrrouv+wTH2jrlR6l3k0B0FHldCWYEMwvTPTOjKN1BE6fPp19+ZZbvCoC3njjjdY7WOA79SkK+uCXPoQQrziOD3ZdAOhJQgCLPtYngUNZ9z9vT/vggw+82vN+w4YH8oago/PpKpO62iQaUh8NqUMsRdxg1wWAiOyrAxj0IZzkfO65ZzsScj40jsDu3buy3s8uMG9olgYDajGCxoSjMT7EWr276wIgEdnlQ2dpI8mnHNA7MSsjxH0uKI4cOZItXbLEvKn95jf/aQJmXZsADUKDLHFAvbvrAiAVt81Sp2gLSTYTB6zMEVdX0u+oH7j/fm/XIjh79mymK+/NhHfVr1kaDHj77baxqjpWXL9s7Xbbui8AomgjgSs7cFyvU85ZWvf/Jxs2jJmnmqiaqY+HLqS0aZPt7W/1aYWFY+/evaaLpU5zis95qsdRtLHrAiBJ3DoI4CkBApsB8fVVqyz4wFgb9GsI/Y56Inf0cfpf3nrLTPvabYiaW19v78f9meiXhZ8/+uEP2u1OIe/XYsm36ZQW4kcbivEX9e6uC4DUuVUEqJgAgWu+uA4ODhYi7J2cVBeqmRxfNVBLbWy3X1rA9PcvvaJfk/tZ9u+Kq47Et3D88hePmMOn7HhwvXx1rWM8nVvVdQEQx/HyjhsQ2B0oOFVHfF33X3dos3LceutXpzWCh7Zs8XZcwLlz5zLdYdEa13UuvoVD91mwhg3tqU6XqsRevbvrAiBN5y+qshNcO0zytht33ZnNyqF3ys3af+edq83ctbaLmz7qfvjhh5v2sRkGeb5+0003ttuNwt4/MHCXKWzyxJlzeaTH6fxFXRcAURQJQfco6AE+ddG17HVnNivHgw8+2JIBLFvWn1nZ2rYT7A4cOGBqARxd0tjCcejQoZbij66iq0VyQL276wKg0WjMKbKRnJsk6JYD99xzjwXdH2vD5MF/zfqm6xaoYfh6aAGjhUyzfpbx+r33ft8EjPpV1LJ+G5iUgTvXsKjh8YVGozE7jwKgkcbxeYJsMci0SXlp5c5P3WeqwX+t5I5uXWxpDEM7TqoD8Nas+UblRYA+CdIxChaOHTt2VI5HK7zjPfXUUBE3kov560lEZBii1JMovsd1xYp/sqD3H7dhpsF/M2G9IE3HTNTXVQy1eNEiZqY+lvGaGq+FQwsRH7dZLiNGXKN4L1HPzq0ASMUNEbTigwbG7WNsZSlYNZ1WBv81i7EOZjt58qQFD+uoDfp1xuXrHzTrb96vWxoMuH79vZUXRHnjy/na16hqMHNDuRUAbAjkS9DDaqe1df9bHfzXTBAWXn995vN2xifefjtTI27Wz6Jet4KdrlBYVB85b1ha13684z25FQBJEj/RfgMIEJgVywFdotbK0e7gv2bc0K8EnnrySSvda7sdisfAwEAlBmhpUOjKFSsqwaAZv3i9WG2qGl/17DwLgPuq7hDXrzdhO4mvpUfl//f55wsR+u/c/W1vdzfUcQGPP/7rLE3L5a6lwYCdDgrtJB/4TLk8s4x3ksT35VYAsBwwxLJGdl1Ix9LR6eC/VnDVu8jTp09b6m5bbXnllVeyRQsXFlIgTYeflacn+iREv9KZrp38HW0thAN5LAM8UUFEUbS0kEYGuGgNOOaT8AcO7G/LhIp8cx6D/5rxQjeZsTTdsV08dYncMh+H6zx8K9MqN2+2vZtiM+7xej6aVSaO6tkT/t31z3nz5s0rs/Fcyz/ClRkza+v+/2zjT0u5w9NH288992y73mvm/Xo3rF9plMUVffJg4Thx4kRpfS4LW65jW6PVs7s2/stPwGJAtgMeUkLq98pWjtHR0dKnven0sg8++MAKBG234z/+Y0emgxyL5qwWG1YO/cqq6P5yfjR6jANxfP5y787l/6m4oxAMglXNAUsDvNRcXnjhhUqE/cu33JKdPXvWir+13Q6dqqdfaxTKp1TM7BHxu/37i+0rX6eC78cccEdzMf3LTyLiBgtN1o8bj8mC8/QcWLfue22bTZEfuP222yoTnqVLlmRvvnm0yO4Vem4d2Pilm28uFD8ru0TqeAT96orcnj63wSYfbNSrL/fuXP7PWgD5BAeSd4fj//zpvws1pXZOXsbgv2Z86evtzfbu3dtOs029V79C0aKuWT87fd3SeBEtRjrtB5/rTjdCwi/XNQAmqgedVxgSiPTVXsJZW/e/rMF/rXBRR5pfvHjRlLm30xgd3Nj72QWFGOTBgwfbaUph79Utq8teE6EV7vAee1rXTUxyXQNgogBgLYB6kaQbglX1WV1UxcpRxeC/ZrivuuMOM7vhdRInXTr3hsWLcy8CdEVCK4euUtgsjryO1nbFgTzXAJgoAETkH7tqFN/xk/hdcEAXU9FpZFaOqgb/NcvB/v6l2fDwsBWY2m7HyMhIpgMcm/WzrdcNDQbUwY9ttb2LnOE6YRYS6tUTvp3bzzRNr+bxVZiEsiAkP9+8uW0zKfIDVQ7+axYP3STpwIEDRXa/0HPrFMe8NlaawEq3KrZy3Lj8CxQBFDbFcECX3U7Tq3Mz/stPpHsMTyQUPykGyuSApXX/LQz+awX7rVu3mlkNrxPz1cGNOsixlb42e4+lwYDP7tyZS5+a9ZnXw9No9ejLPTvX/6cS74FU4ZGq6pivWfONTvyjsM/oLoRVY9Lq9RW7v777bmFYFH1ineao0x1b7e9M77PyVETjoU9pZmorr6GznXEgx22AJ1cPaRRt7KxRBBPcOufAf/3+90X7TMvn18F/ZW9s0y139JHzibffbrmP1t6oCx7pAMducbBUSG7Y8EDX/ekWDz7fuSaZxS6KNk727dx+TxL3FbMd5zulWgpKv6FNXdQYrQ7+a5aX113Xl1lZG7+TAkOnOG7ZsrlrjuumRBYOHajZLGa8XkODLtin1KNzM/zJJ4qiSCAlpCyLA7pevKV1/9U4br+9upX/usY9lTE8reyS14kRDw4OdjUu4Je/eKSTyxbyGa+5VLCRdc31QNunHj3Zt3P9nU2BKADKSk5r6/7XZVc3nRdvaUplu+6qgzCXLevv6A5a9x+wsmCSDnIsK5e4TgC6XcQmQJOrh1TcEGQKgEwGKmjd9c7S4dPgv2Y5unLFiszK4/BOYqwD6TrdYU+fIlg4tBApfEMkA3ncjIu8npefuKHJfp3773HsniFgeQWM88zEJV0Zzsrh4+C/mbDV13Qw49DQkBWI226HGqg+0m/Wz8mva+Fg5eik/ZP7w+/oqHJAvTl3w598wiRx6yAchCuaA9bW/X/xxT1tG03RGOVxfv2a5emnn7bihx21Q6f36SDHdvDQr3MsHPoUpp128160dzoOqDdP9uvcf4/jePl0DeDvkDMvDuhoe0vHHXf8c62FWnfk06ccvh46zbGdFfYe2rLFTFcHBu6qNbfy0gTOM7O/qDfnbviTT8iSwDMHAZJ2j4+u+2/JjOoy+K8ZN790882ZrsXv66HjAnSuf7N+6uuWBgMeOnSopTa30i/e073+eIlhkUsATy4CWBI4UJKVNKDI0t2ZmqFuteulKHQQL92Nz9LYi3aLEZ3i+KvHHmtp2919+/a1e/pC3q9tXtbf2ayGUHhJP2f2nEKXAJ5cACQiuwjIzAEBn87xOX3axmItqvZ1HPzXjJs6LkCnqPl86KJH+iRppr5+fdUqM13csWPHjG2dqR+81rnW1AU79eTJPl3Y7yKyti7A0Q9byfNvd91lRpS1IXUd/NcK73VHPitz5jshhW4gddNNN85orFYGA547d66rBY5aiSfvsaV1ecZDPbkww5984jSdvyjPxnOu+hKz3dgePHiwE60v7DN1H/zXLD667bGak6+HLnj0nbu/PW0RoF/vWDnWr18/bTubxYnXw9ZQEemb7NOF/i4iZyFd2KTLO/7W1v0PZfBfszj29y/NdPU9n4+nnnwy06WlJ/dV10KwMuBUx15Mbh+/o7HNOCDiRgo1+6lOLuIGmzWM1yFvOxzQ70EtHT/f3P3mM+303/J7+3p7Mysr6HXKkVdffXXKnRz1ax4rh67QaJkHtM2epqsXT+XRhf4tSeL7IIM9MvgaEzUYS4+aQxz81wp3Hn74Ya/HBejCO5NNVr/msHI8v3s3BUAHs1da4W5d36NeXKjZT3VyFgTC/PNMqB/98AdWNHisHWzUMj2/dSldnXPv66HjAnTho8v5q9vzWji0bc1mL1zebv4/PU9DwaaUBYCmKALmiLj3QgGZfhabaG+88YYF/f24DavuuONTBkH8Px1/3Y1PV9/z+di5c2emUx41tj/b+FMzXQlp3Qny6tN51S4eichoX6MxZwp/Lv5PIu5wuw3m/d0FvI74ffmWW8yIrzaEwX+tcVTX39dV7Hw+dDMkXRVQ+2Jli2T41xr/6qiF7fZJPbh4p5/mCqm4be02mPdD7skcsDQIS81syxYG/02O0Uy/68p7Ph+nT5/OtAjV79+tHJ1udTxTnHitltr70DT2XPyfU+dWQapakqq0x99692VlGpaKP4P/OuOzrsFv5Q66UxPXrwSsHL/bv7+0HETDO+O8BdySxH2leKef5go9PT1z9TsIC0DQBj9JrKPKLR0M/uucR7rqnq6+x9E9Aro/wJIlN1AEMCNgBg7EF9SDp7Hncv7MOIDOBZOiRTJL6/6rbOv68MSlc07rCHadb8/RPQLbt2+HixQA03Kg0u//J8qLNIo2IpidC2bI2Ok+6JYOBl/lw2Ndcc/aok6WeNZqW86cOdPSroYha0jQfY+ijRM+XNnPKIqWBh0EKtRpK9RmvHj55Zdb1cJS3rdly5aO+9KsryG+rmvwWxrfUQqJcr7IPffcAyfR2Ck5oN5bmfFffuFU5FSIAkefO79jtLbu/wcffDDlMrHEuPMYK3ZfuvnmTEfZc3SGgH6dAge742BN8Tt1uQdX+n/di7imIJN8BVXf//Efttb937dvL7EuKNY600Pn23N0hsCNy78ANwvipq++FcfumUpN//KLp3G8xlcgaXf51bWu+29tKVkG/xXLA11x77nnnu3MAQP/1LM7d1IAUAB8mgPOrbrcgyv9P9MBixXPuhUpD9x/vylJZ/Bfefxdv/7eTL9u4WgdAS2Wr+vr+7QBYIgB42Fg+t/kioPpgOWJqO8FwZtvHm1d/Up450MM/itVTHXVvbNnz5YQ2fpc4icbNpQaI981ps7tNzH9b3IBwHRACoBWks7S1qtqDwz+q4a3S5csyawVgpbLBd2tsJX84j3V8LlU3C1M/5tcADAdMADi5fDYUVfas3T89qWXENYc4tqJAOpYkMHBQUt0MN2WO+74Z7haEVc74XdRnzEz/W9yESAi7xTVac7rf4Gho8EvXrxoSmQZ/Fc9r36+ebM5Xpgi6aXGMFOleq5W7UPqsZN918zvOjWhaoC4vt0k+eUvHjGlqwz+s8OVVXfckZ07d84UP6w1RotnLaLRODu8LTsWpqb/Ta48RGRl2YBwPU+SIbW37j+D/2xxp79/aabfdXNMj4AW0WieLd6WGQ/12Mm+a+p3ETdSJiBcy49kWLv2m9OrWgWv6OC/GxYvRkyNfaeq090OHDhQASP8uOSpU6fgrDHOluVB6q2mzH6qxiRJ/ERZgHAdP8xf4/TKK6+YUlgG/9nmztatWzPdEpfjSgR0Ey20zzZ/i4iPeutUnmvqb3EcLy+i85zTX8LrUqbWxPzO1asRUeN3UmvWfMPcipFX2nH5fzl06BDcNc7dIvxKvdWU2U/XGL4G8NesiyDuzp07y1fJGa7I4D9/+KnF48mTJ2eIZngvaTG9rL+fIiCoIsAdn85vzf2drwH8EdgiDP/yc1pc9//hhx9GPD0Sz4XXX2/uK6Sqy44dO3bAYY84fLkmdvZ/t82c0U/XIL4GoACYIPmGDQ9UrZWfur4O/lvM4D//zCOV7PHHf/2pWIb8i06Z1OJ6Is/4WW/N9ebx/0RRkIocg5T1JmUr8T127JgpnWbwn9+cHBgYyN5//31TnKqqMevXr6cACOIpgEeP/z8pANy2VgyC9/gtyDPFT5cutXYw+M9/vq1csSLT6XChH0eOHKEACKMA8Ofx/0QBwN4A/gvtTObeymt6t23pYA51fTi5aOHCbGhoyBK9KmmLFkOt5CLv8Zf7Ztf+nzD76X6KuD9DPH+J103sLK77z+C/enFxwYI0szbDpOwq4PnduykAavwUQD10On81//ckie/rxkT4rL+Cve3RR8vWwhmvx+A/f7nUTAfWrfve2LbOMxKgpi+Ojo5mOkuiGUa87if/1UPNG/10DVwwd25PKvEFyOcn+TqOWyrZmTNnTEmubjvbcX9qfIdRF0y+fMst2cjIiCnOldUY3U2xLnGkH594hYh7Tz10On/14u+pxHsI6idBDQGL79z97bK0r+Xr/Ou/3IlI1ryQ0b0ddGBcaAcLW9VTXxORXV6Y/EyNZIfAepJzpkLmj4cPm9JgBv+Fw0EdF7B3715T/CujMRS49eO4+Z3/ZjL+y18TcSdnMgxeqw95delWawdbqNaHX61qxc82/jS7ePGiNSoW1p4DB/bzhKtGT7hE5J3LPdTr/6dRtLHVxOV9fov1s8bW/Wfwn9986kYPbr/ttkxXzAvh0P0Bliy5gSKgLkVAFG302vQvbzyDAcMQYd3L/a/vvmtKbxn8Fwb3pisU+vuXZn956y1TnCyqMdu3b6cAqEEBIOIuej/47/ICQP8v4ganS1L+Xg+RfvDBB4vSto7Py3ej9eBWNxqha+YfOHCgYw758kGdeZOmxLsbrlj4rHrlZP/0/vckcV+xAC5tKE4grK37z+C/4mLtYx7pQlB1Hxdwzz338BTA86cA6pXeG/5UHWAwYH0F+eurVpm7UWLwX3351mkBcuedq819TZVn4rz66qsUAB4XALUa/De5CBBxP+80cfmcbTG3tu4/g/9s86XKfF62rD878fbbefquqXPpTJwq8eXaneeeeuRk36zN7zqwQVc3giCdE8Qidjr62Nqj1d/tZ1qURa5YadN11/Vlhw4dMmXceTVGZ+JYwZl2tK716o3z5s2bVxvDn6ojceyegRStk8IHrH712GN5aVdu52HwX704VlQeWNuzIo8E0Jk47A/gH//VG6fyzFr9LU3nLxJxfy8qoTlvycQ3uO4/g/9K5oDH37mqXgwMDGTvv/9+Ht5r5hw/2bCBpwAe8VKn/qk31srsp+sMUwLrI9A66tjasXXrVsTPI/GzULSvXLEi08KxLsfrr79ODniVA/Ge6fyydn+P43i5haSnDd0XIq+99popzWTwX/cxDTUvFi1cmOko+rocujlSqLH0rd/qibUz+pk6lIob8i1ItPfT5rJixT+Z00oG/306RnC2fTx27NhhjtedNOjee79PAeDFUwA3NJNX1vK1NI7XIE7ti5MlzH7zm//sRJcK/cyaNd9A9LwQPdvc1y2tR0dHC+Vq0Sd//PFfkws+5IJzq2pp8k06NUtEhi0ZGm1pXZR1lLE1gWTwX+vxg+vNsfryLbdkIyMjRft0Yed/8cU9FADGCwD1wCY+Wd+Xk8StQ7sGmokAABNwSURBVIiaC5FFjHS7VWsHg//85JJFfk+0afHiz2VHjhyxRvWW2vPCCy9QABgvANQD6+vwTXqWpunVInJ2Itn46Y+Anzx5siURKutNuh3qYgY9IfgFCH7vZxdkFr/uapZbOpYBTTWsqXF8vtFozGlik/V+ORV5CJIaJukUgnrn6tXNtKf01w8cYOU/8qjYPFq//t5MZ5n4cmzZsoUCYAr9MpQnD9Xb3VvoXU9Pz9w0js8bCgpJ0yRpdKS9tYPBf8WaH/k5jq+OCzh79qw1+k/ZHnYGNJwTcXxeva8Fi6z/W3gKYJiok4qBpUuWTCk2Vf7xnXfeoWibFCcMu7ic6u9fmr3xxhtVUr6la99++23khd284O5/orThKUBxYpW3EWzfvr0l8SnzTQz+84c/efOxqvP19fZmg4ODZdK8rWvp0sbaxqrw4boz5CR3/xPW/8lPngLMQBgjVeyCBWl25syZtoSo6Dcz+M8+b+psBlu2bDa3E6bmnBYndcbd875x9/+J9Y//b+wpgLgRzwNb66Rbt+57Rft52+c/cOBArTEnH+wXOKvuuCPTHfgsHZqrcMced0TcCN/9T3b/S78nSXwfpLVH2omYDA0NWdK4sbYw+M8uXyZ4E8LPG5d/IfvLW2+ZyA8dpHjddX0UAEaenF7Of/W4aeyPP+ucyJSnACYT1+K6/6z8h/lfLq5V//+6vr5Mn0hVfTz44IMmNaTq+FR9fb377wt93n+zMoenADZFfffuXVXr2hXX3/boowidwbucqoW26usrL3VsShXHsWPHyAmjOcHdfzP3H3+dpwDGCKzbpOqoYmuHTkmsWuy5vs2Cteq4DAzclf3tb38rPWVuvfWr5IQx/VQucvffmvmPvYunALZEdfPmTaULWbML/tfvf4/QGRS6qo3X0vX1azO9Iy/rWLv2m+SE0Zzg7r+NAkDHAojIO5aSOeS2nHj77bI0rOXrMPjPVpEYcn7M1HcdjPfbl15qmdedvvGB++/H/I2av3pZe/bHuxupc6tmSixeK8cA/vVf7uxUkwr7nG7RSvzLiT8454OzGnQR22fruhw6DZE45ROnQnB0bhWW3gECcRwfLCQgRitFi321MKp5ciXB4D/DYkduTWvG+pXAyy+/PJnOHf+u57qBHTCnxduCnqqHdWB9fEQRSNP5i0TcRQuBDLUNenehu/9Z+qeDEkONB/32v/jRnHr99dc7Nv5Dhw5lrPNvnwdj3pXOX4Sbd4FAksRPIHr2yU6MiBEcaI8DauI6vbaVGTbDw8PZU08+mX3p5pspfj15yqTe1YX18VFFIIqiz4i4M4hLe+ICXuAFB/zggA4U1EGt9977/WzTpk2ZfsW1ZcuW7Ec//EE2MDCQLVvWj+l7YvoTOSciZ9W7cPEcEEgSt24CWH76IWrEiTjBATgQKgdEZG0O1scpLiEwKxU3FCqZ6DdCCgfgABzwgwMi7k84d84IiMjnSQA/EoA4ESc4AAdC5YB6Vc72x+kUgVTiPaGSin4jqHAADsAB2xxIRHbh1gUhcO211/6DiHuPJLCdBMSH+MABOBAaB9SboiiSguyP0yoCDAhEWEITFvoL5+GAfQ6oN+HSJSAg4g6TEPYTghgRIzgAB0LggHpSCdbHJRSBKIquTyW+EAKx6CMCCgfgABywzIH4gnoS7lwiAmkUbSQpLCcFbYOfcAAOBMCBKNpYovVxqUsIzBKR/yXBAkgwz1YBg5NwEg6EwQH1oEajMQtXrgCBKIqWsllQGImGoBJnOAAHLHFAvcc5t6QC6+OSEwik4rZZIgVtQaTgAByAAyFwwG2b8CF+VofA7FTkGAkXQsLRR3gOB+CABQ64441GY3Z1tseVP0YgSaIVJIWFpKAN8BAOwIH6c8A598WPDYj/VI9AkkQ7Sbz6Jx4xJsZwAA5UyYE4ds9U73i04FMIpGl6dSrueJXE4NoIExyAA3CgvhwQcSfVaz5lPvxiA4E4jpezQFB9kw9hJbZwAA5Ux4H4Ajv92fD6aVvBAkEIRHUCAfZgDwdqywEW/JnWd029kIobqi0JWRQnI7aYDByAA2VyIEncIVMmR2OmR0BE+tI4Pl8mQbgWggQH4AAcqCEH4vh8HMduesfhFXMIpHG8hmSsYTLyBIQnIHAADpTJgTheY87gaFBzBFKJ91AEUATAATgAB+BAJxxIRHY1dxreYRKBefPmzWNqIInfSeLzGXgDB8LmAFP+TNp6e40amxqYhk1khIz4wwE4AAfa4EAqGVP+2vNas+8WcT+H/G2Qv8zv17gW3+fCAThgjAPqGWYNjYa1j4CIG6QIoAiAA3AADsCBmTkQ7W/fYfiEaQR6enrmjn2nY6zSnJmIJCr4wAE4AAfK4oCIvKNeYdrMaFxnCERRtFTEvVcWmbgOwgUH4AAc8IMD6g3qEZ25C5/yAgERWUtC+pGQxIk4wQE4UBYH1Bu8MDEa2R0COrezLFJxHQQMDsABOGCbA2zx252nevVp3c5RRI6QlLaTkvgQHzgAB4rmgHpBo9GY7ZWJ0djuEEjTa3rZLwBxKVpcOD8cgwOGOaB7xqRpb3duwqe9ROCjyu9rKYsEMQeZmSFwAA6Ex4HxxX6+5qV50eh8EGCRIMPVOaIcnigTc2JeEgdY7CcfD/X+LCKyj8d0FAJwAA7AgTA4oJrvvXHRgdwQmJMk7jWSP4zkJ87EGQ6EzAE31Gg05uTmHpzIfwQWzJ3bk4ocQxhCFgb6Dv/hQL054I6r1vvvWPQgdwSiKLpeRM7WOwEQOOILB+BAeBxQbVeNz904OGF9ENDtg1kuODxxwBCIORyoLwdU01Xb6+NU9KQwBJLErWZ6YH3FAKEntnAgIA7oVG/nVhVmGJy4fgikUbQRkQhIJEqaegSn4BQcKJcDSRLfVz+HokeFIyASP0uylpus4A3ecAAO5MWBJImfKNwouEB9ERBxg3mRkfMgbHAADsCBsjgQ7a+vM9GzUhDoazTmiLjDJG1ZSct14BocgAPdcUA1W7W7FJPgIvVGgN0Du0tGxAz84AAcKIsDYzdsaXp1vV2J3pWKgC4ewRbCiFhZIsZ14BocaJ8DYxqN+ZfqjcFc7FIRMExitp+YYAZmcAAOFMkBNX9W+QvGjqvpaBRFIiIUAUybY9c2OAAHjHBANRnzr8YTg7vqeBHgThZZzXJu7pbgAByAA805IOJOqiYHZ0R0uDoERKRPiUeCNk9QMAIjOAAHiuCAarBqcXVOwJWDRUCJl4obKYLYnBPBhANwAA7MxAE3gvkHa782Op6m8xfxJGCmJOU1RBwOwIF8OSAi76j22nABWhE0Aml6TS9FQL4JjmCCJxyAA1NxYNz8096gTYfO20JgvAhgdsBUCcvfEHI4AAdy4sCxNMX8bbkfrRlDII5jJyL/mxPRmWJkZIoR8cS84IAFDrijqrHYDQiYRWDevHnzKAIsiAVtwLTgQH044IZ6enrmmhV+GgYCEwhoEZAk7rX6JB9CSizhAByoigNuSPdjmdBXfoKAeQSUsHEcH0Q0qhINrgv34IDvHEgSdwjzN293NHAaBK4SkX2+JyHtx0jgABwomwMibrDRaFw1jbbyZxDwA4FU4j1lJw/XQ7DhABzwlwPxHj/UnVaCQAsIxFH0iL/JiJASOzgAB8rhQJLEW1uQVN4CAn4hkCRuIJX4AkJSjpCAMzjDAZ84EF9QjfRL1WktCLSBgHPui2kcn0eYfBIm2gpf4UChHIjj86qNbUgpbwUBPxHQNaxTcccLTSgW0WEhJTgAB7zggDvOuv5+ehmt7hCBBXPn9ojIEYoA7qzgABwIlQOqgaqFHcooHwMBfxHQ+a1ME0T8QxV/+h0298e0jwV+/DUwWp4PAqm4pxDDsMWQ+BP/kDjASP98vIOz1ASBOI6/G5IA0FcMDw4EyoEoursmsk03QCA/BOI4Xp6KG0EYAxVGLwZsERvys1MOuBHVuPwUkzOBQM0QiKJIUnFDiEynIsPn4A4csMcBN6TaVjO5pjsgUAgCs5Mk2mkviRFWYgIH4EB7HFAtazQaswtRSk4KAnVFII2iu1k5sD2xQZzBCw5Y4UB8QTWsrvpMv0CgcAQYF2BFzGgHxgoHWucA3/cXbg5cIAwEGBeA8LYuvGAFVlVzgO/7w3AmelkqAnHsnkHcqhY3rg8H4cB0HFCNKlUUuRgIhITAR0tnfk3EnZkuAfk74gwH4EDZHFBNUm0KSYvpKwhUgkAcx07EDZad5FwPY4EDcGAyB1SLVJMqEUMuCgKhIqCrB4q49yYnJL8j0nAADhTNAdUe1aBQ9Zd+g0DlCIhIX5K414pOds6PocABODDBAdUc1Z7KBZAGgAAINGbFcbyJNQMQ6AmB5idcKIYD8QXVmkajMQvdBQEQMIRAFEVLRWS4mMRHUMEVDoTMAdUW1RhDkkdTQAAEJiEwJxW3LWShou8YNRzImwNuW6PRmDNJa/gVBEDAIgIi8vlU3FGEMG8h5HxwKiQOuKOqJRY1jjaBAAjMjMDsOIo2JiKjiHZIok1f4Xt3HFDNuPRdP5v4zKyxvAoCthGIouj6jxbpOIIodieK4Ad+IXBAtUI1w7aq0ToQAIF2EJiVJPF9rBuAiYVgYvSxfZ6rNqhGMMK/HVnlvSDgEQJpek1vHMcHEcj2BRLMwKyuHBjThPSaXo+kjKaCAAh0ikAax2tE5GxdBY1+YdZwoDkHVAOSxA10qiN8DgRAwFMEFsyd2zO2w2DaXCgQUzCCAzXiQCqZ5r5qgKfyRbNBAATyQMA5t0TEHUbgayTwQl/g89Qc0FzXnM9DOzgHCIBATRBInVuVijuOcE4tnOACLn5zwB3XHK+JXNENEACBvBHoazTmiLifM1sAs/Pb7IjfJ/Fz74q4H2tu560XnA8EQKCGCFx77bX/kIjsEnF//0RIEFWwgAO+cEBzV3M4jmNXQ4miSyAAAkUjcGlJ4SFfRI92YtBwQDnghljCt2h15PwgEAgCSeJWi7g/I64YLBywywHNUc3VQGSJboIACJSIwCxdPyAVOYYJ2DUBYhNibNzxS/P5Z5WoB1wKBEAgQARmp1F0t4g7idmEaDb02QrvReSdOI6/22g02LQnQCGmyyBQJQJXfbSS2L+n4kasCCLtwJzD4IAb0dxrNBpXVSkAXBsEQCBwBNI0vVqnGbG0MOYbhvlWGedx49ecC1x26D4IgIAlBKIo+kwaRRspBKo0CK5dxyJkLKeiaCPGb0nxaAsIgMAVCOiCI0ni/g+DBTHjOppxmX3SUf0ispZFfK6QGf4AAiBgHYEkcV9JJfpDmaLJtSg8/OdA9AcR+Zr1/KZ9IAACINAUgSiKlqYS7xFxF/0XZwyWGObPgfHciPdorjRNKN4AAiAAAr4hkKbX9CZJ/AR7DeRvIJiyn5iO54J7SnPDt3ymvSAAAiDQNgK6D3kcx5t0HjPG5adxEbfu4jbG/SjaqLnQdgLxARAAARCoAwI6TkBE9vH1QHeGgiHbx085rlxXztchd+kDCIAACOSCgO5aFo9NI2SFQczcvpm3EyNdNVOfeLEzXy5SwUlAAATqjABPBeplgO2YZV3ey91+nRWKvoEACBSOAE8FKAR8Kwi42y9cFrgACIBAaAg4574oItvZhIiiwFpRoJxUbipHQ8tL+gsCIAACpSIgIp9PknhrKu64NTOgPaEUKMo9t025WCr5uRgIgAAIgMA4As65JanIQyIyjPmGYr7V9FM5FkfRIyzWg/qAAAiAgDEE0nT+IhH384+WUT1CMVCNSdYNd+WSckq5ZYzuNAcEQAAEQGAqBK699tp/GN+UKNrPyoMUA60WJuNcifYniVvHtL2pMou/gQAIgIBHCOg2qrq5SiruKVYfpBiYXAwoJ+LYPTPGkTS92iNq01QQAAEQAIF2ENBxA7owS5K419IUQ5xsiLX/fSzmbkg5oFxohzu8FwRAAARAoCYI6FrsaRyv0acDqbijtTc/CbPg0e/ydSMqjTXr79ckeekGCIAACOSJQBRFn0md+5IO/Irj+GAq7l2KAt+KBvfueOzkIY2lfgWUJ0c4FwiAAAiAQBgIzNLHxDooLBHZxUJE9ooBjUmSuOdF5N8vPdKfFQY16SUIgAAIgECpCIx9bTD+lODHWhSMf3UQX+BJQdHFgWLsjl4qxH6sd/c8zi+V+lwMBEAABEBgCgRmX3pSMKDLwiaJO/TRHelZioLOigLF7hKG20Vk7aU7+9lT4M6fQAAEQAAEQMAeAmma9uqdqq5JoMsXjz+qdoeZjiiZYiDiDusdva6wF8fxdxWr+fPnp/YiSYtAAARAAARAIEcE0vSa3iSJViSJG9CBh0kS7bw0+FBnJJzy+AnCKX1cr33RPo33zQ1oX7XPOULIqUAABEAABECgngjozAQR6dONZ3SxGn0kLuJ+rJvRXDLXwVSiP+i6BjrdTY1XxP05FTl2adDiKRF3Jo3j81Otijj2t/HXzmjRcekz+tk/j59Lp9C51/QaIm5Qrzm+EY778Xhbxtqkbevr6emZW88o0CsQAAEQAAEQAAEQAAEQAAEQAAEQAAEQAAEQAAEQAAEQAAEQAAEQAAEQAAEQAAEQAAEQAAEQAAEQAAEQAAEQAAEQAAEQAAEQAAEQAAEQAAEQAAEQAAEQAAEQAAEQAAEQAAEQKAaB/w/ECyOPuXt74wAAAABJRU5ErkJggg==;" parent="1" vertex="1">
          <mxGeometry x="666.5" y="180" width="75" height="75" as="geometry" />
        </mxCell>
        <mxCell id="N1ZtOeC66JJnGNIzaDqu-3" value="AWS Cloud" style="points=[[0,0],[0.25,0],[0.5,0],[0.75,0],[1,0],[1,0.25],[1,0.5],[1,0.75],[1,1],[0.75,1],[0.5,1],[0.25,1],[0,1],[0,0.75],[0,0.5],[0,0.25]];outlineConnect=0;gradientColor=none;html=1;whiteSpace=wrap;fontSize=12;fontStyle=0;container=1;pointerEvents=0;collapsible=0;recursiveResize=0;shape=mxgraph.aws4.group;grIcon=mxgraph.aws4.group_aws_cloud_alt;strokeColor=#232F3E;fillColor=none;verticalAlign=top;align=left;spacingLeft=30;fontColor=#232F3E;dashed=0;" parent="1" vertex="1">
          <mxGeometry x="810" y="134.25" width="790" height="885.75" as="geometry" />
        </mxCell>
        <mxCell id="N1ZtOeC66JJnGNIzaDqu-13" value="VPC" style="points=[[0,0],[0.25,0],[0.5,0],[0.75,0],[1,0],[1,0.25],[1,0.5],[1,0.75],[1,1],[0.75,1],[0.5,1],[0.25,1],[0,1],[0,0.75],[0,0.5],[0,0.25]];outlineConnect=0;gradientColor=none;html=1;whiteSpace=wrap;fontSize=12;fontStyle=0;container=1;pointerEvents=0;collapsible=0;recursiveResize=0;shape=mxgraph.aws4.group;grIcon=mxgraph.aws4.group_vpc2;strokeColor=#8C4FFF;fillColor=none;verticalAlign=top;align=left;spacingLeft=30;fontColor=#AAB7B8;dashed=0;" parent="N1ZtOeC66JJnGNIzaDqu-3" vertex="1">
          <mxGeometry x="17" y="33.25" width="753" height="836.75" as="geometry" />
        </mxCell>
        <mxCell id="N1ZtOeC66JJnGNIzaDqu-5" value="Public subnet" style="points=[[0,0],[0.25,0],[0.5,0],[0.75,0],[1,0],[1,0.25],[1,0.5],[1,0.75],[1,1],[0.75,1],[0.5,1],[0.25,1],[0,1],[0,0.75],[0,0.5],[0,0.25]];outlineConnect=0;gradientColor=none;html=1;whiteSpace=wrap;fontSize=12;fontStyle=0;container=1;pointerEvents=0;collapsible=0;recursiveResize=0;shape=mxgraph.aws4.group;grIcon=mxgraph.aws4.group_security_group;grStroke=0;strokeColor=#7AA116;fillColor=#F2F6E8;verticalAlign=top;align=left;spacingLeft=30;fontColor=#248814;dashed=0;" parent="N1ZtOeC66JJnGNIzaDqu-13" vertex="1">
          <mxGeometry x="98" y="271.25" width="130" height="204.25" as="geometry" />
        </mxCell>
        <mxCell id="N1ZtOeC66JJnGNIzaDqu-7" value="&lt;span style=&quot;color: rgb(0, 0, 0); text-wrap-mode: wrap;&quot;&gt;Nat Gateway&lt;/span&gt;" style="sketch=0;outlineConnect=0;fontColor=#232F3E;gradientColor=none;fillColor=#8C4FFF;strokeColor=none;dashed=0;verticalLabelPosition=bottom;verticalAlign=top;align=center;html=1;fontSize=12;fontStyle=0;aspect=fixed;pointerEvents=1;shape=mxgraph.aws4.nat_gateway;" parent="N1ZtOeC66JJnGNIzaDqu-5" vertex="1">
          <mxGeometry x="43.87" y="73.5" width="42.25" height="42.25" as="geometry" />
        </mxCell>
        <mxCell id="N1ZtOeC66JJnGNIzaDqu-24" value="Availability Zone 1" style="fillColor=none;strokeColor=#147EBA;dashed=1;verticalAlign=top;fontStyle=0;fontColor=#147EBA;whiteSpace=wrap;html=1;" parent="N1ZtOeC66JJnGNIzaDqu-13" vertex="1">
          <mxGeometry x="73" y="247.5" width="180" height="461.25" as="geometry" />
        </mxCell>
        <mxCell id="N1ZtOeC66JJnGNIzaDqu-27" value="Private subnet" style="points=[[0,0],[0.25,0],[0.5,0],[0.75,0],[1,0],[1,0.25],[1,0.5],[1,0.75],[1,1],[0.75,1],[0.5,1],[0.25,1],[0,1],[0,0.75],[0,0.5],[0,0.25]];outlineConnect=0;gradientColor=none;html=1;whiteSpace=wrap;fontSize=12;fontStyle=0;container=1;pointerEvents=0;collapsible=0;recursiveResize=0;shape=mxgraph.aws4.group;grIcon=mxgraph.aws4.group_security_group;grStroke=0;strokeColor=#00A4A6;fillColor=#E6F6F7;verticalAlign=top;align=left;spacingLeft=30;fontColor=#147EBA;dashed=0;" parent="N1ZtOeC66JJnGNIzaDqu-13" vertex="1">
          <mxGeometry x="98" y="489.25" width="130" height="200" as="geometry" />
        </mxCell>
        <mxCell id="N1ZtOeC66JJnGNIzaDqu-28" value="app (xN Instances)" style="sketch=0;outlineConnect=0;fontColor=#232F3E;gradientColor=none;fillColor=#ED7100;strokeColor=none;dashed=0;verticalLabelPosition=bottom;verticalAlign=top;align=center;html=1;fontSize=12;fontStyle=0;aspect=fixed;pointerEvents=1;shape=mxgraph.aws4.instance2;" parent="N1ZtOeC66JJnGNIzaDqu-27" vertex="1">
          <mxGeometry x="40.5" y="72" width="48" height="48" as="geometry" />
        </mxCell>
        <mxCell id="N1ZtOeC66JJnGNIzaDqu-40" value="Public subnet" style="points=[[0,0],[0.25,0],[0.5,0],[0.75,0],[1,0],[1,0.25],[1,0.5],[1,0.75],[1,1],[0.75,1],[0.5,1],[0.25,1],[0,1],[0,0.75],[0,0.5],[0,0.25]];outlineConnect=0;gradientColor=none;html=1;whiteSpace=wrap;fontSize=12;fontStyle=0;container=1;pointerEvents=0;collapsible=0;recursiveResize=0;shape=mxgraph.aws4.group;grIcon=mxgraph.aws4.group_security_group;grStroke=0;strokeColor=#7AA116;fillColor=#F2F6E8;verticalAlign=top;align=left;spacingLeft=30;fontColor=#248814;dashed=0;" parent="N1ZtOeC66JJnGNIzaDqu-13" vertex="1">
          <mxGeometry x="308" y="271.25" width="130" height="204.25" as="geometry" />
        </mxCell>
        <mxCell id="N1ZtOeC66JJnGNIzaDqu-41" value="&lt;span style=&quot;color: rgb(0, 0, 0); text-wrap-mode: wrap;&quot;&gt;Nat Gateway&lt;/span&gt;" style="sketch=0;outlineConnect=0;fontColor=#232F3E;gradientColor=none;fillColor=#8C4FFF;strokeColor=none;dashed=0;verticalLabelPosition=bottom;verticalAlign=top;align=center;html=1;fontSize=12;fontStyle=0;aspect=fixed;pointerEvents=1;shape=mxgraph.aws4.nat_gateway;" parent="N1ZtOeC66JJnGNIzaDqu-40" vertex="1">
          <mxGeometry x="43.87" y="73.5" width="42.25" height="42.25" as="geometry" />
        </mxCell>
        <mxCell id="N1ZtOeC66JJnGNIzaDqu-42" value="Availability Zone 2" style="fillColor=none;strokeColor=#147EBA;dashed=1;verticalAlign=top;fontStyle=0;fontColor=#147EBA;whiteSpace=wrap;html=1;" parent="N1ZtOeC66JJnGNIzaDqu-13" vertex="1">
          <mxGeometry x="283" y="247.5" width="180" height="461.25" as="geometry" />
        </mxCell>
        <mxCell id="N1ZtOeC66JJnGNIzaDqu-43" value="Private subnet" style="points=[[0,0],[0.25,0],[0.5,0],[0.75,0],[1,0],[1,0.25],[1,0.5],[1,0.75],[1,1],[0.75,1],[0.5,1],[0.25,1],[0,1],[0,0.75],[0,0.5],[0,0.25]];outlineConnect=0;gradientColor=none;html=1;whiteSpace=wrap;fontSize=12;fontStyle=0;container=1;pointerEvents=0;collapsible=0;recursiveResize=0;shape=mxgraph.aws4.group;grIcon=mxgraph.aws4.group_security_group;grStroke=0;strokeColor=#00A4A6;fillColor=#E6F6F7;verticalAlign=top;align=left;spacingLeft=30;fontColor=#147EBA;dashed=0;" parent="N1ZtOeC66JJnGNIzaDqu-13" vertex="1">
          <mxGeometry x="308" y="489.25" width="130" height="200" as="geometry" />
        </mxCell>
        <mxCell id="N1ZtOeC66JJnGNIzaDqu-44" value="app (xN Instances)" style="sketch=0;outlineConnect=0;fontColor=#232F3E;gradientColor=none;fillColor=#ED7100;strokeColor=none;dashed=0;verticalLabelPosition=bottom;verticalAlign=top;align=center;html=1;fontSize=12;fontStyle=0;aspect=fixed;pointerEvents=1;shape=mxgraph.aws4.instance2;" parent="N1ZtOeC66JJnGNIzaDqu-43" vertex="1">
          <mxGeometry x="40.5" y="72" width="48" height="48" as="geometry" />
        </mxCell>
        <mxCell id="N1ZtOeC66JJnGNIzaDqu-45" value="Public subnet" style="points=[[0,0],[0.25,0],[0.5,0],[0.75,0],[1,0],[1,0.25],[1,0.5],[1,0.75],[1,1],[0.75,1],[0.5,1],[0.25,1],[0,1],[0,0.75],[0,0.5],[0,0.25]];outlineConnect=0;gradientColor=none;html=1;whiteSpace=wrap;fontSize=12;fontStyle=0;container=1;pointerEvents=0;collapsible=0;recursiveResize=0;shape=mxgraph.aws4.group;grIcon=mxgraph.aws4.group_security_group;grStroke=0;strokeColor=#7AA116;fillColor=#F2F6E8;verticalAlign=top;align=left;spacingLeft=30;fontColor=#248814;dashed=0;" parent="N1ZtOeC66JJnGNIzaDqu-13" vertex="1">
          <mxGeometry x="518" y="271.25" width="130" height="204.25" as="geometry" />
        </mxCell>
        <mxCell id="N1ZtOeC66JJnGNIzaDqu-46" value="&lt;span style=&quot;color: rgb(0, 0, 0); text-wrap-mode: wrap;&quot;&gt;Nat Gateway&lt;/span&gt;" style="sketch=0;outlineConnect=0;fontColor=#232F3E;gradientColor=none;fillColor=#8C4FFF;strokeColor=none;dashed=0;verticalLabelPosition=bottom;verticalAlign=top;align=center;html=1;fontSize=12;fontStyle=0;aspect=fixed;pointerEvents=1;shape=mxgraph.aws4.nat_gateway;" parent="N1ZtOeC66JJnGNIzaDqu-45" vertex="1">
          <mxGeometry x="43.87" y="73.5" width="42.25" height="42.25" as="geometry" />
        </mxCell>
        <mxCell id="N1ZtOeC66JJnGNIzaDqu-47" value="Availability Zone 3" style="fillColor=none;strokeColor=#147EBA;dashed=1;verticalAlign=top;fontStyle=0;fontColor=#147EBA;whiteSpace=wrap;html=1;" parent="N1ZtOeC66JJnGNIzaDqu-13" vertex="1">
          <mxGeometry x="493" y="247.5" width="180" height="461.25" as="geometry" />
        </mxCell>
        <mxCell id="N1ZtOeC66JJnGNIzaDqu-48" value="Private subnet" style="points=[[0,0],[0.25,0],[0.5,0],[0.75,0],[1,0],[1,0.25],[1,0.5],[1,0.75],[1,1],[0.75,1],[0.5,1],[0.25,1],[0,1],[0,0.75],[0,0.5],[0,0.25]];outlineConnect=0;gradientColor=none;html=1;whiteSpace=wrap;fontSize=12;fontStyle=0;container=1;pointerEvents=0;collapsible=0;recursiveResize=0;shape=mxgraph.aws4.group;grIcon=mxgraph.aws4.group_security_group;grStroke=0;strokeColor=#00A4A6;fillColor=#E6F6F7;verticalAlign=top;align=left;spacingLeft=30;fontColor=#147EBA;dashed=0;" parent="N1ZtOeC66JJnGNIzaDqu-13" vertex="1">
          <mxGeometry x="518" y="489.25" width="130" height="200" as="geometry" />
        </mxCell>
        <mxCell id="N1ZtOeC66JJnGNIzaDqu-49" value="app (xN Instances)" style="sketch=0;outlineConnect=0;fontColor=#232F3E;gradientColor=none;fillColor=#ED7100;strokeColor=none;dashed=0;verticalLabelPosition=bottom;verticalAlign=top;align=center;html=1;fontSize=12;fontStyle=0;aspect=fixed;pointerEvents=1;shape=mxgraph.aws4.instance2;" parent="N1ZtOeC66JJnGNIzaDqu-48" vertex="1">
          <mxGeometry x="40.5" y="72" width="48" height="48" as="geometry" />
        </mxCell>
        <mxCell id="N1ZtOeC66JJnGNIzaDqu-50" value="Security group" style="fillColor=none;strokeColor=#DD3522;verticalAlign=top;fontStyle=0;fontColor=#DD3522;whiteSpace=wrap;html=1;" parent="N1ZtOeC66JJnGNIzaDqu-13" vertex="1">
          <mxGeometry x="43" y="527.5" width="660" height="130" as="geometry" />
        </mxCell>
        <mxCell id="N1ZtOeC66JJnGNIzaDqu-51" value="Application Load Balancer" style="sketch=0;outlineConnect=0;fontColor=#232F3E;gradientColor=none;fillColor=#8C4FFF;strokeColor=none;dashed=0;verticalLabelPosition=bottom;verticalAlign=top;align=center;html=1;fontSize=12;fontStyle=0;aspect=fixed;pointerEvents=1;shape=mxgraph.aws4.application_load_balancer;" parent="N1ZtOeC66JJnGNIzaDqu-13" vertex="1">
          <mxGeometry x="348.5" y="752.5" width="45" height="45" as="geometry" />
        </mxCell>
        <mxCell id="N1ZtOeC66JJnGNIzaDqu-53" value="" style="endArrow=classic;html=1;rounded=0;strokeColor=#8C4FFF;" parent="N1ZtOeC66JJnGNIzaDqu-13" source="N1ZtOeC66JJnGNIzaDqu-51" edge="1">
          <mxGeometry width="50" height="50" relative="1" as="geometry">
            <mxPoint x="263" y="207.5" as="sourcePoint" />
            <mxPoint x="213" y="632.5" as="targetPoint" />
          </mxGeometry>
        </mxCell>
        <mxCell id="N1ZtOeC66JJnGNIzaDqu-54" value="" style="endArrow=classic;html=1;rounded=0;strokeColor=#8C4FFF;" parent="N1ZtOeC66JJnGNIzaDqu-13" source="N1ZtOeC66JJnGNIzaDqu-51" edge="1">
          <mxGeometry width="50" height="50" relative="1" as="geometry">
            <mxPoint x="263" y="207.5" as="sourcePoint" />
            <mxPoint x="371" y="632.5" as="targetPoint" />
          </mxGeometry>
        </mxCell>
        <mxCell id="N1ZtOeC66JJnGNIzaDqu-55" value="" style="endArrow=classic;html=1;rounded=0;strokeColor=#8C4FFF;" parent="N1ZtOeC66JJnGNIzaDqu-13" source="N1ZtOeC66JJnGNIzaDqu-51" edge="1">
          <mxGeometry width="50" height="50" relative="1" as="geometry">
            <mxPoint x="263" y="207.5" as="sourcePoint" />
            <mxPoint x="533" y="632.5" as="targetPoint" />
          </mxGeometry>
        </mxCell>
        <mxCell id="N1ZtOeC66JJnGNIzaDqu-57" value="Availability Zone any" style="fillColor=none;strokeColor=#147EBA;dashed=1;verticalAlign=top;fontStyle=0;fontColor=#147EBA;whiteSpace=wrap;html=1;" parent="N1ZtOeC66JJnGNIzaDqu-13" vertex="1">
          <mxGeometry x="283" y="58.75" width="180" height="177.5" as="geometry" />
        </mxCell>
        <mxCell id="N1ZtOeC66JJnGNIzaDqu-59" value="Public subnet" style="points=[[0,0],[0.25,0],[0.5,0],[0.75,0],[1,0],[1,0.25],[1,0.5],[1,0.75],[1,1],[0.75,1],[0.5,1],[0.25,1],[0,1],[0,0.75],[0,0.5],[0,0.25]];outlineConnect=0;gradientColor=none;html=1;whiteSpace=wrap;fontSize=12;fontStyle=0;container=1;pointerEvents=0;collapsible=0;recursiveResize=0;shape=mxgraph.aws4.group;grIcon=mxgraph.aws4.group_security_group;grStroke=0;strokeColor=#7AA116;fillColor=#F2F6E8;verticalAlign=top;align=left;spacingLeft=30;fontColor=#248814;dashed=0;" parent="N1ZtOeC66JJnGNIzaDqu-13" vertex="1">
          <mxGeometry x="308" y="82.5" width="130" height="130" as="geometry" />
        </mxCell>
        <mxCell id="N1ZtOeC66JJnGNIzaDqu-9" value="&lt;span style=&quot;color: rgb(0, 0, 0); text-wrap-mode: wrap;&quot;&gt;Bastion Host&lt;/span&gt;" style="sketch=0;outlineConnect=0;fontColor=#232F3E;gradientColor=none;fillColor=#ED7100;strokeColor=none;dashed=0;verticalLabelPosition=bottom;verticalAlign=top;align=center;html=1;fontSize=12;fontStyle=0;aspect=fixed;pointerEvents=1;shape=mxgraph.aws4.instance2;" parent="N1ZtOeC66JJnGNIzaDqu-59" vertex="1">
          <mxGeometry x="41" y="50" width="48" height="48" as="geometry" />
        </mxCell>
        <mxCell id="N1ZtOeC66JJnGNIzaDqu-15" value="&lt;span style=&quot;color: rgb(0, 0, 0); text-wrap-mode: wrap;&quot;&gt;IGW&lt;/span&gt;" style="sketch=0;outlineConnect=0;fontColor=#232F3E;gradientColor=none;fillColor=#8C4FFF;strokeColor=none;dashed=0;verticalLabelPosition=bottom;verticalAlign=top;align=center;html=1;fontSize=12;fontStyle=0;aspect=fixed;pointerEvents=1;shape=mxgraph.aws4.internet_gateway;" parent="N1ZtOeC66JJnGNIzaDqu-13" vertex="1">
          <mxGeometry x="350.5" y="-25.75" width="45" height="45" as="geometry" />
        </mxCell>
        <mxCell id="FXeQf5swQIMRkxGQJUu0-27" style="edgeStyle=orthogonalEdgeStyle;rounded=0;orthogonalLoop=1;jettySize=auto;html=1;" parent="1" source="FXeQf5swQIMRkxGQJUu0-18" target="N1ZtOeC66JJnGNIzaDqu-9" edge="1">
          <mxGeometry relative="1" as="geometry">
            <mxPoint x="720" y="210" as="targetPoint" />
            <Array as="points">
              <mxPoint x="704" y="330" />
            </Array>
          </mxGeometry>
        </mxCell>
        <mxCell id="FXeQf5swQIMRkxGQJUu0-28" value="&lt;div&gt;using proxyjump&lt;/div&gt;Install docker,&lt;div&gt;dockerhub login,&lt;/div&gt;&lt;div&gt;start containers&lt;/div&gt;" style="edgeLabel;html=1;align=center;verticalAlign=middle;resizable=0;points=[];" parent="FXeQf5swQIMRkxGQJUu0-27" vertex="1" connectable="0">
          <mxGeometry x="-0.2008" y="-2" relative="1" as="geometry">
            <mxPoint x="152" as="offset" />
          </mxGeometry>
        </mxCell>
      </root>
    </mxGraphModel>
  </diagram>
</mxfile>
